<svg width="65" height="58" viewBox="0 0 65 58" fill="none" xmlns="http://www.w3.org/2000/svg">
<path d="M45.6407 38.9995V37.5217V36.0439C45.6407 34.4762 45.106 32.9727 44.1544 31.8641C43.2027 30.7556 41.912 30.1328 40.5661 30.1328H35.4915H30.4169C29.071 30.1328 27.7803 30.7556 26.8286 31.8641C25.8769 32.9727 25.3423 34.4762 25.3423 36.0439V38.9995" fill="#341A5A"/>
<path d="M45.6407 38.9995V37.5217V36.0439C45.6407 34.4762 45.106 32.9727 44.1544 31.8641C43.2027 30.7556 41.912 30.1328 40.5661 30.1328H35.4915H30.4169C29.071 30.1328 27.7803 30.7556 26.8286 31.8641C25.8769 32.9727 25.3423 34.4762 25.3423 36.0439V38.9995" stroke="white" stroke-width="1.5" stroke-linecap="round" stroke-linejoin="round"/>
<path d="M35.4911 30.1333C38.2937 30.1333 40.5657 27.8649 40.5657 25.0667C40.5657 22.2684 38.2937 20 35.4911 20C32.6885 20 30.4165 22.2684 30.4165 25.0667C30.4165 27.8649 32.6885 30.1333 35.4911 30.1333Z" fill="#341A5A" stroke="white" stroke-width="1.5" stroke-linecap="round" stroke-linejoin="round"/>
<path d="M39.2984 38.9995V37.5217V36.0439C39.2984 34.4762 38.7638 32.9727 37.8121 31.8641C36.8604 30.7556 35.5697 30.1328 34.2238 30.1328H29.1492H24.0746C22.7287 30.1328 21.438 30.7556 20.4863 31.8641C19.5346 32.9727 19 34.4762 19 36.0439V38.9995" fill="#341A5A"/>
<path d="M39.2984 38.9995V37.5217V36.0439C39.2984 34.4762 38.7638 32.9727 37.8121 31.8641C36.8604 30.7556 35.5697 30.1328 34.2238 30.1328H29.1492H24.0746C22.7287 30.1328 21.438 30.7556 20.4863 31.8641C19.5346 32.9727 19 34.4762 19 36.0439V38.9995" stroke="white" stroke-width="1.5" stroke-linecap="round" stroke-linejoin="round"/>
<path d="M29.1493 30.1333C31.9519 30.1333 34.2239 27.8649 34.2239 25.0667C34.2239 22.2684 31.9519 20 29.1493 20C26.3467 20 24.0747 22.2684 24.0747 25.0667C24.0747 27.8649 26.3467 30.1333 29.1493 30.1333Z" fill="#341A5A" stroke="white" stroke-width="1.5" stroke-linecap="round" stroke-linejoin="round"/>
<rect x="1.82129" y="1.5" width="61.1002" height="55" rx="10.5" stroke="url(#paint0_linear_9404_23768)" stroke-opacity="0.5" stroke-width="3"/>
<defs>
<linearGradient id="paint0_linear_9404_23768" x1="32.3714" y1="0" x2="32.3714" y2="58" gradientUnits="userSpaceOnUse">
<stop stop-color="#724A9C"/>
<stop offset="1" stop-color="#192760"/>
</linearGradient>
</defs>
</svg>
