<svg width="19" height="22" viewBox="0 0 19 22" fill="none" xmlns="http://www.w3.org/2000/svg">
<path d="M4.53816 11.0008L6.49929 12.7481L1.86556 17.9489L1.83695 17.9811C1.53824 18.3163 1.27507 18.6116 1.10634 18.8446C1.02195 18.9611 0.918156 19.1189 0.857909 19.2976C0.794012 19.4872 0.740639 19.8332 0.980506 20.1513C1.22037 20.4695 1.56766 20.5134 1.7675 20.5041C1.95593 20.4954 2.13614 20.439 2.27139 20.39C2.54183 20.2919 2.89819 20.1202 3.30268 19.9253L3.34142 19.9066L13.342 15.0883L13.392 15.0643C13.9598 14.7907 14.4598 14.5499 14.8207 14.3052C15.2045 14.045 15.585 13.6795 15.6656 13.1044C15.7463 12.5293 15.4811 12.0732 15.1838 11.7175C14.9042 11.3829 14.4898 11.0137 14.0191 10.5945C14.0054 10.5822 13.9916 10.5699 13.9777 10.5576L12.0166 8.81034L16.6503 3.60946L16.6789 3.57736C16.9777 3.24212 17.2408 2.94679 17.4096 2.71378C17.4939 2.59726 17.5977 2.43953 17.658 2.26077C17.7219 2.07119 17.7752 1.72524 17.5354 1.40707C17.2955 1.08891 16.9482 1.04501 16.7484 1.05426C16.56 1.06298 16.3797 1.11936 16.2445 1.16842C15.9741 1.26651 15.6177 1.43823 15.2132 1.63315C15.2003 1.63935 15.1874 1.64558 15.1745 1.65182L5.17389 6.47008L5.12394 6.49415C4.55612 6.76766 4.05605 7.00854 3.69515 7.25324C3.31144 7.51341 2.93094 7.8789 2.85024 8.454C2.76955 9.02909 3.03476 9.48519 3.33205 9.84091C3.61167 10.1755 4.02613 10.5447 4.49674 10.9639L4.53816 11.0008Z" stroke="current" stroke-width="1.5"/>
</svg>
