<svg width="44" height="44" viewBox="0 0 44 44" fill="none" xmlns="http://www.w3.org/2000/svg">
<path d="M19.0068 21.795C18.9214 23.4496 20.1935 24.8602 21.8481 24.9456C23.5028 25.031 24.9134 23.7589 24.9988 22.1042C25.0842 20.4496 23.8121 19.039 22.1574 18.9536C20.5028 18.8682 19.0922 20.1403 19.0068 21.795Z" stroke="current" stroke-linecap="round" stroke-linejoin="round"/>
<path d="M18.6253 29.1851C18.331 29.0366 17.9989 28.9797 17.6719 29.0218C17.3449 29.0638 17.038 29.2028 16.7907 29.4209L16.7277 29.4777C16.5326 29.6538 16.3047 29.7898 16.0571 29.8778C15.8094 29.9658 15.5468 30.0041 15.2844 29.9905C15.0219 29.977 14.7646 29.9118 14.5273 29.7988C14.2901 29.6858 14.0774 29.5271 13.9015 29.3318C13.7253 29.1367 13.5894 28.9088 13.5014 28.6612C13.4134 28.4135 13.3751 28.1509 13.3886 27.8885C13.4022 27.626 13.4673 27.3687 13.5803 27.1315C13.6934 26.8942 13.8521 26.6815 14.0474 26.5056L14.1104 26.4487C14.3527 26.2253 14.5226 25.9343 14.5981 25.6134C14.6735 25.2924 14.6511 24.9563 14.5337 24.6482C14.4224 24.3463 14.2252 24.0835 13.9664 23.8922C13.7076 23.701 13.3986 23.5895 13.0773 23.5717L12.9075 23.5629C12.3778 23.5356 11.8806 23.2989 11.5254 22.905C11.1701 22.5111 10.9859 21.9922 11.0133 21.4625C11.0406 20.9327 11.2773 20.4356 11.6712 20.0803C12.0651 19.7251 12.584 19.5409 13.1137 19.5682L13.2036 19.5729C13.5345 19.5822 13.8607 19.4917 14.1395 19.3133C14.4184 19.1348 14.6371 18.8766 14.7673 18.5721C14.9157 18.2778 14.9726 17.9457 14.9306 17.6187C14.8886 17.2917 14.7496 16.9848 14.5315 16.7375L14.4747 16.6745C14.2986 16.4794 14.1626 16.2516 14.0746 16.0039C13.9866 15.7562 13.9483 15.4937 13.9618 15.2312C13.9754 14.9687 14.0405 14.7115 14.1536 14.4742C14.2666 14.2369 14.4253 14.0242 14.6206 13.8483C14.8156 13.6722 15.0435 13.5362 15.2912 13.4482C15.5389 13.3602 15.8014 13.3219 16.0639 13.3354C16.3264 13.349 16.5836 13.4141 16.8209 13.5272C17.0582 13.6402 17.2709 13.7989 17.4468 13.9942L17.5036 14.0572C17.7271 14.2996 18.0181 14.4694 18.339 14.5449C18.6599 14.6204 18.9961 14.598 19.3042 14.4806C19.6061 14.3692 19.8689 14.172 20.0601 13.9132C20.2514 13.6545 20.3628 13.3454 20.3807 13.0241L20.3895 12.8543C20.4168 12.3246 20.6535 11.8275 21.0474 11.4722C21.4413 11.117 21.9602 10.9328 22.4899 10.9601C23.0196 10.9874 23.5168 11.2241 23.872 11.618C24.2273 12.0119 24.4115 12.5308 24.3842 13.0605L24.3795 13.1504C24.3702 13.4814 24.4606 13.8075 24.6391 14.0863C24.8176 14.3652 25.0758 14.5839 25.3802 14.7141C25.6746 14.8626 26.0067 14.9195 26.3337 14.8775C26.6607 14.8354 26.9676 14.6964 27.2148 14.4783L27.2778 14.4215C27.4729 14.2454 27.7008 14.1094 27.9485 14.0214C28.1961 13.9334 28.4587 13.8951 28.7212 13.9087C28.9837 13.9222 29.2409 13.9874 29.4782 14.1004C29.7155 14.2134 29.9282 14.3721 30.1041 14.5674C30.2802 14.7625 30.4162 14.9904 30.5042 15.238C30.5922 15.4857 30.6305 15.7483 30.6169 16.0107C30.6034 16.2732 30.5382 16.5305 30.4252 16.7677C30.3122 17.005 30.1535 17.2177 29.9582 17.3936L29.8952 17.4505C29.6528 17.6739 29.4829 17.9649 29.4075 18.2858C29.332 18.6068 29.3544 18.9429 29.4718 19.251L29.4677 19.3309C29.579 19.6328 29.7762 19.8956 30.035 20.0869C30.2938 20.2781 30.6028 20.3896 30.9241 20.4074L31.0939 20.4162C31.6236 20.4435 32.1208 20.6802 32.476 21.0741C32.8313 21.468 33.0155 21.9869 32.9882 22.5166C32.9608 23.0464 32.7242 23.5435 32.3302 23.8988C31.9363 24.254 31.4174 24.4382 30.8877 24.4109L30.7978 24.4062C30.4764 24.3909 30.1575 24.4699 29.8804 24.6336C29.6033 24.7972 29.3801 25.0382 29.2383 25.3271C29.0898 25.6214 29.0329 25.9535 29.0749 26.2805C29.1169 26.6075 29.256 26.9144 29.474 27.1617L29.5309 27.2247C29.707 27.4198 29.8429 27.6476 29.9309 27.8953C30.0189 28.143 30.0573 28.4055 30.0437 28.668C30.0302 28.9305 29.965 29.1877 29.852 29.425C29.739 29.6623 29.5803 29.875 29.385 30.0509C29.1899 30.227 28.962 30.363 28.7144 30.451C28.4667 30.539 28.2041 30.5773 27.9416 30.5638C27.6792 30.5502 27.4219 30.4851 27.1846 30.372C26.9473 30.259 26.7347 30.1003 26.5588 29.905L26.5019 29.842C26.2784 29.5996 25.9875 29.4298 25.6665 29.3543C25.3456 29.2788 25.0094 29.3012 24.7014 29.4186L24.6215 29.4145C24.3195 29.5259 24.0568 29.7231 23.8655 29.9818C23.6742 30.2406 23.5628 30.5497 23.545 30.871L23.5362 31.0407C23.5088 31.5705 23.2722 32.0676 22.8783 32.4229C22.4844 32.7781 21.9655 32.9623 21.4358 32.935C20.906 32.9076 20.4089 32.671 20.0536 32.2771C19.6984 31.8832 19.5142 31.3643 19.5415 30.8345L19.5461 30.7447C19.5615 30.4232 19.4824 30.1044 19.3188 29.8273C19.1552 29.5502 18.9142 29.327 18.6253 29.1851Z" stroke="current" stroke-linecap="round" stroke-linejoin="round"/>
</svg>
