<svg width="90" height="90" viewBox="0 0 90 90" fill="none" xmlns="http://www.w3.org/2000/svg">
<path d="M27.5527 84.3282C30.1858 81.9952 35.1742 71.4304 32.4898 60.2722C30.3504 48.149 31.5682 27.3586 58.8206 31.3083C65.8971 32.3338 79.5562 30.8146 83.9995 25.0547" stroke="current" stroke-width="5.39287"/>
<path d="M8.68362 66.3149C10.8644 63.5545 21.1311 57.9784 32.4229 60.0293C44.6474 61.4817 65.3361 59.0935 59.8561 32.1071C58.4331 25.0998 59.1798 11.3767 64.6799 6.61568" stroke="current" stroke-width="5.39287"/>
<path d="M39.8958 41.1796L51.0864 51.7119M45.4911 37.3945L54.8714 45.7875M37.4272 47.2686L45.4911 54.345" stroke="current" stroke-width="2.69644" stroke-linecap="round"/>
<path d="M36.9336 53.0285L38.2501 54.345M52.5675 37.3945L54.3778 38.8756" stroke="current" stroke-linecap="round"/>
<path d="M18.3374 65.5304L28.0469 74.9107M25.743 64.543L29.1989 67.3406" stroke="current" stroke-width="2.69644" stroke-linecap="round"/>
<path d="M64.2524 23.5725L67.2147 26.5347M65.2398 16.4961L74.7848 25.5473" stroke="current" stroke-width="2.69644" stroke-linecap="round"/>
</svg>
