<svg width="65" height="84" viewBox="0 0 65 84" fill="none" xmlns="http://www.w3.org/2000/svg">
<path d="M45.5619 31.5036C41.4439 29.2237 36.8177 28.0188 32.1108 28.0002C27.4038 27.9816 22.7682 29.1499 18.6323 31.3971L20.7356 35.2681C24.2207 33.3745 28.127 32.39 32.0933 32.4057C36.0596 32.4214 39.958 33.4367 43.4281 35.3578L45.5619 31.5036Z" fill="current"/>
<path d="M18.4381 52.4964C22.5561 54.7763 27.1823 55.9812 31.8892 55.9998C36.5962 56.0184 41.2318 54.8501 45.3677 52.6029L43.2644 48.7319C39.7793 50.6255 35.873 51.61 31.9067 51.5943C27.9404 51.5786 24.042 50.5633 20.5719 48.6422L18.4381 52.4964Z" fill="current"/>
<path d="M47.8175 16.6381C52.6708 18.888 56.778 22.4811 59.6531 26.9922C62.5282 31.5034 64.0509 36.7437 64.0409 42.0931C64.031 47.4425 62.4889 52.6771 59.597 57.1776C56.7052 61.678 52.5847 65.2558 47.7231 67.4877L44.1133 59.6247C47.4727 58.0825 50.32 55.6102 52.3183 52.5004C54.3165 49.3906 55.3821 45.7735 55.389 42.077C55.3958 38.3806 54.3437 34.7595 52.357 31.6423C50.3703 28.5251 47.5322 26.0423 44.1786 24.4876L47.8175 16.6381Z" fill="current" fill-opacity="0.3"/>
<path d="M16.2645 16.5561C11.421 18.8014 7.32042 22.3847 4.44602 26.8835C1.57161 31.3822 0.0432417 36.609 0.0410608 41.9476C0.0388798 47.2863 1.56298 52.5143 4.43371 57.0154C7.30444 61.5165 11.4021 65.1031 16.2438 67.3525L19.8891 59.506C16.5435 57.9517 13.712 55.4733 11.7283 52.363C9.74466 49.2528 8.69151 45.6402 8.69301 41.9512C8.69452 38.2622 9.75063 34.6505 11.7368 31.5418C13.7231 28.4332 16.5566 25.9571 19.9035 24.4056L16.2645 16.5561Z" fill="current" fill-opacity="0.3"/>
</svg>
