<svg width="51" height="51" viewBox="0 0 51 51" fill="none" xmlns="http://www.w3.org/2000/svg">
<path d="M17.2638 18.2901C17.4247 18.1103 17.6193 17.9643 17.8365 17.8606C18.0537 17.7569 18.2892 17.6975 18.5293 17.6859C18.6125 17.6816 18.6906 17.6443 18.7464 17.5822C18.8022 17.52 18.8312 17.4381 18.8271 17.3543L18.827 17.3538C18.8249 17.3123 18.8147 17.2716 18.7969 17.2341C18.7792 17.1966 18.7543 17.1629 18.7237 17.1351C18.693 17.1072 18.6572 17.0857 18.6183 17.0718C18.5794 17.0579 18.5382 17.0518 18.497 17.0539C17.8462 17.0872 17.2352 17.3789 16.7979 17.8652C16.3607 18.3515 16.1329 18.9926 16.1645 19.648L16.1645 19.6485C16.1686 19.7323 16.2056 19.8111 16.2673 19.8675C16.329 19.9239 16.4105 19.9533 16.4937 19.9493C16.577 19.9452 16.6552 19.9081 16.7112 19.8459C16.7672 19.7838 16.7963 19.7018 16.7922 19.618C16.7799 19.3762 16.8153 19.1344 16.8962 18.9065C16.9771 18.6786 17.1021 18.4691 17.2638 18.2901Z" fill="current"/>
<path d="M14.0175 19.7543C14.0217 19.8381 14.0587 19.9168 14.1205 19.9732C14.1823 20.0295 14.2638 20.0589 14.3471 20.0547C14.4303 20.0506 14.5085 20.0134 14.5644 19.9512C14.6203 19.889 14.6494 19.807 14.6452 19.7232C14.5936 18.6616 14.9623 17.6232 15.6705 16.8356C16.3787 16.0481 17.3684 15.5759 18.4226 15.5227C18.5058 15.5185 18.584 15.4813 18.6399 15.4191C18.6958 15.3569 18.7249 15.2749 18.7207 15.1911C18.7166 15.1073 18.6795 15.0285 18.6177 14.9722C18.5559 14.9158 18.4745 14.8865 18.3912 14.8906C17.1707 14.9522 16.0247 15.4989 15.2048 16.4107C14.3848 17.3226 13.9579 18.525 14.0178 19.754L14.0175 19.7543Z" fill="current"/>
<path d="M11.8706 19.8598C11.8747 19.9436 11.9118 20.0223 11.9736 20.0787C12.0354 20.135 12.1168 20.1643 12.2001 20.1602C12.2833 20.1561 12.3615 20.1188 12.4174 20.0566C12.4733 19.9945 12.5024 19.9124 12.4983 19.8286C12.418 18.1938 12.9856 16.5942 14.0763 15.3813C15.1671 14.1684 16.6917 13.4414 18.3152 13.3602C18.3985 13.3561 18.4767 13.3188 18.5326 13.2566C18.5885 13.1944 18.6176 13.1124 18.6134 13.0286C18.6093 12.9448 18.5722 12.866 18.5104 12.8097C18.4486 12.7533 18.3671 12.724 18.2839 12.7281C16.4939 12.8176 14.8129 13.6191 13.6103 14.9564C12.4077 16.2936 11.782 18.0573 11.8706 19.8598Z" fill="current"/>
<path d="M15.6679 22.246C15.4097 22.5338 15.2755 22.9131 15.2947 23.3006C15.3139 23.6881 15.485 24.0523 15.7704 24.3132L30.9755 38.1771C31.2616 38.4373 31.6383 38.5727 32.0232 38.5536C32.4081 38.5345 32.7696 38.3625 33.0285 38.0753L38.3791 32.1252C38.5072 31.9828 38.6061 31.8163 38.6703 31.6354C38.7345 31.4544 38.7626 31.2625 38.7531 31.0705C38.7436 30.8785 38.6966 30.6903 38.6148 30.5166C38.5331 30.3429 38.4181 30.187 38.2766 30.058L23.0715 16.1941C22.93 16.065 22.7646 15.9653 22.5849 15.9005C22.4051 15.8358 22.2145 15.8074 22.0238 15.8168C21.8332 15.8263 21.6463 15.8734 21.4738 15.9556C21.3013 16.0378 21.1466 16.1534 21.0186 16.2959L15.6679 22.246ZM22.6498 16.6632L37.8549 30.5271C38.0171 30.6751 38.1144 30.8818 38.1253 31.1018C38.1362 31.3218 38.0599 31.5372 37.9131 31.7004L32.5625 37.6504C32.4155 37.8134 32.2103 37.911 31.9918 37.9219C31.7734 37.9327 31.5595 37.8559 31.3972 37.7082L16.1923 23.8442C16.0303 23.6962 15.9332 23.4895 15.9223 23.2695C15.9114 23.0496 15.9876 22.8343 16.1341 22.6709L21.4847 16.7209C21.5573 16.6401 21.6451 16.5745 21.743 16.5278C21.8409 16.4812 21.947 16.4544 22.0552 16.449C22.1634 16.4437 22.2716 16.4598 22.3736 16.4965C22.4757 16.5333 22.5695 16.5899 22.6498 16.6632Z" fill="current"/>
<path d="M21.9505 25.3044C22.3484 25.6672 22.873 25.856 23.4089 25.8295C23.9448 25.8029 24.4482 25.563 24.8082 25.1627C25.1683 24.7623 25.3555 24.2342 25.3288 23.6946C25.302 23.1549 25.0634 22.6479 24.6656 22.2851C24.4685 22.1055 24.2383 21.9667 23.9881 21.8766C23.7379 21.7865 23.4725 21.7469 23.2071 21.76C22.9418 21.7732 22.6816 21.8388 22.4415 21.9533C22.2014 22.0677 21.9861 22.2286 21.8078 22.4268C21.6295 22.6251 21.4918 22.8568 21.4025 23.1087C21.3132 23.3606 21.274 23.6277 21.2873 23.8949C21.314 24.4346 21.5526 24.9416 21.9505 25.3044ZM23.2383 22.3924C23.5606 22.3763 23.8785 22.4733 24.1378 22.6668C24.3972 22.8603 24.5819 23.1383 24.6606 23.4534C24.7393 23.7686 24.707 24.1014 24.5693 24.3951C24.4316 24.6888 24.197 24.9253 23.9054 25.0643C23.6139 25.2033 23.2834 25.2361 22.9703 25.1572C22.6572 25.0783 22.381 24.8926 22.1885 24.6317C21.9961 24.3707 21.8994 24.0508 21.915 23.7263C21.9305 23.4018 22.0574 23.0928 22.2738 22.852C22.3964 22.715 22.5448 22.6038 22.7104 22.5249C22.876 22.4459 23.0555 22.4009 23.2385 22.3923L23.2383 22.3924Z" fill="current"/>
<path d="M28.5892 26.2543C28.6027 26.5262 28.7093 26.7851 28.8911 26.9868C29.0728 27.1885 29.3183 27.3206 29.5858 27.3605C29.8533 27.4004 30.1262 27.3457 30.358 27.2058C30.5898 27.0658 30.7662 26.8492 30.8571 26.5928C30.948 26.3365 30.9478 26.0563 30.8565 25.7999C30.7652 25.5436 30.5885 25.327 30.3565 25.1871C30.1244 25.0472 29.8515 24.9925 29.584 25.0325C29.3166 25.0725 29.0713 25.2046 28.8899 25.4063C28.7865 25.5206 28.7067 25.6544 28.6551 25.7999C28.6035 25.9455 28.5811 26.0999 28.5892 26.2543ZM30.1188 25.7934C30.2114 25.8779 30.2722 25.9921 30.2907 26.1166C30.3091 26.2411 30.2841 26.3681 30.22 26.4761C30.1558 26.5841 30.0565 26.6663 29.9388 26.7087C29.8212 26.7511 29.6925 26.7511 29.5748 26.7088C29.4571 26.6664 29.3576 26.5842 29.2932 26.4763C29.2288 26.3684 29.2036 26.2413 29.2219 26.1168C29.2401 25.9923 29.3006 25.8781 29.3932 25.7936C29.4857 25.709 29.6045 25.6594 29.7294 25.6532C29.8002 25.6495 29.8712 25.66 29.938 25.6841C30.0048 25.7081 30.0662 25.7453 30.1188 25.7934Z" fill="current"/>
<path d="M31.5511 28.9496C31.5646 29.2216 31.6713 29.4804 31.853 29.6821C32.0347 29.8838 32.2803 30.0159 32.5477 30.0558C32.8152 30.0957 33.0881 30.041 33.3199 29.9011C33.5517 29.7611 33.7281 29.5445 33.819 29.2881C33.9099 29.0318 33.9097 28.7516 33.8184 28.4953C33.7271 28.2389 33.5504 28.0224 33.3184 27.8824C33.0864 27.7425 32.8134 27.6878 32.5459 27.7278C32.2785 27.7678 32.0332 27.8999 31.8518 28.1016C31.7484 28.2159 31.6687 28.3497 31.617 28.4953C31.5654 28.6408 31.543 28.7953 31.5511 28.9496ZM33.0807 28.4887C33.1734 28.5732 33.2342 28.6874 33.2526 28.8119C33.2711 28.9364 33.2461 29.0634 33.1819 29.1714C33.1178 29.2794 33.0184 29.3616 32.9008 29.404C32.7831 29.4464 32.6545 29.4464 32.5367 29.4041C32.419 29.3617 32.3195 29.2795 32.2551 29.1716C32.1908 29.0636 32.1656 28.9366 32.1838 28.8121C32.2021 28.6876 32.2626 28.5734 32.3552 28.4888C32.4477 28.4043 32.5666 28.3547 32.6914 28.3486C32.7622 28.3449 32.8331 28.3553 32.9 28.3794C32.9668 28.4034 33.0282 28.4406 33.0807 28.4887Z" fill="current"/>
<path d="M27.1068 29.1488C26.9064 28.966 26.6492 28.8588 26.3791 28.8455C26.1091 28.8322 25.8429 28.9135 25.6258 29.0757C25.4088 29.2379 25.2544 29.4709 25.1889 29.735C25.1234 29.9991 25.1509 30.2779 25.2667 30.524C25.3825 30.7701 25.5795 30.9682 25.824 31.0845C26.0685 31.2009 26.3454 31.2283 26.6076 31.1621C26.8698 31.096 27.1011 30.9403 27.262 30.7216C27.4229 30.5029 27.5034 30.2348 27.49 29.9629C27.4743 29.6512 27.3366 29.3584 27.1068 29.1488ZM25.9603 30.4238C25.8811 30.3516 25.8249 30.2573 25.7989 30.153C25.7729 30.0486 25.7782 29.9389 25.8141 29.8376C25.85 29.7363 25.9149 29.6481 26.0007 29.584C26.0864 29.5199 26.1891 29.4829 26.2958 29.4776C26.4025 29.4723 26.5084 29.499 26.6001 29.5543C26.6917 29.6096 26.7651 29.691 26.8109 29.7882C26.8566 29.8854 26.8727 29.9941 26.8571 30.1005C26.8416 30.2069 26.795 30.3062 26.7233 30.386C26.6758 30.4391 26.6184 30.4822 26.5543 30.5129C26.4902 30.5436 26.4207 30.5612 26.3497 30.5647C26.2788 30.5682 26.2079 30.5576 26.1411 30.5334C26.0742 30.5092 26.0128 30.472 25.9603 30.4238Z" fill="current"/>
<path d="M28.492 33.5878C28.6634 33.7441 28.8769 33.8458 29.1056 33.8799C29.3343 33.914 29.5678 33.8791 29.7767 33.7796C29.9856 33.68 30.1604 33.5203 30.2791 33.3207C30.3978 33.1211 30.455 32.8904 30.4434 32.658C30.4319 32.4255 30.3522 32.2017 30.2143 32.0148C30.0765 31.8278 29.8867 31.6862 29.669 31.6079C29.4513 31.5295 29.2155 31.5178 28.9913 31.5744C28.7671 31.631 28.5647 31.7533 28.4096 31.9257C28.3057 32.0398 28.2253 32.1735 28.1732 32.3191C28.121 32.4647 28.0981 32.6193 28.1058 32.7739C28.1134 32.9285 28.1515 33.0801 28.2178 33.2198C28.2841 33.3596 28.3773 33.4846 28.492 33.5878ZM29.6386 32.3128C29.7178 32.385 29.7739 32.4792 29.7999 32.5835C29.8258 32.6878 29.8205 32.7975 29.7846 32.8987C29.7487 32.9999 29.6838 33.0881 29.5981 33.1521C29.5124 33.2162 29.4097 33.2532 29.3031 33.2585C29.1965 33.2638 29.0906 33.2371 28.999 33.1818C28.9074 33.1266 28.8341 33.0453 28.7883 32.9481C28.7426 32.8509 28.7264 32.7423 28.742 32.636C28.7575 32.5296 28.804 32.4303 28.8756 32.3506C28.923 32.2973 28.9803 32.254 29.0445 32.2233C29.1086 32.1925 29.1781 32.1748 29.2491 32.1713C29.32 32.1678 29.391 32.1785 29.4578 32.2028C29.5247 32.2271 29.586 32.2645 29.6384 32.3128L29.6386 32.3128Z" fill="current"/>
<path d="M33.1189 34.288C33.0629 34.3502 33.0339 34.4322 33.038 34.516C33.0422 34.5998 33.0793 34.6786 33.1411 34.7349C33.2029 34.7913 33.2844 34.8206 33.3676 34.8165C33.4509 34.8123 33.5291 34.7751 33.585 34.7129L34.3908 33.8167C34.4467 33.7545 34.4758 33.6725 34.4717 33.5887C34.4675 33.5048 34.4304 33.4261 34.3686 33.3698C34.3068 33.3134 34.2253 33.2841 34.1421 33.2882C34.0588 33.2924 33.9806 33.3296 33.9247 33.3918L33.1189 34.288Z" fill="current"/>
<path d="M22.6675 20.5809C22.7014 20.6217 22.745 20.6537 22.7943 20.6732C22.8435 20.6927 22.8968 20.6995 22.9492 20.693C23.0174 20.6848 23.0861 20.679 23.1554 20.6754C23.8711 20.6409 24.5769 20.8572 25.1523 21.2876C25.7278 21.7179 26.1374 22.3358 26.3114 23.0358C26.4854 23.7359 26.4131 24.4749 26.1067 25.127C25.8003 25.779 25.2789 26.3038 24.6311 26.612C23.9834 26.9201 23.2494 26.9926 22.5542 26.817C21.859 26.6414 21.2456 26.2287 20.8185 25.649C20.3913 25.0694 20.1768 24.3587 20.2115 23.6381C20.2463 22.9174 20.528 22.2313 21.0089 21.6966C21.059 21.6409 21.1108 21.5873 21.1644 21.5358C21.1955 21.5075 21.2206 21.4733 21.2384 21.4352C21.2561 21.397 21.2661 21.3556 21.2678 21.3135C21.2694 21.2713 21.2627 21.2293 21.2479 21.1898C21.2332 21.1503 21.2108 21.1142 21.182 21.0835C21.1532 21.0529 21.1187 21.0283 21.0803 21.0113C21.042 20.9943 21.0007 20.9852 20.9588 20.9845C20.917 20.9838 20.8754 20.9915 20.8365 21.0072C20.7977 21.0229 20.7623 21.0463 20.7326 21.0759C20.6674 21.1385 20.6042 21.2037 20.543 21.2716C19.9623 21.916 19.6217 22.7433 19.5792 23.6127C19.5367 24.482 19.7949 25.3395 20.3099 26.0389C20.8249 26.7384 21.5647 27.2366 22.4033 27.4485C23.2419 27.6604 24.1273 27.573 24.9087 27.2012C25.69 26.8294 26.319 26.1961 26.6882 25.4094C27.0575 24.6226 27.1443 23.7311 26.9338 22.8867C26.7233 22.0424 26.2285 21.2974 25.5338 20.7789C24.8391 20.2604 23.9875 20.0004 23.1241 20.0432C23.0385 20.0475 22.9534 20.0546 22.869 20.0647C22.8131 20.0719 22.7602 20.094 22.7158 20.1288C22.6714 20.1637 22.6371 20.2099 22.6165 20.2626C22.5959 20.3154 22.5897 20.3728 22.5987 20.4288C22.6077 20.4848 22.6314 20.5373 22.6675 20.5809Z" fill="current"/>
</svg>
