<svg width="40" height="40" viewBox="0 0 40 40" fill="none" xmlns="http://www.w3.org/2000/svg">
<path d="M16.0558 21.3698C15.5495 20.8742 15.235 20.2154 15.1679 19.5101C15.1008 18.8048 15.2854 18.0985 15.6892 17.5164C16.0929 16.9342 16.6897 16.5137 17.3737 16.3293C18.0578 16.1449 18.785 16.2086 19.4267 16.5091C21.2392 17.3546 20.8772 20.4961 20.8772 20.4961M24.536 22.1145L24.5402 22.1055M24.2322 10.9383C29.2372 13.273 31.402 19.2231 29.0673 24.2282C26.7325 29.2333 20.7824 31.3981 15.7774 29.0633C10.7723 26.7286 8.60752 20.7785 10.9422 15.7734C13.277 10.7683 19.2271 8.60359 24.2322 10.9383Z" stroke="current" stroke-linecap="round" stroke-linejoin="round"/>
</svg>
