<svg width="59" height="65" viewBox="0 0 59 65" fill="none" xmlns="http://www.w3.org/2000/svg">
<path fill-rule="evenodd" clip-rule="evenodd" d="M26.72 3.07937L6.10944 15.4582C6.09978 15.464 6.09003 15.4696 6.08021 15.4751C4.24841 16.5007 3.10919 18.4478 3.10919 20.5672V42.0741L16.4863 28.4479L16.5014 28.4329C18.0839 26.8817 19.9334 26.0312 21.8612 26.0312C23.7889 26.0312 25.6384 26.8817 27.2209 28.4329L27.236 28.4479L35.6138 36.9817L37.875 34.6784L37.8901 34.6633C39.4726 33.1122 41.3221 32.2617 43.2499 32.2617C45.1776 32.2617 47.0271 33.1122 48.6096 34.6633L48.6247 34.6784L55.8907 42.0797V20.5703L55.8908 20.5636C55.9037 18.449 54.7947 16.5028 53.0065 15.4671C52.9006 15.4058 52.8079 15.329 52.7303 15.2408L32.4817 3.07939C31.5974 2.58578 30.6067 2.32769 29.6008 2.32769C28.5949 2.32769 27.6042 2.58578 26.72 3.07937ZM55.7953 44.2978C55.4127 44.4139 54.9801 44.3186 54.6806 44.0135L47.0494 36.2403C45.7985 35.0172 44.4852 34.48 43.2499 34.48C42.0145 34.48 40.7012 35.0172 39.4503 36.2403L37.1681 38.565L42.5137 44.0101C42.9429 44.4472 42.9364 45.1494 42.4992 45.5786C42.0621 46.0077 41.3599 46.0013 40.9307 45.5641L34.8889 39.4098C34.8701 39.3937 34.8518 39.3769 34.834 39.3593C34.8061 39.332 34.7799 39.3034 34.7555 39.274L25.6607 30.0098C24.4098 28.7867 23.0965 28.2496 21.8612 28.2496C20.6258 28.2496 19.3124 28.7867 18.0616 30.0098L4.31935 44.0079C4.02041 44.3124 3.58893 44.4079 3.20687 44.2928C3.33032 44.9658 3.56919 45.6136 3.9147 46.2057C4.43801 47.1024 5.18612 47.8372 6.07912 48.3359C6.0995 48.3472 6.11952 48.3593 6.13914 48.3719L26.7336 61.6423C27.5842 62.1113 28.5349 62.3564 29.5 62.3564C30.4651 62.3564 31.4158 62.1113 32.2664 61.6423L52.8608 48.3719C52.8728 48.3641 52.8851 48.3566 52.8974 48.3493C52.9048 48.3449 52.9122 48.3407 52.9197 48.3365C54.4416 47.4844 55.4858 45.9938 55.7953 44.2978ZM54.5083 13.7887C54.4317 13.6987 54.3399 13.6199 54.2343 13.5565L33.6094 1.16902C33.6001 1.16347 33.5908 1.15806 33.5814 1.15278C32.3636 0.468809 30.9941 0.109375 29.6008 0.109375C28.2075 0.109375 26.838 0.468809 25.6202 1.15278C25.6108 1.15806 25.6015 1.16347 25.5922 1.16902L4.98124 13.5481C2.45258 14.9711 0.890869 17.6566 0.890869 20.5672V43.2413L0.890875 43.2449C0.895574 44.6796 1.2776 46.088 1.99878 47.3238C2.71389 48.5491 3.73724 49.5613 4.96587 50.2549L25.5625 63.5267C25.582 63.5393 25.6019 63.5512 25.6222 63.5625C26.8094 64.2261 28.1432 64.5747 29.5 64.5747C30.8567 64.5747 32.1905 64.2261 33.3778 63.5625C33.398 63.5512 33.4179 63.5393 33.4374 63.5267L54.0345 50.2546C56.5543 48.829 58.1091 46.1452 58.1091 43.2413V20.5739C58.1247 17.8331 56.7646 15.2764 54.5083 13.7887ZM37.5575 19.8918C37.5575 19.2792 38.054 18.7827 38.6666 18.7827H38.6972C39.3097 18.7827 39.8063 19.2792 39.8063 19.8918C39.8063 20.5044 39.3097 21.001 38.6972 21.001H38.6666C38.054 21.001 37.5575 20.5044 37.5575 19.8918Z" fill="white"/>
</svg>
