<svg width="59" height="65" viewBox="0 0 59 65" fill="none" xmlns="http://www.w3.org/2000/svg">
<path d="M38.6666 19.8998H38.6971M53.5624 14.5154C55.7013 15.7541 57.0151 18.0729 56.9999 20.5784V43.2493C56.9999 45.7672 55.6463 48.0891 53.4615 49.3123L32.8366 62.6024C31.814 63.1739 30.6664 63.4736 29.4999 63.4736C28.3335 63.4736 27.1859 63.1739 26.1633 62.6024L5.53832 49.3123C4.47046 48.716 3.57899 47.839 2.95671 46.7727C2.33443 45.7064 2.00406 44.4897 2 43.2493V20.5752C2 18.0573 3.35361 15.7385 5.53832 14.5154L26.1633 2.12789C27.216 1.53664 28.3986 1.22656 29.6008 1.22656C30.8029 1.22656 31.9855 1.53664 33.0383 2.12789L53.6632 14.5154H53.5624Z" stroke="white" stroke-width="2.21832" stroke-linecap="round" stroke-linejoin="round"/>
<rect x="8.75" y="18.75" width="42.5" height="24.5" rx="2.25" stroke="white" stroke-width="1.5"/>
<path d="M26.7926 32.8742C26.2297 33.6203 25.5104 34.1211 25.0176 34.356C25.008 34.3605 25.0045 34.3722 25.0098 34.3814L25.3533 34.9825C25.3588 34.9921 25.3716 34.9946 25.3803 34.9877C26.1965 34.3485 26.7711 33.7359 27.165 33.1693M26.7926 32.8742C26.8774 32.7617 26.9587 32.6437 27.0351 32.5201M26.7926 32.8742L27.0351 32.5201M27.0351 32.5201C27.1055 32.4063 27.1718 32.2879 27.2329 32.1648C27.5276 31.5712 27.7024 30.8704 27.6424 30.0686C27.641 30.0499 27.6645 30.0415 27.6743 30.0574C27.9376 30.4858 28.0945 31.3093 27.6246 32.364" stroke="white" stroke-width="0.272768"/>
<path d="M27.8337 32.5443C28.2562 31.7326 28.5089 30.9953 28.62 30.5271C28.6244 30.5085 28.6507 30.5084 28.6549 30.5271C28.8177 31.2462 28.654 32.0161 28.33 32.748M27.4348 33.2449C26.9819 33.974 26.3943 34.718 25.6533 35.3486C25.6446 35.3561 25.6448 35.3696 25.6537 35.3768L26.0791 35.7171C26.086 35.7226 26.0958 35.7225 26.1024 35.7166C26.6333 35.2443 27.3921 34.4196 27.956 33.4686" stroke="white" stroke-width="0.272768"/>
<path d="M28.546 33.9082L27.0099 36.1671C27.0045 36.1751 26.9938 36.1775 26.9855 36.1725L26.5617 35.9182C26.5529 35.9129 26.5502 35.9014 26.5557 35.8928L27.9916 33.6492C27.9966 33.6414 28.0067 33.6386 28.015 33.6427L28.546 33.9082ZM28.546 33.9082L29.1824 34.2719M28.546 33.9082L27.4614 36.3485C27.4577 36.3569 27.4608 36.3667 27.4687 36.3715L27.8929 36.626C27.9019 36.6314 27.9136 36.6281 27.9184 36.6188L28.6369 35.2331M29.1824 34.2719L29.7113 34.5363C29.7204 34.5409 29.724 34.552 29.7192 34.561C29.5902 34.8026 29.4006 35.1118 29.2279 35.5449M29.1824 34.2719L28.6369 35.2331M28.6369 35.2331L28.2769 36.8017C28.2748 36.8108 28.28 36.8201 28.2889 36.823L28.7969 36.9924C28.8081 36.9961 28.8197 36.9886 28.8209 36.9769C28.8633 36.5589 29.035 36.0288 29.2279 35.5449M29.2279 35.5449L29.2728 36.982C29.2731 36.9918 29.2811 36.9996 29.291 36.9996H29.9791C29.9904 36.9996 29.9991 36.9901 29.9972 36.979C29.8215 35.9129 29.9574 33.5066 31.88 32.201C31.8923 32.1926 31.8903 32.1738 31.876 32.1697C31.5182 32.0663 30.6429 32.1867 29.7279 33.4537C30.1068 32.8999 31.0014 31.7464 31.6516 31.3999C31.6689 31.3907 31.6627 31.364 31.6431 31.3653C31.1083 31.4011 30.0136 31.7684 29.3161 33.0142C29.3054 33.0334 29.276 33.022 29.2829 33.0011C29.4735 32.4229 29.9179 31.4267 30.4749 30.8834C30.4893 30.8693 30.4742 30.8454 30.4557 30.8534C30.2605 30.9376 29.9994 31.0816 29.7279 31.2871M29.7279 31.2871C29.33 31.5883 28.8381 32.0931 28.5533 32.6799C28.5434 32.7001 28.5625 32.7098 28.5731 32.6899C28.9027 32.0689 29.4126 31.0074 29.3736 30.5186C29.3721 30.5002 29.3959 30.4891 29.4076 30.5035C29.5353 30.6611 29.7279 30.9741 29.7279 31.2871Z" stroke="white" stroke-width="0.272768"/>
<path d="M26.8184 32.9062L30.1825 34.6338" stroke="white" stroke-width="0.181845"/>
<path d="M27 32.5469L30.3641 34.2744" stroke="white" stroke-width="0.181845"/>
<path d="M27.1821 32.1797L30.5463 33.9072" stroke="white" stroke-width="0.181845"/>
<path d="M38.9978 36.0597C38.691 36.0597 38.4182 36.0071 38.1796 35.902C37.9424 35.7969 37.7549 35.6506 37.6171 35.4631C37.4793 35.2756 37.4062 35.0589 37.3976 34.8132H38.1988C38.2059 34.9311 38.2449 35.0341 38.316 35.1222C38.387 35.2088 38.4814 35.2763 38.5993 35.3246C38.7172 35.3729 38.8493 35.397 38.9956 35.397C39.1519 35.397 39.2904 35.37 39.4111 35.3161C39.5319 35.2607 39.6263 35.1839 39.6945 35.0859C39.7627 34.9879 39.7961 34.875 39.7947 34.7472C39.7961 34.6151 39.762 34.4986 39.6924 34.3977C39.6228 34.2969 39.5219 34.218 39.3898 34.1612C39.2591 34.1044 39.1015 34.076 38.9168 34.076H38.5312V33.4666H38.9168C39.0688 33.4666 39.2016 33.4403 39.3153 33.3878C39.4303 33.3352 39.5205 33.2614 39.5858 33.1662C39.6512 33.0696 39.6831 32.9581 39.6817 32.8317C39.6831 32.7081 39.6555 32.6009 39.5986 32.5099C39.5432 32.4176 39.4644 32.3459 39.3621 32.2947C39.2613 32.2436 39.1427 32.218 39.0063 32.218C38.8728 32.218 38.7492 32.2422 38.6356 32.2905C38.5219 32.3388 38.4303 32.4077 38.3607 32.4972C38.2911 32.5852 38.2542 32.6903 38.2499 32.8125H37.4893C37.4949 32.5682 37.5653 32.3537 37.7002 32.169C37.8366 31.983 38.0184 31.8381 38.2456 31.7344C38.4729 31.6293 38.7279 31.5767 39.0106 31.5767C39.3018 31.5767 39.5546 31.6314 39.7691 31.7408C39.985 31.8487 40.1519 31.9943 40.2698 32.1776C40.3877 32.3608 40.4466 32.5632 40.4466 32.7848C40.4481 33.0305 40.3756 33.2365 40.2293 33.4027C40.0844 33.5689 39.8941 33.6776 39.6583 33.7287V33.7628C39.9651 33.8054 40.2002 33.919 40.3635 34.1037C40.5283 34.2869 40.61 34.5149 40.6086 34.7876C40.6086 35.032 40.539 35.2507 40.3998 35.4439C40.262 35.6357 40.0716 35.7862 39.8287 35.8956C39.5873 36.005 39.3103 36.0597 38.9978 36.0597ZM42.9529 36.0831C42.602 36.0831 42.3009 35.9943 42.0494 35.8168C41.7994 35.6378 41.607 35.38 41.472 35.0433C41.3385 34.7053 41.2718 34.2983 41.2718 33.8224C41.2732 33.3466 41.3406 32.9418 41.4742 32.608C41.6091 32.2727 41.8016 32.017 42.0516 31.8409C42.303 31.6648 42.6034 31.5767 42.9529 31.5767C43.3023 31.5767 43.6027 31.6648 43.8541 31.8409C44.1056 32.017 44.298 32.2727 44.4316 32.608C44.5665 32.9432 44.634 33.348 44.634 33.8224C44.634 34.2997 44.5665 34.7074 44.4316 35.0455C44.298 35.3821 44.1056 35.6392 43.8541 35.8168C43.6041 35.9943 43.3037 36.0831 42.9529 36.0831ZM42.9529 35.4162C43.2256 35.4162 43.4408 35.282 43.5985 35.0135C43.7575 34.7436 43.8371 34.3466 43.8371 33.8224C43.8371 33.4759 43.8009 33.1847 43.7284 32.9489C43.656 32.7131 43.5537 32.5355 43.4216 32.4162C43.2895 32.2955 43.1333 32.2351 42.9529 32.2351C42.6816 32.2351 42.4671 32.37 42.3094 32.6399C42.1517 32.9084 42.0722 33.3026 42.0708 33.8224C42.0693 34.1705 42.1041 34.4631 42.1752 34.7003C42.2476 34.9375 42.3499 35.1165 42.482 35.2372C42.6141 35.3565 42.771 35.4162 42.9529 35.4162ZM46.9548 36.0831C46.604 36.0831 46.3028 35.9943 46.0514 35.8168C45.8014 35.6378 45.6089 35.38 45.474 35.0433C45.3405 34.7053 45.2737 34.2983 45.2737 33.8224C45.2751 33.3466 45.3426 32.9418 45.4761 32.608C45.6111 32.2727 45.8035 32.017 46.0535 31.8409C46.305 31.6648 46.6054 31.5767 46.9548 31.5767C47.3042 31.5767 47.6047 31.6648 47.8561 31.8409C48.1075 32.017 48.3 32.2727 48.4335 32.608C48.5684 32.9432 48.6359 33.348 48.6359 33.8224C48.6359 34.2997 48.5684 34.7074 48.4335 35.0455C48.3 35.3821 48.1075 35.6392 47.8561 35.8168C47.6061 35.9943 47.3057 36.0831 46.9548 36.0831ZM46.9548 35.4162C47.2275 35.4162 47.4427 35.282 47.6004 35.0135C47.7595 34.7436 47.839 34.3466 47.839 33.8224C47.839 33.4759 47.8028 33.1847 47.7304 32.9489C47.6579 32.7131 47.5557 32.5355 47.4236 32.4162C47.2915 32.2955 47.1352 32.2351 46.9548 32.2351C46.6835 32.2351 46.469 32.37 46.3113 32.6399C46.1537 32.9084 46.0741 33.3026 46.0727 33.8224C46.0713 34.1705 46.1061 34.4631 46.1771 34.7003C46.2496 34.9375 46.3518 35.1165 46.4839 35.2372C46.616 35.3565 46.773 35.4162 46.9548 35.4162Z" fill="white"/>
<path d="M33.0823 33.9162V33.2578H35.9182V33.9162H33.0823ZM33.0823 35.2798V34.6214H35.9182V35.2798H33.0823Z" fill="white"/>
<rect x="20.15" y="22.15" width="19.7" height="3.7" rx="1.35" stroke="white" stroke-width="0.3"/>
<path d="M27.3586 23.9091C27.3586 24.1442 27.3146 24.3455 27.2265 24.5131C27.1392 24.68 27.0198 24.8079 26.8686 24.8967C26.718 24.9854 26.5472 25.0298 26.3561 25.0298C26.1651 25.0298 25.9939 24.9854 25.8426 24.8967C25.6921 24.8072 25.5728 24.679 25.4847 24.5121C25.3973 24.3445 25.3536 24.1435 25.3536 23.9091C25.3536 23.674 25.3973 23.473 25.4847 23.3061C25.5728 23.1385 25.6921 23.0103 25.8426 22.9215C25.9939 22.8327 26.1651 22.7884 26.3561 22.7884C26.5472 22.7884 26.718 22.8327 26.8686 22.9215C27.0198 23.0103 27.1392 23.1385 27.2265 23.3061C27.3146 23.473 27.3586 23.674 27.3586 23.9091ZM26.9612 23.9091C26.9612 23.7436 26.9353 23.604 26.8835 23.4904C26.8323 23.3761 26.7613 23.2898 26.6704 23.2315C26.5795 23.1726 26.4747 23.1431 26.3561 23.1431C26.2375 23.1431 26.1328 23.1726 26.0419 23.2315C25.9509 23.2898 25.8796 23.3761 25.8277 23.4904C25.7766 23.604 25.751 23.7436 25.751 23.9091C25.751 24.0746 25.7766 24.2145 25.8277 24.3288C25.8796 24.4425 25.9509 24.5288 26.0419 24.5877C26.1328 24.646 26.2375 24.6751 26.3561 24.6751C26.4747 24.6751 26.5795 24.646 26.6704 24.5877C26.7613 24.5288 26.8323 24.4425 26.8835 24.3288C26.9353 24.2145 26.9612 24.0746 26.9612 23.9091ZM27.7323 25V22.8182H29.13V23.1495H28.1275V23.7418H29.0341V24.0732H28.1275V25H27.7323ZM29.4901 25V22.8182H30.8878V23.1495H29.8853V23.7418H30.7919V24.0732H29.8853V25H29.4901ZM31.2479 25V22.8182H32.6669V23.1495H31.6432V23.7418H32.5934V24.0732H31.6432V24.6687H32.6755V25H31.2479ZM33.0702 25V22.8182H33.8884C34.056 22.8182 34.1966 22.8473 34.3102 22.9055C34.4246 22.9638 34.5109 23.0455 34.5691 23.1506C34.6281 23.255 34.6575 23.3768 34.6575 23.516C34.6575 23.6559 34.6277 23.7773 34.568 23.8803C34.5091 23.9826 34.4221 24.0618 34.307 24.1179C34.192 24.1733 34.0506 24.201 33.883 24.201H33.3003V23.8729H33.8298C33.9278 23.8729 34.008 23.8594 34.0705 23.8324C34.133 23.8047 34.1792 23.7646 34.209 23.712C34.2396 23.6587 34.2548 23.5934 34.2548 23.516C34.2548 23.4386 34.2396 23.3725 34.209 23.3178C34.1785 23.2624 34.132 23.2205 34.0695 23.1921C34.007 23.163 33.9264 23.1484 33.8276 23.1484H33.4654V25H33.0702ZM34.1973 24.0114L34.7374 25H34.2964L33.7658 24.0114H34.1973Z" fill="white"/>
<path d="M11 40V38.5C11 36.5 14.3333 35 16 34.5H19.5C22.7 35.3 24.1667 37.5 24.5 38.5V40H11Z" fill="white"/>
<ellipse cx="17.5" cy="29.5" rx="3" ry="3.5" fill="white"/>
</svg>
