<svg width="75" height="83" viewBox="0 0 75 83" fill="none" xmlns="http://www.w3.org/2000/svg">
<path d="M69.0695 18.4589C71.8516 20.0471 73.5607 23.0199 73.5408 26.2321V55.2976C73.5408 58.5257 71.7801 61.5025 68.9383 63.0707L42.1105 80.1094C40.7804 80.8422 39.2876 81.2264 37.7704 81.2264C36.2531 81.2264 34.7604 80.8422 33.4303 80.1094L6.60246 63.0707C5.21343 62.3062 4.05387 61.1819 3.24444 59.8149C2.435 58.4478 2.00528 56.8879 2 55.2976V26.2281C2 22.9999 3.7607 20.0271 6.60246 18.4589L33.4303 2.57743C34.7996 1.81942 36.3379 1.42188 37.9016 1.42188C39.4653 1.42188 41.0035 1.81942 42.3729 2.57743L69.2007 18.4589H69.0695Z" stroke="white" stroke-width="2.21832" stroke-linecap="round" stroke-linejoin="round"/>
<path d="M27.8578 38.8055C24.7626 42.9086 20.8069 45.6629 18.0969 46.9542C18.0442 46.9793 18.0248 47.0434 18.0538 47.0941L19.9427 50.3997C19.9729 50.4526 20.0435 50.4661 20.0914 50.4285C24.58 46.9131 27.7394 43.5445 29.9056 40.4283M27.8578 38.8055C28.3243 38.187 28.7712 37.538 29.1915 36.8587M27.8578 38.8055L29.1915 36.8587M29.1915 36.8587C29.5786 36.2329 29.943 35.5814 30.279 34.9046C31.8997 31.6405 32.8611 27.7866 32.5312 23.377C32.5236 23.2746 32.6524 23.228 32.7062 23.3154C34.1543 25.6712 35.0175 30.1998 32.433 36" stroke="white" stroke-width="1.5"/>
<path d="M33.5828 37C35.9066 32.5358 37.2957 28.4813 37.9071 25.9069C37.9314 25.8045 38.0755 25.8041 38.0988 25.9068C38.9943 29.861 38.0941 34.0949 36.3122 38.12M31.3893 40.8524C28.8986 44.862 25.6676 48.9531 21.5928 52.4213C21.5448 52.4621 21.5457 52.5366 21.5949 52.5759L23.9343 54.4474C23.9722 54.4778 24.0258 54.4772 24.0621 54.4449C26.9816 51.8473 31.1547 47.3122 34.2553 42.0825" stroke="white" stroke-width="1.5"/>
<path d="M37.5 44.5L29.0531 56.9224C29.0233 56.9662 28.9645 56.9792 28.919 56.9519L26.5883 55.5534C26.5399 55.5244 26.5251 55.4613 26.5555 55.4138L34.4515 43.0758C34.4791 43.0327 34.5347 43.0174 34.5805 43.0402L37.5 44.5ZM37.5 44.5L41 46.5M37.5 44.5L31.5359 57.9196C31.5154 57.9658 31.5325 58.02 31.5759 58.046L33.9088 59.4457C33.9582 59.4754 34.0224 59.4572 34.049 59.406L38 51.7862M41 46.5L43.9085 47.9542C43.9587 47.9793 43.9785 48.0406 43.9521 48.0901C43.2424 49.4183 42.1996 51.1188 41.2502 53.5005M41 46.5L38 51.7862M38 51.7862L36.0203 60.412C36.0088 60.4622 36.0373 60.5129 36.0862 60.5292L38.8802 61.4606C38.9414 61.481 39.0055 61.4395 39.012 61.3753C39.2451 59.077 40.1894 56.1616 41.2502 53.5005M41.2502 53.5005L41.497 61.4036C41.4987 61.4576 41.5429 61.5005 41.5969 61.5005H45.3814C45.4434 61.5005 45.491 61.448 45.4809 61.3869C44.5145 55.5245 45.2617 42.2918 55.8344 35.1119C55.9022 35.0659 55.891 34.9623 55.8123 34.9395C53.845 34.3711 49.0317 35.0335 44 42.0005C46.0835 38.9552 51.0027 32.6117 54.5785 30.7065C54.6738 30.6557 54.6395 30.5092 54.5317 30.5164C51.5906 30.7129 45.5711 32.733 41.7352 39.5837C41.6761 39.6894 41.5145 39.6268 41.5524 39.5119C42.6006 36.3323 45.0444 30.8538 48.1074 27.866C48.1867 27.7886 48.1039 27.6574 48.0021 27.7012C46.9285 28.164 45.493 28.956 44 30.0861M44 30.0861C41.8117 31.7426 39.1065 34.5187 37.5402 37.7452C37.4861 37.8567 37.5912 37.9099 37.6493 37.8004C39.4618 34.3854 42.2657 28.5483 42.0512 25.8601C42.0431 25.7586 42.1741 25.698 42.2382 25.777C42.9405 26.6435 44 28.3648 44 30.0861Z" stroke="white" stroke-width="1.5"/>
<path d="M28 39L46.5 48.5" stroke="white"/>
<path d="M29 37L47.5 46.5" stroke="white"/>
<path d="M30 35L48.5 44.5" stroke="white"/>
</svg>
