<svg width="59" height="66" viewBox="0 0 59 66" fill="none" xmlns="http://www.w3.org/2000/svg">
<path fill-rule="evenodd" clip-rule="evenodd" d="M6.10944 16.298L26.72 3.91922C27.6042 3.42562 28.5949 3.16754 29.6008 3.16754C30.6067 3.16754 31.5974 3.42563 32.4817 3.91923L52.7303 16.0807C52.8079 16.1688 52.9006 16.2456 53.0065 16.307C54.7947 17.3426 55.9037 19.2889 55.8908 21.4034L55.8907 21.4102V44.0811C55.8907 46.2011 54.751 48.151 52.9197 49.1763C52.8997 49.1875 52.8801 49.1993 52.8608 49.2118L32.2664 62.4821C31.4158 62.9512 30.4651 63.1962 29.5 63.1962C28.5349 63.1962 27.5842 62.9512 26.7336 62.4821L6.13914 49.2118C6.11952 49.1991 6.0995 49.1871 6.07912 49.1757C5.18612 48.677 4.43801 47.9422 3.9147 47.0455C3.3916 46.1492 3.11292 45.1248 3.10919 44.0792V21.4071C3.10919 19.2876 4.24841 17.3406 6.08021 16.315C6.09003 16.3095 6.09978 16.3038 6.10944 16.298ZM54.2343 14.3963C54.3398 14.4597 54.4317 14.5385 54.5083 14.6286C56.7646 16.1163 58.1247 18.6729 58.1091 21.4137V44.0811C58.1091 46.9851 56.5543 49.6688 54.0345 51.0944L33.4374 64.3665C33.4179 64.3791 33.398 64.391 33.3778 64.4024C32.1905 65.0659 30.8567 65.4146 29.5 65.4146C28.1432 65.4146 26.8094 65.0659 25.6222 64.4024C25.6019 64.391 25.582 64.3791 25.5625 64.3665L4.96592 51.0947C3.73726 50.4012 2.7139 49.389 1.99878 48.1636C1.2776 46.9279 0.895574 45.5194 0.890875 44.0847L0.890869 44.0811V21.4071C0.890869 18.4964 2.45257 15.811 4.98121 14.388L25.5922 2.00886C25.6015 2.00331 25.6108 1.9979 25.6202 1.99263C26.838 1.30865 28.2075 0.949219 29.6008 0.949219C30.9941 0.949219 32.3636 1.30865 33.5814 1.99263C33.5908 1.9979 33.6001 2.00331 33.6094 2.00886L54.2343 14.3963ZM29.1354 16.9998H36.6874C36.8334 16.9998 36.9302 17.1511 36.869 17.2836L31.131 29.716C31.0699 29.8485 31.1667 29.9998 31.3126 29.9998H36.6337C36.7919 29.9998 36.8875 30.1748 36.8019 30.3079L24.1426 50.0002C24.0206 50.19 23.7268 50.0642 23.78 49.845L27.4401 34.7469C27.4706 34.621 27.3753 34.4998 27.2458 34.4998H22.2954C22.1539 34.4998 22.0572 34.3569 22.1097 34.2255L28.9497 17.1255C28.9801 17.0496 29.0537 16.9998 29.1354 16.9998Z" fill="white"/>
</svg>
