<svg width="59" height="66" viewBox="0 0 59 66" fill="none" xmlns="http://www.w3.org/2000/svg">
<path d="M53.5624 15.1052C55.7013 16.3439 57.0151 18.6627 56.9999 21.1682V43.8391C56.9999 46.3571 55.6463 48.679 53.4615 49.9021L32.8366 63.1922C31.814 63.7638 30.6664 64.0634 29.4999 64.0634C28.3335 64.0634 27.1859 63.7638 26.1633 63.1922L5.53833 49.9021C4.47046 49.3058 3.57899 48.4289 2.95671 47.3626C2.33443 46.2963 2.00406 45.0796 2 43.8391V21.1651C2 18.6471 3.35361 16.3284 5.53833 15.1052L26.1633 2.71773C27.216 2.12649 28.3986 1.81641 29.6008 1.81641C30.8029 1.81641 31.9855 2.12649 33.0383 2.71773L53.6632 15.1052H53.5624Z" stroke="white" stroke-width="2.21832" stroke-linecap="round" stroke-linejoin="round"/>
<path d="M25.2991 27.2914C25.0782 27.2914 24.8991 27.4705 24.8991 27.6914C24.8991 27.9123 25.0782 28.0914 25.2991 28.0914V27.2914ZM34.7366 27.9742C34.8928 27.818 34.8928 27.5648 34.7366 27.4086L32.191 24.863C32.0348 24.7068 31.7815 24.7068 31.6253 24.863C31.4691 25.0192 31.4691 25.2725 31.6253 25.4287L33.888 27.6914L31.6253 29.9541C31.4691 30.1104 31.4691 30.3636 31.6253 30.5198C31.7815 30.676 32.0348 30.676 32.191 30.5198L34.7366 27.9742ZM25.2991 28.0914H34.4537V27.2914H25.2991V28.0914Z" fill="#FFF9F9"/>
<path d="M34.4536 34.2789C34.6745 34.2789 34.8536 34.0998 34.8536 33.8789C34.8536 33.658 34.6745 33.4789 34.4536 33.4789L34.4536 34.2789ZM25.0161 33.5961C24.8599 33.7523 24.8599 34.0055 25.0161 34.1617L27.5617 36.7073C27.7179 36.8635 27.9712 36.8635 28.1274 36.7073C28.2836 36.5511 28.2836 36.2979 28.1274 36.1416L25.8647 33.8789L28.1274 31.6162C28.2836 31.46 28.2836 31.2067 28.1274 31.0505C27.9712 30.8943 27.7179 30.8943 27.5617 31.0505L25.0161 33.5961ZM34.4536 33.4789L25.299 33.4789L25.299 34.2789L34.4536 34.2789L34.4536 33.4789Z" fill="#FFF9F9"/>
<path d="M9 38V36.5C9 34.5 12.3333 33 14 32.5H17.5C20.7 33.3 22.1667 35.5 22.5 36.5V38H9Z" fill="white"/>
<ellipse cx="15.5" cy="27.5" rx="3" ry="3.5" fill="white"/>
<path d="M36 38V36.5C36 34.5 39.3333 33 41 32.5H44.5C47.7 33.3 49.1667 35.5 49.5 36.5V38H36Z" fill="white"/>
<ellipse cx="42.5" cy="27.5" rx="3" ry="3.5" fill="white"/>
</svg>
