<svg width="17" height="19" viewBox="0 0 17 19" fill="none" xmlns="http://www.w3.org/2000/svg">
<path d="M0.394531 17.8582V1.42266C0.394531 1.21728 0.561025 1.05078 0.766406 1.05078H11.0219L14.0583 4.08242V8.0043V17.8582C14.0583 18.0636 13.8918 18.2301 13.6864 18.2301H0.766406C0.561025 18.2301 0.394531 18.0636 0.394531 17.8582Z" fill="black"/>
<path d="M14.0583 4.08242L11.0219 1.05078M14.0583 4.08242H11.3938C11.1884 4.08242 11.0219 3.91592 11.0219 3.71054V1.05078M14.0583 4.08242V8.0043V17.8582C14.0583 18.0636 13.8918 18.2301 13.6864 18.2301H0.766406C0.561025 18.2301 0.394531 18.0636 0.394531 17.8582V1.42266C0.394531 1.21728 0.561025 1.05078 0.766406 1.05078H11.0219" stroke="white" stroke-width="0.371875" stroke-linecap="round" stroke-linejoin="round"/>
<path d="M3.43066 6.10156H11.5277M3.43066 8.2694H8.17869M3.43066 10.3989H10.6367" stroke="white" stroke-width="0.74375" stroke-linecap="round" stroke-linejoin="round"/>
<path d="M12.1562 15.51L10.8701 14.2259L14.0854 11.0156L15.3715 12.2997L12.1562 15.51Z" fill="white" stroke="black" stroke-width="0.223125" stroke-linecap="round" stroke-linejoin="round"/>
<path d="M11.728 15.9443L10.4419 14.6602L10.2275 16.1583L11.728 15.9443Z" fill="white"/>
<path d="M15.0524 10.2335C15.2972 9.98449 15.6978 9.98074 15.9472 10.2251L16.1722 10.4457C16.4216 10.69 16.4254 11.09 16.1806 11.339L15.7324 11.7949L14.6043 10.6894L15.0524 10.2335Z" fill="white" stroke="black" stroke-width="0.223125"/>
</svg>
