<svg width="22" height="16" viewBox="0 0 22 16" fill="none" xmlns="http://www.w3.org/2000/svg">
<path d="M20.4895 15.1727V14.0736V12.9745C20.4895 11.8085 20.0919 10.6903 19.3841 9.8658C18.6763 9.04132 17.7163 8.57813 16.7153 8.57812H12.941H9.16681C8.16582 8.57813 7.20583 9.04132 6.49803 9.8658C5.79022 10.6903 5.39258 11.8085 5.39258 12.9745V15.1727" fill="black"/>
<path d="M20.4895 15.1727V14.0736V12.9745C20.4895 11.8085 20.0919 10.6903 19.3841 9.8658C18.6763 9.04132 17.7163 8.57813 16.7153 8.57812H12.941H9.16681C8.16582 8.57813 7.20583 9.04132 6.49803 9.8658C5.79022 10.6903 5.39258 11.8085 5.39258 12.9745V15.1727" stroke="white" stroke-width="1.11563" stroke-linecap="round" stroke-linejoin="round"/>
<path d="M12.9422 8.57573C15.0267 8.57573 16.7164 6.88859 16.7164 4.8074C16.7164 2.7262 15.0267 1.03906 12.9422 1.03906C10.8578 1.03906 9.16797 2.7262 9.16797 4.8074C9.16797 6.88859 10.8578 8.57573 12.9422 8.57573Z" fill="black" stroke="white" stroke-width="1.11563" stroke-linecap="round" stroke-linejoin="round"/>
<path d="M15.7727 15.1727V14.0736V12.9745C15.7727 11.8085 15.3751 10.6903 14.6673 9.8658C13.9595 9.04132 12.9995 8.57813 11.9985 8.57812H8.22425H4.45002C3.44903 8.57813 2.48904 9.04132 1.78123 9.8658C1.07342 10.6903 0.675781 11.8085 0.675781 12.9745V15.1727" fill="black"/>
<path d="M15.7727 15.1727V14.0736V12.9745C15.7727 11.8085 15.3751 10.6903 14.6673 9.8658C13.9595 9.04132 12.9995 8.57813 11.9985 8.57812H8.22425H4.45002C3.44903 8.57813 2.48904 9.04132 1.78123 9.8658C1.07342 10.6903 0.675781 11.8085 0.675781 12.9745V15.1727" stroke="white" stroke-width="1.11563" stroke-linecap="round" stroke-linejoin="round"/>
<path d="M8.22443 8.57573C10.3089 8.57573 11.9987 6.88859 11.9987 4.8074C11.9987 2.7262 10.3089 1.03906 8.22443 1.03906C6.13998 1.03906 4.4502 2.7262 4.4502 4.8074C4.4502 6.88859 6.13998 8.57573 8.22443 8.57573Z" fill="black" stroke="white" stroke-width="1.11563" stroke-linecap="round" stroke-linejoin="round"/>
</svg>
