<svg width="160" height="160" viewBox="0 0 160 160" fill="none" xmlns="http://www.w3.org/2000/svg">
<rect width="160" height="160" rx="53" fill="url(#paint0_linear_9099_23799)"/>
<path d="M104.522 0.3125C106.978 0.387512 109.464 0.722868 111.883 1.1414C114.533 1.59991 117.12 2.13769 119.692 2.92761C127.945 5.46232 136.696 10.3934 142.648 16.6916C142.704 16.751 142.759 16.8099 142.812 16.8718L128.821 30.8198C126.639 33.0121 124.094 35.3167 122.103 37.646L122.08 37.6562C121.74 37.0336 121.17 36.4102 120.72 35.858C119.579 34.4609 118.372 33.1225 117.1 31.8428C115.828 30.5632 114.496 29.3483 113.105 28.1981C112.743 27.9104 112.378 27.6273 112.009 27.3486C111.641 27.0701 111.268 26.7961 110.893 26.5267C110.517 26.2574 110.138 25.9928 109.756 25.7329C109.374 25.473 108.989 25.2179 108.6 24.9676C108.211 24.7171 107.82 24.4717 107.425 24.2312C107.03 23.9906 106.632 23.7549 106.232 23.5242C105.831 23.2935 105.428 23.0679 105.021 22.8472C104.615 22.6266 104.206 22.411 103.794 22.2005C103.382 21.99 102.968 21.7847 102.551 21.5846C102.134 21.3843 101.715 21.1893 101.293 20.9996C100.871 20.8098 100.447 20.6254 100.021 20.4462C99.5944 20.2671 99.1658 20.0932 98.7351 19.9247C98.3044 19.7561 97.8715 19.593 97.4366 19.4353C97.0018 19.2775 96.565 19.1252 96.1262 18.9783C95.6876 18.8314 95.2472 18.6899 94.805 18.554C94.3627 18.4181 93.9188 18.2877 93.4733 18.1627C91.5425 17.6318 89.6062 17.3057 87.6562 16.8765C87.9135 16.2482 100.756 3.52421 102.256 2.06546C102.414 1.90551 102.555 1.73638 102.7 1.56597C103.304 0.857733 103.552 0.391461 104.522 0.3125Z" fill="url(#paint1_linear_9099_23799)"/>
<path d="M102.346 2.07334C102.387 2.0494 102.429 2.02624 102.47 2.00152C103.091 1.62707 103.707 0.461834 104.435 0.468781C104.552 0.604739 104.576 0.622543 104.554 0.812317C104.457 1.6401 103.929 2.13484 104.215 3.02183C104.273 3.20405 104.25 3.33506 104.238 3.52248C104.197 4.21936 105.416 6.03942 105.728 6.79823C105.931 7.29019 105.779 7.86028 106.081 8.36866C106.458 9.00497 107.28 9.294 107.551 10.037C107.82 10.775 107.847 11.5913 108.102 12.3308C108.301 12.9057 108.587 13.4534 108.817 14.0166C109.065 14.6237 109.245 15.2594 109.472 15.8745C109.928 17.1093 110.475 18.3294 110.791 19.6111C111.08 20.7797 110.893 22.0024 111.281 23.1639C111.628 24.2077 113.356 27.3826 113.436 28.0094C113.446 28.0859 113.404 28.1604 113.389 28.2361L113.261 28.2812C112.897 27.9927 112.529 27.7087 112.158 27.4293C111.787 27.1499 111.413 26.8752 111.035 26.605C110.657 26.335 110.276 26.0696 109.892 25.8089C109.507 25.5483 109.119 25.2924 108.728 25.0414C108.337 24.7902 107.943 24.5441 107.546 24.3029C107.149 24.0616 106.749 23.8252 106.345 23.5939C105.942 23.3625 105.536 23.1362 105.127 22.9149C104.719 22.6936 104.307 22.4774 103.893 22.2663C103.479 22.0552 103.062 21.8493 102.642 21.6486C102.223 21.4478 101.801 21.2523 101.377 21.062C100.952 20.8717 100.526 20.6867 100.096 20.507C99.6675 20.3274 99.2363 20.153 98.803 19.984C98.3696 19.8149 97.9341 19.6513 97.4965 19.4931C97.059 19.335 96.6195 19.1822 96.1781 19.0349C95.7368 18.8875 95.2937 18.7457 94.8488 18.6093C94.4037 18.473 93.9571 18.3423 93.509 18.217C91.5663 17.6845 89.6181 17.3575 87.6562 16.927C87.9151 16.2969 100.836 3.53629 102.346 2.07334Z" fill="#8650B1"/>
<path d="M142.669 16.875C142.983 17.1832 143.292 17.4952 143.599 17.8109C143.905 18.1267 144.207 18.4461 144.506 18.7693C144.804 19.0923 145.098 19.4189 145.389 19.7492C145.679 20.0795 145.966 20.4132 146.248 20.7504C146.53 21.0875 146.808 21.4281 147.083 21.7721C147.357 22.116 147.626 22.4632 147.892 22.8138C148.158 23.1642 148.419 23.5179 148.676 23.8747C148.933 24.2316 149.186 24.5915 149.434 24.9545C149.682 25.3174 149.926 25.6833 150.166 26.0522C150.405 26.4212 150.64 26.7929 150.87 27.1675C151.1 27.5421 151.326 27.9195 151.547 28.2995C151.769 28.6796 151.985 29.0623 152.197 29.4476C152.409 29.8329 152.616 30.2208 152.818 30.6112C153.021 31.0016 153.218 31.3943 153.411 31.7894C153.604 32.1846 153.792 32.582 153.976 32.9818C154.159 33.3815 154.337 33.7834 154.511 34.1874C154.684 34.5915 154.853 34.9976 155.016 35.4058C155.18 35.8139 155.338 36.2239 155.492 36.636C155.646 37.048 155.794 37.4618 155.938 37.8774C156.081 38.293 156.22 38.7103 156.353 39.1292C156.487 39.5481 156.615 39.9687 156.738 40.3909C156.861 40.8129 156.98 41.2365 157.092 41.6614C157.205 42.0863 157.313 42.5125 157.416 42.9402C157.518 43.3677 157.615 43.7964 157.708 44.2264C157.8 44.6563 157.887 45.0872 157.968 45.5192C158.05 45.9513 158.126 46.3843 158.197 46.8182C158.269 47.2521 158.334 47.6868 158.395 48.1222C158.455 48.5578 158.511 48.9939 158.561 49.4307C158.611 49.8675 158.655 50.3049 158.695 50.7428C158.734 51.1808 158.768 51.6191 158.796 52.0578C158.825 52.4966 158.848 52.9356 158.866 53.3749C158.885 53.8142 158.897 54.2537 158.904 54.6932C158.907 54.8297 158.907 54.9661 158.905 55.1026C157.528 56.1982 156.42 57.6208 155.049 58.7123C154.245 59.5899 153.33 60.3919 152.466 61.2114L147.334 66.0721C145.409 67.9583 143.462 69.8212 141.493 71.6608C140.639 72.4746 139.781 73.4646 138.844 74.1733C137.695 75.4925 136.287 76.6585 135.008 77.8533C134.617 78.2188 133.951 78.7159 133.684 79.1579C132.74 79.9023 131.636 80.8769 130.886 81.8143C129.303 83.4275 127.73 85.0442 126.055 86.5625L126.053 67.0629C126.064 66.7767 126.073 66.4903 126.079 66.2039C126.084 65.9175 126.087 65.631 126.087 65.3446C126.087 65.0582 126.084 64.7717 126.079 64.4853C126.073 64.1989 126.064 63.9126 126.053 63.6263C126.041 63.34 126.027 63.0539 126.01 62.7681C125.993 62.4821 125.973 62.1963 125.95 61.9108C125.927 61.6252 125.901 61.3399 125.873 61.0548C125.844 60.7698 125.813 60.4851 125.779 60.2007C125.744 59.9163 125.707 59.6322 125.667 59.3486C125.628 59.0648 125.585 58.7816 125.539 58.4988C125.494 58.216 125.445 57.9336 125.394 57.6518C125.343 57.3699 125.289 57.0886 125.232 56.8079C125.175 56.527 125.116 56.2468 125.053 55.9673C124.991 55.6877 124.926 55.4087 124.858 55.1304C124.79 54.8521 124.719 54.5746 124.645 54.2977C124.572 54.0208 124.496 53.7446 124.417 53.4692C124.338 53.1939 124.256 52.9194 124.171 52.6457C124.087 52.3719 124 52.099 123.91 51.8271C123.82 51.555 123.727 51.2839 123.632 51.0138C123.536 50.7436 123.438 50.4745 123.337 50.2064C123.237 49.9382 123.133 49.6711 123.027 49.405C122.921 49.1388 122.812 48.8738 122.701 48.6097C122.589 48.3458 122.475 48.0831 122.359 47.8214C122.242 47.5597 122.123 47.2992 122.001 47.0399C121.879 46.7806 121.755 46.5225 121.628 46.2656C121.501 46.0088 121.371 45.7533 121.239 45.499C121.107 45.2448 120.973 44.9919 120.835 44.7404C120.698 44.4888 120.559 44.2386 120.417 43.9899C120.275 43.7411 120.13 43.4938 119.983 43.2478C119.836 43.002 119.686 42.7576 119.534 42.5147C119.382 42.2718 119.228 42.0304 119.071 41.7906C118.914 41.5508 118.755 41.3125 118.594 41.0758C119.767 39.991 120.916 38.8229 122.01 37.6572L122.032 37.647C124.016 35.3179 126.552 33.0136 128.727 30.8215L142.669 16.875Z" fill="#6A41A0"/>
<path d="M142.286 27.2078C142.423 27.1929 142.554 27.179 142.692 27.1939C142.962 27.2233 143.261 27.3479 143.42 27.5745C143.568 27.7859 143.619 27.9915 143.582 28.242C143.524 28.6363 143.301 28.8217 142.991 29.0555C142.954 29.0575 142.917 29.061 142.879 29.0619C142.518 29.0701 142.227 28.9988 141.972 28.7373C141.77 28.5301 141.704 28.2929 141.722 28.0118C141.745 27.6386 142.008 27.4252 142.286 27.2078Z" fill="white"/>
<path d="M122.026 37.6665L122.049 37.6562C122.675 38.3418 123.18 39.2156 123.68 39.9951C124.006 40.5012 124.324 41.0131 124.631 41.5309C124.939 42.0487 125.237 42.572 125.525 43.1008C125.813 43.6296 126.091 44.1636 126.359 44.7028C126.627 45.2419 126.885 45.7857 127.132 46.3344C127.38 46.8831 127.617 47.4362 127.844 47.9936C128.071 48.5511 128.288 49.1126 128.494 49.6781C128.699 50.2436 128.895 50.8127 129.079 51.3855C129.264 51.9583 129.438 52.5342 129.601 53.1133L129.643 53.1963C129.779 53.4644 129.862 53.7025 129.93 53.9935L129.965 54.1407L129.985 54.2342C130.567 54.3092 130.863 53.8341 131.399 54.2142C131.47 54.3592 131.493 54.3722 131.485 54.5412L131.696 54.3162C132.224 54.3592 132.575 54.912 133.063 55.0355C133.499 55.1456 133.978 54.936 134.376 55.0469C134.899 55.1924 135.384 55.7397 135.893 55.9615C136.265 56.1233 136.373 55.7663 136.708 55.8627C137.171 55.9957 137.397 56.3031 137.942 56.363C138.343 56.4072 138.717 56.4597 139.096 56.6081C139.15 56.4552 139.177 56.3066 139.204 56.1469C139.396 56.0542 139.482 56.1333 139.678 56.2012C140.205 56.3827 141.455 57.1055 141.96 56.9394C141.993 56.7395 141.93 56.5963 141.869 56.408C142.835 55.827 144.287 55.5003 145.394 55.3438C145.964 55.2632 146.69 56.1534 147.176 55.5731C147.197 55.5484 147.214 55.5208 147.233 55.4945C147.257 55.5049 147.28 55.5157 147.303 55.5256C147.91 55.7789 148.522 55.4799 149.125 55.6556C149.869 55.8725 150.232 56.3861 151.08 56.5443L151.188 56.7171L151.13 56.8458L151.215 57.0087C151.45 56.9781 151.624 56.8668 151.826 56.7526C152.034 56.7638 152.029 56.7415 152.207 56.8662C152.862 57.3267 153.825 57.0047 154.472 57.3887C154.415 57.5231 154.357 57.6174 154.275 57.7368C154.494 57.819 154.814 57.682 155.027 57.5916C155.175 57.5289 155.306 57.468 155.435 57.3712C155.515 57.5525 155.5 57.585 155.676 57.6962C155.699 57.6826 155.722 57.6676 155.746 57.6555C155.853 57.602 155.918 57.6059 156.033 57.6095L156.25 57.4496C155.951 57.8936 155.409 58.2228 155.222 58.7176C154.415 59.595 153.495 60.3969 152.627 61.2162L147.47 66.0759C145.537 67.9618 143.581 69.8244 141.602 71.6637C140.743 72.4773 139.881 73.4671 138.94 74.1756C137.786 75.4946 136.371 76.6604 135.086 77.8549C134.693 78.2204 134.024 78.7174 133.755 79.1593C132.807 79.9035 131.698 80.8779 130.944 81.8152C129.354 83.4281 127.773 85.0445 126.09 86.5625L126.088 67.0665C126.1 66.7804 126.108 66.4941 126.114 66.2077C126.12 65.9214 126.123 65.635 126.123 65.3486C126.123 65.0622 126.12 64.7759 126.114 64.4895C126.108 64.2031 126.1 63.9168 126.088 63.6307C126.077 63.3444 126.062 63.0584 126.045 62.7725C126.028 62.4866 126.008 62.2009 125.985 61.9154C125.962 61.6299 125.936 61.3447 125.907 61.0596C125.879 60.7747 125.847 60.4901 125.813 60.2057C125.778 59.9213 125.741 59.6373 125.701 59.3537C125.661 59.07 125.618 58.7868 125.572 58.5041C125.526 58.2213 125.478 57.939 125.426 57.6572C125.375 57.3754 125.321 57.0942 125.264 56.8135C125.207 56.5327 125.147 56.2525 125.084 55.9731C125.021 55.6935 124.956 55.4146 124.887 55.1364C124.819 54.8581 124.748 54.5806 124.674 54.3038C124.6 54.0269 124.524 53.7508 124.444 53.4755C124.365 53.2002 124.283 52.9258 124.198 52.6521C124.113 52.3783 124.025 52.1055 123.935 51.8336C123.844 51.5616 123.751 51.2906 123.655 51.0205C123.56 50.7504 123.461 50.4813 123.36 50.2132C123.259 49.9451 123.155 49.6781 123.048 49.412C122.942 49.1459 122.832 48.8809 122.72 48.6169C122.608 48.3531 122.494 48.0903 122.377 47.8287C122.259 47.5671 122.14 47.3066 122.017 47.0473C121.895 46.7881 121.77 46.53 121.642 46.2732C121.515 46.0165 121.385 45.761 121.252 45.5067C121.119 45.2526 120.984 44.9998 120.846 44.7483C120.708 44.4967 120.568 44.2466 120.425 43.9979C120.282 43.7492 120.137 43.5019 119.989 43.256C119.842 43.0102 119.691 42.7659 119.539 42.523C119.386 42.2801 119.231 42.0388 119.073 41.799C118.916 41.5593 118.756 41.3211 118.594 41.0844C119.773 39.9998 120.927 38.8319 122.026 37.6665Z" fill="#2F4F84"/>
<path d="M122.02 37.6665L122.043 37.6562C122.669 38.3418 123.172 39.2156 123.671 39.9951C123.998 40.5012 124.314 41.0131 124.621 41.5309C124.929 42.0487 125.226 42.572 125.513 43.1008C125.801 43.6296 126.079 44.1636 126.346 44.7028C126.614 45.2419 126.871 45.7857 127.118 46.3344C127.366 46.8831 127.603 47.4362 127.829 47.9936C128.056 48.5511 128.272 49.1126 128.477 49.6781C128.683 50.2436 128.878 50.8127 129.062 51.3855C129.246 51.9583 129.42 52.5342 129.582 53.1133L129.602 53.2769C129.722 54.2118 130.052 55.1902 130.269 56.1131C130.566 57.3767 130.767 58.7213 130.894 60.0133C131.376 64.9072 131.252 69.8649 131.184 74.773C131.154 76.9533 131.176 79.1366 131.178 81.3172C131.824 80.6777 132.523 80.0886 133.152 79.4345C133.149 77.2356 133.004 74.9388 133.218 72.7548L133.247 72.8819L133.233 72.7205C133.186 72.9937 133.204 72.7392 133.256 72.9932C133.377 73.5942 133.276 74.4491 133.278 75.0719C133.273 76.4884 133.297 77.9044 133.351 79.3197C134.061 78.5961 138.291 74.4376 138.844 74.1414L138.906 74.1756C137.754 75.4946 136.341 76.6604 135.059 77.8549C134.666 78.2204 133.999 78.7174 133.73 79.1593C132.783 79.9035 131.677 80.8779 130.924 81.8152C129.337 83.4281 127.758 85.0445 126.078 86.5625L126.076 67.0665C126.087 66.7804 126.096 66.4941 126.102 66.2077C126.107 65.9214 126.11 65.635 126.11 65.3486C126.11 65.0622 126.107 64.7759 126.102 64.4895C126.096 64.2031 126.087 63.9168 126.076 63.6307C126.064 63.3444 126.05 63.0584 126.033 62.7725C126.016 62.4866 125.996 62.2009 125.973 61.9154C125.95 61.6299 125.924 61.3447 125.895 61.0596C125.867 60.7747 125.835 60.4901 125.801 60.2057C125.767 59.9213 125.729 59.6373 125.689 59.3537C125.649 59.07 125.606 58.7868 125.561 58.5041C125.515 58.2213 125.467 57.939 125.415 57.6572C125.364 57.3754 125.31 57.0942 125.253 56.8135C125.196 56.5327 125.136 56.2525 125.073 55.9731C125.011 55.6935 124.945 55.4146 124.877 55.1364C124.809 54.8581 124.738 54.5806 124.664 54.3038C124.59 54.0269 124.514 53.7508 124.435 53.4755C124.355 53.2002 124.273 52.9258 124.189 52.6521C124.104 52.3783 124.016 52.1055 123.926 51.8336C123.836 51.5616 123.743 51.2906 123.647 51.0205C123.551 50.7504 123.453 50.4813 123.352 50.2132C123.251 49.9451 123.147 49.6781 123.041 49.412C122.934 49.1459 122.825 48.8809 122.714 48.6169C122.602 48.3531 122.487 48.0903 122.37 47.8287C122.253 47.5671 122.134 47.3066 122.012 47.0473C121.889 46.7881 121.765 46.53 121.637 46.2732C121.51 46.0165 121.38 45.761 121.247 45.5067C121.115 45.2526 120.98 44.9998 120.842 44.7483C120.705 44.4967 120.565 44.2466 120.422 43.9979C120.28 43.7492 120.135 43.5019 119.987 43.256C119.84 43.0102 119.69 42.7659 119.537 42.523C119.385 42.2801 119.23 42.0388 119.073 41.799C118.915 41.5593 118.756 41.3211 118.594 41.0844C119.771 39.9998 120.923 38.8319 122.02 37.6665Z" fill="url(#paint2_linear_9099_23799)"/>
<path d="M0.956432 102.937C0.983982 102.629 0.988468 102.314 1.12506 102.031C2.81854 103.484 4.39427 105.21 5.98573 106.784C6.58323 107.375 7.16599 108.007 7.81711 108.539L15.6619 116.398C16.362 117.108 17.9879 119.018 18.7065 119.463C20.093 120.861 21.582 122.533 23.0874 123.771C24.716 122.004 26.3673 120.237 28.0647 118.537L29.5083 117.078C30.679 115.691 32.1691 114.554 33.3485 113.158C33.774 114.016 34.1924 114.88 34.7148 115.684C35.6708 117.272 36.695 118.814 37.7873 120.311C38.8798 121.807 40.0361 123.253 41.2562 124.647C46.466 130.408 52.6503 135.1 59.8506 138.094C61.99 139.034 64.1692 139.748 66.4131 140.395C71.8693 142.012 78.8277 142.534 84.4731 141.974C86.8057 141.743 89.0881 141.252 91.4062 140.965C90.6626 141.928 89.7732 142.804 88.9381 143.688C87.4974 145.212 86.0463 146.725 84.5846 148.228C83.8927 148.992 83.1857 149.767 82.447 150.485C83.4108 150.765 85.2819 150.426 86.3032 150.341L86.4544 150.417C85.178 150.722 83.7174 150.562 82.4084 150.736C80.4512 152.72 78.4603 154.695 76.5401 156.713C75.8244 157.465 75.1889 158.297 74.4599 159.034L74.4526 159.207C74.5527 159.274 74.6271 159.316 74.7406 159.362L58.3952 159.375C55.0933 159.347 51.8196 159.297 48.5439 158.837C48.0808 158.768 47.6186 158.693 47.1573 158.613C46.696 158.532 46.2357 158.446 45.7764 158.355C45.3173 158.263 44.8593 158.166 44.4024 158.063C43.9456 157.96 43.4901 157.851 43.036 157.737C42.5818 157.623 42.1291 157.504 41.6779 157.379C41.2266 157.253 40.777 157.123 40.329 156.986C39.881 156.85 39.4346 156.708 38.9899 156.561C38.5454 156.414 38.1027 156.261 37.6618 156.103C37.2209 155.945 36.7821 155.782 36.3452 155.613C35.9084 155.444 35.4736 155.27 35.041 155.091C34.6084 154.911 34.1781 154.727 33.75 154.536C33.3219 154.346 32.8962 154.151 32.4729 153.951C32.0496 153.75 31.6288 153.545 31.2106 153.334C30.7922 153.123 30.3766 152.907 29.9636 152.686C29.5505 152.465 29.1402 152.239 28.7327 152.008C28.3253 151.777 27.9207 151.541 27.5189 151.3C27.1172 151.059 26.7185 150.813 26.3228 150.562C25.9271 150.311 25.5345 150.056 25.145 149.795C24.7555 149.535 24.3693 149.269 23.9864 149C23.6034 148.73 23.2238 148.455 22.8475 148.176C22.4713 147.897 22.0985 147.613 21.7291 147.324C21.3598 147.036 20.994 146.743 20.6318 146.446C20.2696 146.148 19.9111 145.847 19.5564 145.541C19.2016 145.234 18.8505 144.924 18.5033 144.609C18.1561 144.294 17.8128 143.975 17.4734 143.652C17.1339 143.329 16.7985 143.002 16.4671 142.67C16.1357 142.339 15.8084 142.003 15.4851 141.664C15.162 141.324 14.8429 140.981 14.528 140.634C14.2133 140.287 13.9027 139.935 13.5964 139.58C13.2902 139.226 12.9884 138.867 12.6909 138.505C12.3934 138.142 12.1004 137.776 11.8118 137.407C11.5233 137.037 11.2393 136.664 10.9599 136.288C5.50743 128.926 1.85262 120.304 1.08816 111.12C0.862801 108.413 0.957302 105.654 0.956432 102.937Z" fill="#2F4F84"/>
<path d="M29.2544 117.031C33.9503 126.383 39.9135 133.145 48.5938 138.952C47.6998 138.856 43.4798 135.328 42.643 134.632C42.0462 134.135 41.4486 133.494 40.7864 133.097L40.7424 133.171C40.8084 133.337 40.878 133.508 40.9067 133.686C40.989 134.195 40.725 134.52 40.4622 134.916C40.5257 135.202 43.8083 137.829 44.2354 138.152C44.7497 138.54 45.9072 139.174 46.2457 139.666L46.2018 139.687C44.9718 138.749 43.7016 137.904 42.4981 136.915C36.0893 131.649 31.6787 125.815 27.8125 118.495L29.2544 117.031Z" fill="#0D2359"/>
<path d="M10.9375 136.334C13.9864 133.066 17.0951 129.856 20.2637 126.704C20.9285 126.031 22.3649 124.344 23.0904 123.906C24.0354 125.063 25.1518 126.09 26.2168 127.134C27.6729 128.547 29.1138 129.976 30.5395 131.42L50.7275 151.471L56.1032 156.713C56.7768 157.377 57.6625 158.082 58.2161 158.831C58.3053 158.951 58.2746 159.223 58.2812 159.375C54.9858 159.347 51.7183 159.297 48.4489 158.838C47.9867 158.769 47.5254 158.694 47.065 158.614C46.6046 158.534 46.1452 158.448 45.6868 158.357C45.2286 158.265 44.7714 158.168 44.3155 158.066C43.8596 157.963 43.4049 157.854 42.9517 157.741C42.4984 157.627 42.0466 157.507 41.5962 157.383C41.1458 157.258 40.697 157.127 40.2499 156.991C39.8027 156.855 39.3573 156.714 38.9135 156.567C38.4698 156.42 38.0279 156.268 37.5879 156.11C37.1479 155.952 36.7098 155.789 36.2738 155.621C35.8378 155.452 35.4039 155.278 34.9721 155.099C34.5404 154.92 34.1109 154.736 33.6836 154.546C33.2563 154.356 32.8314 154.162 32.409 153.961C31.9865 153.761 31.5665 153.556 31.1491 153.346C30.7316 153.135 30.3167 152.92 29.9045 152.699C29.4923 152.479 29.0827 152.253 28.676 152.023C28.2694 151.792 27.8656 151.556 27.4645 151.316C27.0636 151.075 26.6657 150.83 26.2708 150.58C25.8759 150.329 25.484 150.074 25.0952 149.814C24.7065 149.554 24.3211 149.29 23.9389 149.02C23.5566 148.751 23.1778 148.477 22.8022 148.198C22.4267 147.92 22.0546 147.636 21.686 147.348C21.3173 147.061 20.9523 146.768 20.5908 146.472C20.2293 146.175 19.8715 145.874 19.5174 145.568C19.1633 145.263 18.8129 144.953 18.4663 144.639C18.1199 144.325 17.7772 144.006 17.4384 143.684C17.0997 143.361 16.7649 143.034 16.4341 142.704C16.1033 142.373 15.7766 142.038 15.454 141.699C15.1315 141.361 14.8131 141.018 14.4988 140.671C14.1846 140.325 13.8747 139.974 13.569 139.62C13.2634 139.266 12.9621 138.908 12.6652 138.546C12.3683 138.185 12.0758 137.82 11.7878 137.451C11.4998 137.082 11.2164 136.71 10.9375 136.334Z" fill="#0D2359"/>
<path d="M79.6635 90.3125C81.4004 91.4253 83.2561 92.3909 85.0463 93.418C86.0591 93.9992 87.1051 94.7558 88.1747 95.1942C89.1249 95.6366 90.1122 95.9818 91.0418 96.473C92.1224 97.0439 93.139 97.7534 94.1941 98.3733C96.2028 99.5535 98.2573 100.698 100.312 101.794C95.5106 105.406 92.8424 106.443 87.0483 107.731C88.2513 110.554 89.3308 113.441 90.4532 116.297C90.9476 117.437 91.5187 118.601 91.8868 119.79C92.3064 120.855 92.7169 121.924 93.1183 122.996L97.6039 134.446C98.0339 135.525 98.6381 137.491 99.2085 138.379C97.5849 139.043 95.9337 139.628 94.255 140.136C93.3319 140.407 92.2375 140.589 91.3592 140.959C89.0419 141.247 86.7603 141.738 84.4285 141.97C78.785 142.531 71.8291 142.008 66.3748 140.388C64.1317 139.741 61.9532 139.026 59.8145 138.084C52.6168 135.086 46.4347 130.387 41.2267 124.617C40.0069 123.221 38.851 121.774 37.759 120.275C36.6671 118.776 35.6432 117.231 34.6875 115.641C35.8945 115.072 37.119 114.451 38.2389 113.723C40.3759 112.616 42.5217 111.398 44.5781 110.146C45.3178 109.827 46.016 109.318 46.7492 108.96L63.274 99.8525L68.313 97.0622C69.1404 96.601 70.105 96.1662 70.8522 95.5871C72.6735 94.6095 74.4262 93.4886 76.1973 92.4231C77.3518 91.7284 78.5687 91.099 79.6635 90.3125Z" fill="#FFEED4"/>
<path d="M41.0938 124.777C42.1758 124.682 44.9291 125.183 46.1505 125.328C51.0954 125.913 59.1538 126.754 63.8402 125.219C64.7485 124.922 65.581 124.377 66.4062 123.906C64.9713 127.096 63.4908 130.264 61.9646 133.412C61.3147 134.774 60.1999 136.742 59.8184 138.125C52.5677 135.153 46.3401 130.496 41.0938 124.777Z" fill="#DAAD6A"/>
<path d="M78.8441 96.25C78.8331 96.5367 78.7679 96.7846 78.6915 97.0605C79.0767 97.0523 79.4531 96.9938 79.8386 96.9968C80.6419 97.0033 81.5638 97.1506 82.3476 96.9924C82.516 97.0717 82.5375 97.4043 82.6894 97.3661C83.335 98.6486 83.7991 100.072 84.3547 101.399C85.2521 103.544 86.2555 105.702 87.0161 107.896C88.2233 110.704 89.3066 113.577 90.4329 116.42C90.9291 117.555 91.5021 118.714 91.8715 119.896C92.2926 120.957 92.7045 122.02 93.1073 123.088L97.6086 134.483C98.0401 135.556 98.6464 137.513 99.2188 138.397C97.5894 139.058 95.9325 139.64 94.248 140.146C93.3217 140.416 92.2234 140.596 91.3421 140.965C89.0167 141.251 86.7271 141.741 84.3873 141.971C78.7241 142.529 71.7439 142.009 66.2706 140.397C64.0197 139.752 61.8336 139.041 59.6875 138.104C60.0675 136.715 61.178 134.739 61.8254 133.371C63.3457 130.211 64.8206 127.029 66.25 123.826C66.7056 122.987 67.1059 122.114 67.5238 121.255C68.1525 119.605 68.9618 117.986 69.6993 116.38C70.8237 113.936 71.9356 111.486 73.0349 109.03C74.2183 106.359 75.4703 103.71 76.6989 101.058C77.0692 99.9288 78.2508 97.2597 78.8441 96.25Z" fill="url(#paint3_linear_9099_23799)"/>
<path d="M72.0312 116.25C72.7811 115.583 72.8584 113.251 73.5282 112.288C73.7696 112.152 73.7824 112.178 74.0625 112.227C73.738 113.379 73.5046 114.69 73.3623 115.878C73.3481 115.996 73.3544 115.951 73.3055 116.089C72.8766 116.128 72.4561 116.177 72.0312 116.25Z" fill="#DAAD6A"/>
<path d="M90.3902 116.406C90.885 117.512 91.4564 118.643 91.8248 119.796C91.6559 120.367 92.225 121.398 92.3241 122.012C92.374 122.321 92.3176 122.658 92.2794 122.966C92.1816 123.056 92.1046 123.107 91.969 123.129C90.5091 123.369 88.8422 123.252 87.3559 123.258L78.753 123.277C75.7376 123.176 72.7031 123.371 69.6894 123.207C69.2086 123.18 68.3078 123.205 67.9688 122.835L68.0565 122.72C68.8803 122.46 69.9425 122.511 70.806 122.515L71.062 122.437C71.4647 122.079 72.475 118.07 72.7304 117.279C74.8641 117.412 77.0193 117.426 79.157 117.451C80.8584 117.471 82.5853 117.528 84.2839 117.419C83.5756 117.272 82.6562 117.385 81.9241 117.374C80.8323 117.357 79.7478 117.287 78.6537 117.29C76.8753 117.296 74.5794 117.465 72.8732 117.164L72.8936 116.943C73.4716 116.767 74.2723 116.932 74.8885 116.934L80.8967 116.915C81.9231 116.91 83.1295 117.019 84.1223 116.814C85.9355 116.619 88.0077 117.092 89.7755 116.577C89.9714 116.49 90.1816 116.455 90.3902 116.406Z" fill="#DAAD6A"/>
<path d="M70.8135 122.558L83.8915 122.549C86.1847 122.546 88.5724 122.413 90.8538 122.598C91.3972 122.642 91.8827 122.696 92.3438 122.984C92.2457 123.069 92.1685 123.116 92.0325 123.137C90.5687 123.364 88.8975 123.253 87.4072 123.26L78.7815 123.277C75.7581 123.182 72.7156 123.366 69.6939 123.211C69.2119 123.186 68.3087 123.209 67.9688 122.86L68.0567 122.751C68.8827 122.506 69.9477 122.554 70.8135 122.558Z" fill="#FFEED4"/>
<path d="M78.8778 96.25C78.8667 96.5349 78.8015 96.7812 78.7251 97.0553C79.1104 97.0471 79.4869 96.989 79.8724 96.992C80.6758 96.9984 81.598 97.1448 82.3819 96.9877C82.5503 97.0664 82.5718 97.3969 82.7238 97.3589C83.3695 98.6332 83.8337 100.047 84.3894 101.366C85.287 103.497 86.2906 105.641 87.0513 107.821C88.2587 110.611 89.3422 113.466 90.4688 116.29C90.2595 116.339 90.0487 116.376 89.8523 116.464C88.0792 116.989 86.0009 116.507 84.1823 116.706C81.6846 116.638 79.175 116.687 76.676 116.684C74.7452 116.682 72.8538 116.694 70.9375 116.408C71.2905 116.303 71.6441 116.2 71.9982 116.099C72.4063 116.026 72.8101 115.978 73.2221 115.939C73.2691 115.803 73.2631 115.847 73.2767 115.73C73.4134 114.552 73.6375 113.254 73.9492 112.111C77.0962 112.316 80.2674 112.302 83.4202 112.317C84.4958 112.322 85.5738 112.401 86.6486 112.39C87.0856 112.386 87.7249 112.389 88.0392 112.07L88 111.867L87.6733 111.757C86.6462 111.657 85.5867 111.683 84.5543 111.671L77.9167 111.642C76.4274 111.637 74.9288 111.676 73.4453 111.53C73.259 111.531 73.3462 111.556 73.1863 111.447C73.0493 110.732 74.2455 108.289 74.5677 107.486C74.9709 106.311 75.4156 105.134 75.9283 104.002C76.1923 103.424 76.4401 102.84 76.6718 102.25C76.8223 101.955 76.9134 101.644 77.0127 101.33C77.0129 101.228 77.0199 101.139 77.0377 101.038L77.1244 100.554C77.0302 100.712 76.9635 100.833 76.8229 100.956C76.7939 100.981 76.7623 101.004 76.7321 101.027C77.1025 99.9052 78.2843 97.2532 78.8778 96.25Z" fill="url(#paint4_linear_9099_23799)"/>
<path d="M75.9375 104.075C76.1834 103.453 76.4143 102.824 76.63 102.188C76.774 102.666 76.741 103.07 76.5442 103.526C76.4259 103.801 76.2449 104.006 76.0576 104.219L75.9375 104.075Z" fill="#F9DF92"/>
<path d="M78.8748 96.25C78.8636 96.5303 78.7981 96.7728 78.7214 97.0425C78.5795 97.4302 78.4578 97.7972 78.2118 98.1369C78.1814 98.1788 78.1522 98.2214 78.1218 98.2631C78.1016 98.2907 78.0805 98.3177 78.0599 98.345C78.8076 98.3383 82.0302 98.1739 82.4922 98.416C81.6954 98.7576 79.0737 98.5621 78.0682 98.5739C77.8505 99.1981 77.6951 99.9439 77.3558 100.508C77.3166 100.573 77.2845 100.642 77.2499 100.709L77.3174 100.81C78.5617 100.985 82.5501 100.6 83.2812 100.94L83.2316 101.027C81.9315 101.371 77.915 100.845 77.0007 101.25C77.0009 101.149 77.008 101.062 77.0259 100.962L77.1129 100.486C77.0183 100.642 76.9513 100.76 76.81 100.882C76.7808 100.906 76.7491 100.928 76.7188 100.952C77.091 99.8473 78.2784 97.2373 78.8748 96.25Z" fill="#DAAD6A"/>
<path d="M74.1147 111.252C75.8492 110.985 77.7876 111.137 79.5484 111.135C81.7126 111.132 83.9459 111.027 86.102 111.189C86.5837 111.225 87.3846 111.3 87.7909 111.558C87.8977 111.626 87.8959 111.633 87.9688 111.711L87.9085 111.826L87.6643 111.875C86.6373 111.775 85.5779 111.801 84.5455 111.789L77.9085 111.76C76.4194 111.756 74.9209 111.795 73.4375 111.649C73.6538 111.5 73.8855 111.379 74.1147 111.252Z" fill="#FFEED4"/>
<path d="M73.2022 116.015L82.6777 115.95C84.3138 115.948 85.9843 115.889 87.6126 116.045C88.3274 116.113 89.0299 116.219 89.6875 116.489C87.9299 116.962 85.8696 116.528 84.0669 116.707C81.591 116.646 79.1033 116.69 76.626 116.687C74.7121 116.685 72.8371 116.696 70.9375 116.439C71.2874 116.344 71.6379 116.251 71.9889 116.16C72.3935 116.094 72.7938 116.051 73.2022 116.015Z" fill="#FFEED4"/>
<path d="M75.8627 104.062L75.991 104.199C76.0163 104.204 76.0417 104.21 76.0673 104.215C77.4581 104.491 83.9182 103.998 84.4795 104.453C83.7099 104.846 77.6904 104.64 76.2615 104.647C75.9644 105.523 75.6307 106.399 75.4569 107.309L75.5407 107.324C76.251 107.023 84.5443 107.236 85.1983 107.541C85.37 107.621 85.4289 107.679 85.544 107.827L85.625 107.972C84.7709 108.479 76.679 108.275 74.9854 108.278C74.6915 109.279 74.4532 110.344 74.0669 111.311C73.8389 111.441 73.6084 111.564 73.3933 111.716C73.2081 111.716 73.2948 111.742 73.1358 111.631C72.9995 110.904 74.1891 108.421 74.5096 107.605C74.9106 106.41 75.3528 105.214 75.8627 104.062Z" fill="#DAAD6A"/>
<path d="M75.7012 107.198C76.3947 106.853 84.4926 107.097 85.1312 107.445C85.2988 107.537 85.3564 107.604 85.4688 107.773C84.5552 107.823 76.0709 107.868 75.5339 107.624L75 107.603L75.6193 107.181L75.7012 107.198Z" fill="#FFEED4"/>
<path d="M92.3219 123.102C92.3602 122.786 92.4169 122.439 92.3668 122.122C92.2673 121.49 91.6962 120.43 91.8657 119.844C92.2871 120.906 92.6994 121.973 93.1024 123.042L97.6073 134.465C98.0391 135.541 98.6459 137.502 99.2188 138.388C97.5881 139.05 95.9299 139.634 94.2441 140.141C93.317 140.412 92.2179 140.593 91.3359 140.962C89.0086 141.249 86.7173 141.74 84.3755 141.971C78.7079 142.53 71.7222 142.008 66.2446 140.393C66.5388 139.912 68.4895 132.684 68.5919 131.893C69.5698 131.898 78.704 131.929 78.887 131.867C78.9381 131.849 78.9752 131.805 79.0194 131.774C77.9375 131.691 76.8051 131.756 75.7174 131.759L69.5174 131.772C67.7332 131.773 65.972 131.777 64.2188 131.395C64.7346 131.277 65.2599 131.202 65.7823 131.118C66.706 131.064 67.624 131.024 68.5493 131.016C69.2586 130.403 70.6284 125.244 70.7772 124.188C73.1397 124.158 75.5077 124.191 77.8713 124.179C78.8517 124.174 79.9858 124.266 80.9505 124.103C80.4333 123.953 79.6247 124.057 79.0771 124.057L73.5598 124.059C72.8433 124.06 71.903 124.186 71.2206 124.026C71.1164 123.861 71.1193 123.834 71.1211 123.637C71.3434 123.533 80.0965 123.451 80.7704 123.565C80.8137 123.573 80.8549 123.59 80.8971 123.602L80.9406 123.534L81.2266 123.551C80.4699 123.375 79.6002 123.586 78.8164 123.436C78.7933 123.432 78.7704 123.426 78.7474 123.422L87.3808 123.403C88.8725 123.396 90.5453 123.516 92.0104 123.27C92.1465 123.247 92.2238 123.195 92.3219 123.102Z" fill="url(#paint5_linear_9099_23799)"/>
<path d="M68.5626 131.001L84.7309 130.986C87.4161 130.985 90.4606 130.854 93.1121 131.027C93.705 131.066 94.5131 131.087 95 131.416L94.9777 131.492C93.6595 131.845 91.4419 131.681 90.0163 131.679L82.9606 131.668C81.6677 131.667 80.3559 131.625 79.0648 131.683C77.9795 131.609 76.8436 131.668 75.7526 131.67L69.5336 131.681C67.744 131.683 65.9774 131.686 64.2188 131.342C64.7362 131.236 65.2631 131.168 65.7871 131.093C66.7136 131.044 67.6344 131.008 68.5626 131.001Z" fill="#FFEED4"/>
<path d="M27.2582 32.9689C27.5903 32.9673 27.863 32.9756 28.1041 33.2789C28.2433 33.4542 28.2983 33.6649 28.2767 33.8959C28.2422 34.269 28.0536 34.4633 27.8122 34.6875C27.4629 34.6845 27.1931 34.6875 26.9272 34.4004C26.7705 34.2312 26.6998 34.0262 26.7231 33.7817C26.7618 33.3762 26.9866 33.1958 27.2582 32.9689Z" fill="white"/>
<path d="M42.2053 15.625C42.5339 15.6823 42.8374 15.7593 43.027 16.1117C43.131 16.3049 43.1476 16.5174 43.0985 16.7352C43.0093 17.1302 42.7867 17.2903 42.5104 17.5C42.1676 17.4158 41.9066 17.3539 41.6959 16.9973C41.5795 16.8002 41.5288 16.5638 41.5863 16.3288C41.6766 15.9591 41.9305 15.7887 42.2053 15.625Z" fill="#FFEED4"/>
<path d="M54.762 22.6562C54.7743 22.6856 54.7863 22.7152 54.7989 22.7444C54.9424 23.0731 55.0695 23.2129 55.342 23.4356C55.884 23.8785 56.3914 24.3659 56.9367 24.8022C57.3572 25.1388 57.9637 25.4312 58.2812 25.8648C57.599 26.5134 55.9291 26.7565 55.5009 27.599C53.3483 28.9543 51.2445 30.3916 49.2977 32.0304C41.7791 38.3593 36.1347 47.1616 33.9643 56.7608C33.6551 58.1537 33.4194 59.5587 33.2571 60.9759C33.0948 62.3931 33.0069 63.8149 32.9933 65.2413C32.9633 67.0279 33.0374 68.8436 32.9338 70.6248C32.9224 70.6339 32.907 70.6396 32.8995 70.652C32.6953 70.9899 32.8525 74.9983 32.7987 75.7812L32.7135 75.7586C32.4205 75.1721 31.8076 74.664 31.3528 74.1993C30.6789 73.5111 30.0339 72.7946 29.3556 72.1111C28.7028 71.4531 27.9336 70.807 27.3977 70.0511C27.3297 69.955 27.2372 69.8323 27.2171 69.7125C27.1402 69.2507 27.237 68.6284 27.2407 68.1475C27.2571 66.0145 27.2886 63.9061 27.5128 61.7815C27.5974 60.9794 27.7539 60.1841 27.9023 59.3918C30.0125 48.1367 35.0883 38.4648 43.4961 30.6056C44.6523 29.5249 45.8738 28.3455 47.1327 27.3866C47.6536 26.9898 48.2385 26.6685 48.7856 26.3078C49.9542 25.5371 51.0875 24.7789 52.3033 24.0782C53.07 23.6364 53.9355 23.2362 54.6552 22.7323L54.762 22.6562Z" fill="#2F4F84"/>
<path d="M155.048 58.7674C156.415 57.6755 157.52 56.2522 158.893 55.1562L158.877 78.4466L158.879 86.0933C158.879 87.4882 158.924 88.9049 158.863 90.2976C158.896 91.9823 158.936 93.7108 158.86 95.3933L158.864 100.397C158.86 103.884 159.015 107.432 158.755 110.909C158.06 120.217 154.291 128.719 148.94 136.253C146.063 139.999 142.924 143.433 139.266 146.431C131.262 152.99 120.868 157.459 110.62 158.789C105.967 159.393 101.243 159.179 96.5615 159.182L74.8186 159.219C74.7054 159.173 74.6311 159.131 74.5312 159.064L74.5386 158.891C75.2658 158.156 75.8998 157.326 76.6137 156.576C78.5292 154.561 80.5153 152.59 82.4677 150.611C83.7736 150.438 85.2306 150.597 86.504 150.292L86.3532 150.217C85.3343 150.302 83.4677 150.64 82.5063 150.36C83.2432 149.644 83.9485 148.87 84.6387 148.109C86.0968 146.608 87.5445 145.098 88.9816 143.578C89.8147 142.696 90.702 141.821 91.4438 140.86C92.3202 140.491 93.4124 140.31 94.3336 140.04C96.0088 139.534 97.6565 138.95 99.2768 138.289C98.7076 137.404 98.1046 135.445 97.6755 134.37L93.1992 122.961C92.7987 121.892 92.389 120.827 91.9703 119.766C91.6029 118.582 91.0331 117.421 90.5397 116.285C89.4196 113.439 88.3423 110.563 87.1418 107.75C92.9239 106.467 95.5865 105.433 100.378 101.834C102.21 102.658 103.993 103.758 105.751 104.737C106.474 105.139 107.25 105.656 108.029 105.931L112.416 108.331C113.114 108.713 113.821 109.172 114.549 109.487C116.521 110.657 118.569 111.708 120.573 112.824C121.427 113.354 122.349 113.787 123.225 114.284C123.882 114.658 124.526 115.126 125.192 115.468C125.577 114.763 125.881 114.101 126.067 113.316C125.894 112.185 126.063 110.645 126.075 109.475L126.105 101.777L126.069 86.8418L126.131 86.6292C127.802 85.1102 129.371 83.4929 130.949 81.879C131.697 80.9412 132.798 79.9662 133.739 79.2215C134.006 78.7793 134.67 78.2821 135.06 77.9163C136.335 76.7211 137.74 75.5546 138.885 74.2348C139.82 73.5258 140.676 72.5355 141.528 71.7213C143.492 69.881 145.434 68.0173 147.353 66.1302L152.471 61.2676C153.333 60.4477 154.246 59.6453 155.048 58.7674Z" fill="#0D2359"/>
<path d="M131.719 118.763C132.025 118.621 132.332 118.454 132.652 118.351C132.848 118.288 132.903 118.237 133.088 118.341C133.097 118.908 133.177 119.607 133.069 120.156C132.606 119.709 132.166 119.228 131.719 118.763Z" fill="#937252"/>
<path d="M100.294 101.875C102.129 102.701 103.915 103.804 105.677 104.786C106.401 105.19 107.179 105.708 107.959 105.984L112.355 108.391C113.054 108.775 113.763 109.234 114.493 109.55C116.469 110.724 118.52 111.778 120.528 112.897C121.384 113.429 122.308 113.863 123.185 114.362C123.844 114.737 124.489 115.206 125.156 115.55C123.98 117.667 122.707 119.66 121.247 121.594C120.094 123.06 118.942 124.531 117.677 125.903C112.495 131.517 106.154 135.44 99.1902 138.438C98.6198 137.55 98.0157 135.585 97.5857 134.507L93.1006 123.064C92.6993 121.992 92.2888 120.924 91.8692 119.86C91.5012 118.672 90.9302 117.508 90.4358 116.369C89.3136 113.514 88.2341 110.629 87.0312 107.809C92.8247 106.521 95.4926 105.484 100.294 101.875Z" fill="url(#paint6_linear_9099_23799)"/>
<path d="M92.9688 123.096C94.4739 122.555 96.2731 122.397 97.8536 122.185C104.236 121.328 110.858 120.843 117.294 121.227C118.602 121.305 119.965 121.366 121.25 121.629C120.091 123.092 118.934 124.56 117.663 125.929C112.456 131.531 106.085 135.446 99.0875 138.438C98.5144 137.551 97.9074 135.591 97.4754 134.515L92.9688 123.096Z" fill="#DAAD6A"/>
<path d="M155.044 58.7691C156.414 57.6767 157.521 56.2528 158.896 55.1562L158.88 78.4576L158.882 86.1079C158.882 87.5035 158.927 88.9208 158.865 90.3143C158.899 91.9997 158.939 93.7291 158.863 95.4123L158.867 100.418C158.23 100.66 138.565 121.069 136.321 123.281C135.209 122.221 134.109 121.148 133.023 120.061C133.132 119.549 133.051 118.897 133.042 118.368C132.856 118.272 132.801 118.319 132.604 118.378C132.282 118.474 131.973 118.63 131.666 118.762L131.002 118.191L130.942 118.108L130.908 118.054L129.357 116.54L129.336 116.479C128.687 115.875 128.031 115.279 127.366 114.692C126.855 114.319 126.41 113.836 126.015 113.344C125.842 112.212 126.011 110.671 126.023 109.501L126.053 101.799L126.017 86.8568L126.079 86.6441C127.752 85.1244 129.324 83.5063 130.905 81.8917C131.655 80.9534 132.757 79.978 133.7 79.2329C133.967 78.7905 134.632 78.293 135.023 77.9271C136.3 76.7313 137.708 75.5643 138.855 74.2439C139.791 73.5345 140.648 72.5437 141.502 71.7292C143.469 69.8879 145.414 68.0233 147.337 66.1354L152.463 61.2705C153.326 60.4502 154.241 59.6475 155.044 58.7691Z" fill="url(#paint7_linear_9099_23799)"/>
<path d="M133.75 79.375C133.664 79.5211 133.566 79.6654 133.482 79.8116C132.944 80.7411 133.14 95.9345 133.155 98.1686C133.165 99.668 133.324 101.428 133.158 102.903C133.154 104.761 133.162 106.619 133.183 108.477L133.164 108.563C132.536 109.278 131.852 109.946 131.185 110.625C131.087 109.587 131.14 108.501 131.143 107.458L131.182 102.067C131.128 101.008 131.149 99.9348 131.137 98.8739C131.333 98.1333 131.049 94.5079 131.036 93.5041C130.984 89.6824 131.04 85.8487 130.938 82.0298C131.692 81.0929 132.801 80.1189 133.75 79.375Z" fill="url(#paint8_linear_9099_23799)"/>
<path d="M126.081 86.6519C127.78 85.1244 129.375 83.4979 130.979 81.875C131.083 85.7192 131.026 89.5784 131.079 93.4255C131.092 94.4359 131.378 98.0854 131.18 98.8308C131.193 99.8988 131.172 100.979 131.226 102.045L131.187 107.472C131.184 108.522 131.13 109.615 131.229 110.66L131.206 110.773C129.966 112.157 128.643 113.471 127.388 114.844C126.869 114.469 126.417 113.983 126.016 113.489C125.841 112.351 126.012 110.802 126.024 109.626L126.055 101.885L126.019 86.8656L126.081 86.6519Z" fill="#2F4F84"/>
<path d="M131.13 104.592C131.131 103.092 130.936 100.066 131.201 98.75C131.214 99.8234 131.192 100.909 131.246 101.98L131.208 107.434C131.204 108.49 131.15 109.589 131.25 110.639L131.226 110.753C129.982 112.143 128.653 113.465 127.393 114.844C126.872 114.467 126.419 113.979 126.017 113.482C125.84 112.338 126.012 110.782 126.024 109.6L126.056 101.82C126.335 104.054 126.199 106.379 126.181 108.627C126.535 108.227 126.905 107.841 127.29 107.471C127.675 107.101 128.075 106.746 128.49 106.409C128.904 106.071 129.332 105.75 129.772 105.446C130.213 105.143 130.666 104.858 131.13 104.592Z" fill="url(#paint9_linear_9099_23799)"/>
<path d="M133.246 108.324C135.371 106.316 137.341 104.103 139.387 102.012L151.547 89.6278C153.978 87.1429 156.356 84.6011 158.858 82.1875C158.731 83.489 158.641 89.0633 158.865 90.1944C158.899 91.8859 158.939 93.6216 158.863 95.311L158.867 100.335C158.233 100.577 138.652 121.061 136.417 123.281C135.309 122.217 134.215 121.14 133.133 120.05C133.241 119.536 133.161 118.881 133.152 118.35C132.966 118.254 132.912 118.301 132.715 118.36C132.395 118.456 132.088 118.613 131.781 118.746L131.12 118.173L131.06 118.089L131.027 118.035L129.482 116.516L129.461 116.455C128.815 115.848 128.162 115.25 127.5 114.661C128.731 113.29 130.03 111.978 131.246 110.596L131.269 110.483C131.929 109.801 132.605 109.129 133.227 108.41L133.246 108.324Z" fill="url(#paint10_linear_9099_23799)"/>
<path d="M133.121 108.594C133.154 111.155 132.955 113.716 133.057 116.278C133.062 116.973 133.059 117.667 133.048 118.362C132.866 118.266 132.812 118.313 132.619 118.371C132.305 118.466 132.003 118.619 131.702 118.75L131.053 118.187L130.995 118.105L130.962 118.052L129.445 116.559L129.425 116.499C128.791 115.903 128.149 115.315 127.5 114.736C128.709 113.389 129.983 112.1 131.177 110.742L131.199 110.63C131.847 109.96 132.512 109.3 133.121 108.594Z" fill="url(#paint11_linear_9099_23799)"/>
<path d="M131.25 114.688C131.222 115.296 131.326 117.607 131.047 117.969L129.397 116.537L129.375 116.48C129.723 115.871 130.539 114.945 131.25 114.688Z" fill="#9A5C3C"/>
<path d="M131.25 110.781L131.221 114.685C130.555 114.955 129.789 115.924 129.464 116.562C128.817 115.964 128.162 115.374 127.5 114.792C128.733 113.44 130.033 112.145 131.25 110.781Z" fill="#937252"/>
<path d="M61.3188 19.4239C62.6863 19.0911 64.0171 18.4441 65.3874 18.06C70.2268 16.7036 75.3486 15.951 80.3789 16.1163C81.2411 16.2216 82.2065 16.1281 83.04 16.3131C84.5711 16.4361 86.3014 16.4257 87.7884 16.7711C89.7277 17.2017 91.6534 17.5289 93.5737 18.0615C94.0167 18.1869 94.4582 18.3177 94.8981 18.454C95.3379 18.5905 95.7759 18.7324 96.2121 18.8798C96.6485 19.0272 97.0829 19.18 97.5153 19.3383C97.9479 19.4965 98.3783 19.6602 98.8068 19.8293C99.2351 19.9984 99.6613 20.1728 100.085 20.3526C100.509 20.5323 100.931 20.7174 101.351 20.9078C101.77 21.0981 102.187 21.2938 102.602 21.4947C103.017 21.6954 103.429 21.9014 103.838 22.1126C104.248 22.3238 104.654 22.5401 105.058 22.7615C105.463 22.9829 105.864 23.2093 106.262 23.4407C106.661 23.6722 107.057 23.9086 107.449 24.15C107.842 24.3913 108.231 24.6376 108.618 24.8888C109.004 25.14 109.388 25.396 109.768 25.6567C110.148 25.9175 110.525 26.183 110.898 26.4531C111.272 26.7234 111.642 26.9983 112.008 27.2778C112.375 27.5573 112.738 27.8414 113.098 28.1301C114.482 29.2841 115.806 30.503 117.072 31.7868C118.337 33.0708 119.537 34.4136 120.672 35.8153C121.119 36.3693 121.686 36.9948 122.024 37.6194C120.933 38.7891 119.786 39.9612 118.615 41.0497C118.776 41.2872 118.935 41.5263 119.091 41.7669C119.248 42.0075 119.402 42.2497 119.554 42.4935C119.705 42.7372 119.854 42.9825 120.001 43.2291C120.148 43.4759 120.292 43.7241 120.434 43.9737C120.576 44.2233 120.716 44.4743 120.852 44.7268C120.989 44.9792 121.124 45.2329 121.255 45.4879C121.387 45.7431 121.517 45.9995 121.643 46.2572C121.77 46.5149 121.894 46.7739 122.016 47.0341C122.137 47.2943 122.256 47.5557 122.373 47.8183C122.489 48.0808 122.603 48.3445 122.714 48.6093C122.825 48.8742 122.934 49.1402 123.04 49.4072C123.146 49.6743 123.249 49.9423 123.349 50.2114C123.45 50.4804 123.548 50.7505 123.643 51.0216C123.738 51.2926 123.831 51.5647 123.921 51.8376C124.01 52.1105 124.097 52.3843 124.182 52.6591C124.266 52.9337 124.348 53.2091 124.427 53.4854C124.506 53.7617 124.582 54.0388 124.655 54.3167C124.728 54.5945 124.799 54.873 124.867 55.1522C124.935 55.4315 125 55.7114 125.062 55.992C125.124 56.2724 125.184 56.5536 125.241 56.8354C125.297 57.1171 125.351 57.3993 125.402 57.6822C125.453 57.965 125.502 58.2483 125.547 58.5321C125.592 58.8159 125.635 59.1001 125.675 59.3848C125.715 59.6694 125.752 59.9544 125.786 60.2398C125.82 60.5252 125.852 60.8109 125.88 61.0968C125.908 61.3829 125.934 61.6692 125.957 61.9557C125.98 62.2422 126 62.5289 126.017 62.8159C126.034 63.1028 126.048 63.3898 126.059 63.6771C126.071 63.9643 126.08 64.2516 126.085 64.539C126.091 64.8264 126.094 65.1138 126.094 65.4012C126.094 65.6887 126.091 65.9761 126.085 66.2635C126.08 66.5509 126.071 66.8382 126.059 67.1254L126.062 86.6915L126 86.9047L126.036 101.885L126.005 109.606C125.993 110.779 125.825 112.323 125.998 113.458C125.812 114.246 125.507 114.91 125.122 115.617C124.456 115.273 123.811 114.805 123.153 114.429C122.277 113.93 121.354 113.497 120.499 112.964C118.494 111.845 116.445 110.791 114.471 109.618C113.743 109.302 113.035 108.842 112.336 108.458L107.946 106.051C107.167 105.775 106.39 105.257 105.666 104.853C103.907 103.871 102.123 102.768 100.29 101.942C98.2378 100.846 96.1861 99.7025 94.1801 98.5229C93.1264 97.9035 92.1111 97.1944 91.032 96.6237C90.1036 96.1329 89.1176 95.7879 88.1687 95.3457C87.1006 94.9075 86.0559 94.1514 85.0445 93.5705C83.2567 92.5439 81.4035 91.579 79.6689 90.4668C78.5756 91.2528 77.3603 91.8818 76.2073 92.5762C74.4386 93.641 72.6883 94.7613 70.8695 95.7383C70.1232 96.3172 69.1599 96.7517 68.3336 97.2127L63.3014 100.001L46.7987 109.104C46.0665 109.461 45.3692 109.97 44.6305 110.289C42.5769 111.54 40.4339 112.757 38.2998 113.864C37.1814 114.592 35.9586 115.212 34.7532 115.781C34.2317 114.976 33.8139 114.111 33.3892 113.253C33.3033 112.952 33.2731 112.657 33.241 112.347C33.1242 109.395 33.2502 106.428 33.1696 103.474C33.2682 99.2672 33.1683 95.0376 33.1733 90.8284C33.177 87.781 33.3302 84.6763 33.1708 81.638C33.2086 80.8307 33.1853 80.0123 33.1893 79.2034C33.0186 76.3334 33.2508 73.4207 33.1718 70.5432C33.2746 68.7618 33.201 66.9459 33.2308 65.1592C33.2443 63.7326 33.3315 62.3107 33.4924 60.8934C33.6534 59.476 33.8872 58.0709 34.1939 56.6779C36.3466 47.0778 41.9451 38.2747 49.4026 31.9451C51.3335 30.3061 53.4202 28.8688 55.5554 27.5133C55.9801 26.6707 57.6364 26.4276 58.3131 25.7789C57.9981 25.3453 57.3966 25.0529 56.9795 24.7163C56.4386 24.2799 55.9353 23.7924 55.3978 23.3496C55.1274 23.1268 55.0014 22.9869 54.8591 22.6582C54.8465 22.629 54.8347 22.5995 54.8225 22.5701C55.088 22.0544 60.4701 19.782 61.3188 19.4239Z" fill="#2F4F84"/>
<path d="M97.4047 64.2188C97.474 64.226 97.571 64.2337 97.6356 64.2525C97.8332 64.3102 97.8729 64.3621 97.9687 64.5064C97.951 64.734 97.8598 64.8294 97.7009 65C97.4729 64.9397 97.319 64.8919 97.1875 64.7173C97.1936 64.4755 97.258 64.4195 97.4047 64.2188Z" fill="white"/>
<path d="M110.646 47.1875C110.749 47.2077 110.915 47.2295 111.012 47.2746C111.251 47.3856 111.301 47.4525 111.406 47.6522C111.384 47.9396 111.272 48.0632 111.076 48.2812C110.951 48.249 110.799 48.2182 110.683 48.1642C110.456 48.0589 110.394 47.9463 110.312 47.7472C110.349 47.491 110.461 47.378 110.646 47.1875Z" fill="white"/>
<path d="M59.0049 72.6562C59.1721 72.6604 59.347 72.6689 59.503 72.7344C59.7092 72.8211 59.7708 72.9675 59.8438 73.1572C59.8246 73.4198 59.7499 73.5384 59.6003 73.7451C59.4333 73.7515 59.2238 73.7637 59.0691 73.6894C58.898 73.6072 58.7881 73.4778 58.7563 73.2933C58.7155 73.0568 58.8809 72.8428 59.0049 72.6562Z" fill="white"/>
<path d="M112.384 64.2188C112.612 64.2189 112.839 64.2142 113.035 64.3444C113.197 64.4521 113.285 64.5942 113.281 64.779C113.277 64.9987 113.101 65.1556 112.945 65.3015C112.717 65.3189 112.502 65.3304 112.296 65.2159C112.135 65.1265 112.047 64.9984 112.033 64.8277C112.012 64.5711 112.213 64.3949 112.384 64.2188Z" fill="white"/>
<path d="M55.1739 45.1562C55.2903 45.1669 55.4068 45.1777 55.5222 45.1968C55.8104 45.2447 56.0989 45.4067 56.2559 45.6573C56.4015 45.8897 56.444 46.1432 56.3718 46.4068C56.2582 46.8206 55.976 46.9956 55.612 47.1875C55.5418 47.1847 55.4714 47.1826 55.4015 47.1746C55.0589 47.1356 54.7058 47.0074 54.5116 46.7079C54.3637 46.4799 54.3438 46.2136 54.4141 45.9563C54.5267 45.5459 54.8179 45.3563 55.1739 45.1562Z" fill="white"/>
<path d="M80.2115 35.3125C80.4148 35.3172 80.6279 35.3178 80.825 35.3769C80.8749 35.3919 80.924 35.4098 80.9721 35.4304C81.0202 35.451 81.0673 35.4742 81.1131 35.5001C81.1591 35.5261 81.2036 35.5545 81.2467 35.5854C81.2899 35.6163 81.3314 35.6497 81.3713 35.6853C81.4111 35.7209 81.4492 35.7586 81.4854 35.7985C81.5217 35.8384 81.5558 35.8803 81.5879 35.9241C81.62 35.9679 81.6499 36.0134 81.6777 36.0605C81.7053 36.1077 81.7307 36.1563 81.7536 36.2063C81.7723 36.2479 81.7888 36.2904 81.8032 36.3339C81.8177 36.3773 81.83 36.4215 81.8402 36.4663C81.8503 36.5111 81.8582 36.5564 81.8639 36.602C81.8697 36.6479 81.8732 36.6938 81.8745 36.7398C81.8757 36.786 81.8747 36.832 81.8715 36.8781C81.8683 36.9241 81.8628 36.9698 81.8551 37.0152C81.8474 37.0605 81.8376 37.1054 81.8256 37.1498C81.8134 37.194 81.7992 37.2375 81.783 37.2802C81.5974 37.756 81.3011 37.9501 80.8676 38.125C80.5605 38.1121 80.2412 38.1163 79.9511 37.9933C79.4342 37.7739 79.2532 37.2939 79.0625 36.7756C79.3323 35.9943 79.5067 35.682 80.2115 35.3125Z" fill="white"/>
<path d="M120.161 58.9062L120.298 58.9844L120.302 59.1294C120.316 59.5828 120.433 60.0207 120.472 60.4723C120.554 61.4219 120.557 62.3849 120.565 63.3374C120.576 65.2796 120.576 67.2218 120.564 69.1641C120.551 70.428 120.486 71.704 120.552 72.967C122.656 72.2928 124.378 71.0065 126.03 69.582C126.026 68.8253 125.951 67.9905 126.091 67.2462L126.094 86.7834L126.031 86.9963C124.163 88.7449 122.42 90.7259 120.445 92.3438L120.444 65.8666C120.446 64.4166 120.447 62.9574 120.359 61.5094C120.307 60.6536 120.126 59.759 120.161 58.9062Z" fill="url(#paint12_linear_9099_23799)"/>
<path d="M120.469 92.1103C122.445 90.4791 124.189 88.4817 126.057 86.7188L126.094 101.8L126.063 109.573C126.051 110.754 125.88 112.309 126.055 113.452C125.867 114.244 125.558 114.913 125.168 115.625C124.493 115.279 123.84 114.807 123.174 114.429C122.287 113.927 121.353 113.49 120.487 112.954C120.586 110.628 120.491 108.259 120.487 105.929L120.469 92.1103Z" fill="#DAAD6A"/>
<path d="M33.1448 79.1773C33.3087 77.8649 33.0687 72.5373 33.4379 71.7988C33.4747 71.7941 33.5118 71.7899 33.5486 71.7847C34.7512 71.6118 35.6643 70.1986 36.3536 69.3052C36.6522 68.9183 38.182 66.456 38.1716 66.0938C38.1655 66.6651 38.0199 68.6255 38.2152 69.0505C38.226 69.0739 38.2428 69.0942 38.2566 69.1159L38.2762 108.439C38.2735 110.236 38.2043 112.068 38.2812 113.862C37.1572 114.591 35.9282 115.212 34.7166 115.781C34.1925 114.976 33.7726 114.11 33.3457 113.251C33.2594 112.95 33.229 112.655 33.1967 112.344C33.0793 109.39 33.2059 106.422 33.125 103.465C33.2241 99.2554 33.1237 95.0228 33.1287 90.8106C33.1324 87.7611 33.2864 84.6541 33.1262 81.6137C33.1641 80.8057 33.1408 79.9867 33.1448 79.1773Z" fill="#FFEED4"/>
<path d="M33.125 112.344C34.8731 111.085 36.5459 109.722 38.2761 108.438C38.2734 110.235 38.2032 112.068 38.2812 113.862C37.1413 114.591 35.895 115.211 34.6663 115.781C34.1348 114.975 33.709 114.11 33.2761 113.25C33.1885 112.949 33.1577 112.655 33.125 112.344Z" fill="#DAAD6A"/>
<path d="M108.352 37.2136C108.348 37.1913 108.347 37.1682 108.341 37.1465C108.205 36.6892 107.32 36.0833 106.941 35.7787C105.111 34.3066 103.207 32.9204 101.174 31.7403C100.135 31.1365 98.9528 30.6669 97.9688 29.9933C98.1858 29.5681 98.6294 28.4419 99.0434 28.3218C99.1521 28.2903 99.2052 28.2769 99.302 28.2114C100.201 27.6022 101.3 27.3021 102.343 27.0312C103.638 27.3314 107.827 30.339 109.041 31.3018C109.947 32.0196 110.813 32.8052 111.67 33.5808L111.799 33.554C113.35 34.6533 115.83 37.5959 117.017 39.1352C117.524 39.792 117.98 40.6838 118.586 41.2408C118.747 41.4777 118.907 41.7162 119.064 41.9563C119.221 42.1963 119.376 42.4379 119.528 42.6811C119.68 42.9243 119.83 43.1689 119.977 43.415C120.125 43.6611 120.27 43.9087 120.412 44.1577C120.554 44.4067 120.694 44.6571 120.832 44.909C120.969 45.1608 121.104 45.4139 121.236 45.6683C121.369 45.9229 121.499 46.1787 121.626 46.4357C121.753 46.6928 121.878 46.9512 122 47.2107C122.122 47.4703 122.241 47.7311 122.358 47.993C122.475 48.2549 122.589 48.518 122.701 48.7821C122.812 49.0464 122.921 49.3117 123.028 49.5781C123.134 49.8445 123.238 50.1119 123.339 50.3803C123.44 50.6487 123.538 50.9181 123.633 51.1886C123.729 51.459 123.822 51.7303 123.912 52.0026C124.002 52.2748 124.09 52.548 124.174 52.8221C124.259 53.0961 124.341 53.3708 124.42 53.6464C124.499 53.922 124.576 54.1985 124.649 54.4757C124.723 54.7528 124.794 55.0307 124.862 55.3092C124.93 55.5878 124.995 55.867 125.058 56.1469C125.121 56.4267 125.18 56.7072 125.237 56.9883C125.294 57.2693 125.348 57.5509 125.399 57.833C125.451 58.1152 125.499 58.3978 125.545 58.681C125.59 58.964 125.633 59.2475 125.673 59.5316C125.713 59.8155 125.75 60.0998 125.785 60.3845C125.819 60.6692 125.851 60.9542 125.879 61.2394C125.908 61.5248 125.933 61.8104 125.956 62.0962C125.979 62.3821 125.999 62.6681 126.016 62.9544C126.034 63.2405 126.048 63.5269 126.059 63.8135C126.071 64.1 126.079 64.3866 126.085 64.6733C126.091 64.96 126.094 65.2467 126.094 65.5335C126.094 65.8202 126.091 66.1069 126.085 66.3936C126.079 66.6803 126.071 66.9669 126.059 67.2534C125.92 67.997 125.995 68.831 125.998 69.587C124.36 71.0102 122.653 72.2952 120.566 72.9688C120.501 71.707 120.565 70.4322 120.578 69.1695C120.59 67.229 120.59 65.2886 120.579 63.3483C120.571 62.3967 120.568 61.4346 120.487 60.4858C120.448 60.0346 120.332 59.5972 120.318 59.1442L120.314 58.9993L120.178 58.9213C120.103 58.494 120.021 58.0681 119.932 57.6435C119.843 57.2189 119.746 56.7959 119.643 56.3747C119.539 55.9533 119.429 55.5339 119.311 55.1163C119.193 54.6987 119.069 54.2832 118.937 53.8698C118.805 53.4565 118.666 53.0454 118.521 52.6367C118.375 52.2279 118.223 51.8218 118.063 51.4182C117.904 51.0146 117.738 50.6137 117.565 50.2157C117.393 49.8177 117.213 49.4227 117.027 49.0308C116.841 48.6388 116.648 48.2501 116.449 47.8646C116.249 47.479 116.044 47.097 115.831 46.7185C115.619 46.3399 115.401 45.965 115.176 45.5938C114.951 45.2227 114.72 44.8554 114.483 44.492C114.245 44.1285 114.002 43.7691 113.753 43.414C113.503 43.0587 113.248 42.7077 112.987 42.3611C112.726 42.0144 112.459 41.6722 112.186 41.3346C111.913 40.9969 111.635 40.6639 111.351 40.3356C110.418 39.2394 109.349 38.2516 108.352 37.2136Z" fill="#C37F9F"/>
<path d="M61.321 19.4329C62.6886 19.0993 64.0194 18.4505 65.3899 18.0654C70.2296 16.7052 75.3518 15.9506 80.3825 16.1164C81.2447 16.2219 82.2103 16.1282 83.0438 16.3137C84.575 16.4371 86.3054 16.4266 87.7925 16.7729C89.732 17.2047 91.6579 17.5328 93.5783 18.0669C94.0213 18.1926 94.4629 18.3238 94.9028 18.4605C95.3426 18.5973 95.7807 18.7396 96.2169 18.8874C96.6533 19.0352 97.0877 19.1884 97.5202 19.3471C97.9528 19.5058 98.3833 19.6699 98.8118 19.8395C99.2401 20.009 99.6664 20.1839 100.09 20.3642C100.515 20.5444 100.936 20.73 101.356 20.9208C101.776 21.1117 102.193 21.3079 102.607 21.5093C103.022 21.7107 103.434 21.9172 103.844 22.129C104.253 22.3408 104.66 22.5576 105.064 22.7796C105.468 23.0016 105.869 23.2286 106.268 23.4607C106.667 23.6928 107.062 23.9298 107.455 24.1719C107.847 24.4139 108.237 24.6608 108.624 24.9128C109.01 25.1646 109.393 25.4212 109.774 25.6827C110.154 25.9442 110.53 26.2104 110.904 26.4813C111.278 26.7523 111.648 27.0279 112.014 27.3082C112.381 27.5885 112.744 27.8734 113.104 28.1628C114.488 29.3199 115.813 30.5422 117.078 31.8295C118.343 33.1169 119.543 34.4634 120.678 35.8689C121.126 36.4244 121.693 37.0516 122.031 37.678C120.94 38.8508 119.793 40.0261 118.621 41.1176C118.018 40.5577 117.564 39.6613 117.059 39.0011C115.877 37.4539 113.406 34.4961 111.861 33.3911L111.733 33.4181C110.879 32.6385 110.016 31.8489 109.114 31.1274C107.904 30.1596 103.731 27.1365 102.441 26.8348C101.402 27.107 100.307 27.4087 99.4119 28.0211C99.3154 28.0869 99.2625 28.1004 99.1542 28.132C98.7418 28.2527 98.2999 29.3848 98.0837 29.8122C99.0639 30.4892 100.241 30.9612 101.277 31.5681C103.302 32.7543 105.199 34.1476 107.021 35.6273C107.399 35.9335 108.281 36.5425 108.416 37.0021C108.422 37.024 108.423 37.0472 108.427 37.0696C100.092 29.5494 89.0776 25.177 77.8127 25.809C66.3203 26.4537 55.9418 31.6199 48.2951 40.256C42.9829 46.2553 39.2295 54.2319 38.4517 62.2659C38.3023 63.8099 38.3057 65.3436 38.3112 66.8929C38.3139 67.6437 38.4146 68.5613 38.2756 69.2934C38.2619 69.2717 38.2452 69.2513 38.2345 69.2279C38.0402 68.802 38.185 66.8377 38.1911 66.2652C38.2014 66.6281 36.6792 69.0954 36.3821 69.4831C35.6963 70.3783 34.7877 71.7943 33.5911 71.9676C33.5545 71.9728 33.5175 71.977 33.4809 71.9817C33.1136 72.7217 33.3524 78.06 33.1893 79.375C33.0186 76.4971 33.2508 73.5765 33.1718 70.6912C33.2746 68.905 33.201 67.0842 33.2308 65.2926C33.2443 63.8622 33.3315 62.4364 33.4925 61.0152C33.6535 59.594 33.8873 58.185 34.194 56.7883C36.3468 47.162 41.9458 38.335 49.4038 31.9882C51.3349 30.3448 53.4218 28.9035 55.5571 27.5443C55.9819 26.6995 57.6382 26.4557 58.315 25.8053C58 25.3705 57.3984 25.0772 56.9813 24.7397C56.4404 24.3022 55.9371 23.8134 55.3995 23.3693C55.1291 23.1459 55.0031 23.0057 54.8607 22.6761C54.8482 22.6468 54.8363 22.6172 54.8241 22.5877C55.0897 22.0706 60.4722 19.792 61.321 19.4329Z" fill="url(#paint13_linear_9099_23799)"/>
<path d="M61.2091 19.4656C62.582 19.1287 63.9179 18.4736 65.2936 18.0846C70.1519 16.7112 75.2936 15.9492 80.3434 16.1166C81.209 16.2232 82.1783 16.1285 83.015 16.3158L82.9341 16.4219C83.4129 16.5341 83.878 16.409 84.3667 16.5404C85.2042 16.7654 86.6341 16.8001 87.5 16.8196C86.1292 18.2111 84.6881 19.5285 83.3137 20.9169C83.6252 20.8512 83.9812 20.4282 84.3059 20.2777L84.3366 20.3146C84.2987 20.3457 84.2605 20.3765 84.2231 20.4083C84.0167 20.5828 83.85 20.8009 83.6784 21.0095C84.3598 21.0222 85.6529 21.1276 86.2934 21.3093L86.3821 21.412C84.6129 21.2723 82.864 21.0795 81.0872 21.042C73.6289 20.8847 66.3984 22.4535 59.5751 25.4625C58.1377 26.0965 56.837 26.9986 55.4232 27.6562C55.8496 26.8031 57.5123 26.557 58.1917 25.9002C57.8755 25.4611 57.2716 25.165 56.8529 24.8242C56.3099 24.3824 55.8047 23.8888 55.2651 23.4404C54.9936 23.2148 54.8672 23.0732 54.7242 22.7404C54.7117 22.7108 54.6997 22.6809 54.6875 22.6512C54.954 22.129 60.3572 19.8281 61.2091 19.4656Z" fill="#9766AD"/>
<path d="M83.0493 16.4062C84.5803 16.5291 86.3104 16.5187 87.7973 16.8633C89.7365 17.2931 91.6621 17.6196 93.5823 18.1512C94.0253 18.2763 94.4667 18.4069 94.9066 18.543C95.3464 18.6791 95.7843 18.8207 96.2205 18.9679C96.6569 19.115 97.0912 19.2675 97.5236 19.4254C97.9562 19.5834 98.3866 19.7467 98.815 19.9155C99.2433 20.0843 99.6695 20.2583 100.094 20.4377C100.518 20.6171 100.939 20.8018 101.359 20.9918C101.778 21.1818 102.195 21.377 102.61 21.5775C103.025 21.7779 103.437 21.9835 103.846 22.1943C104.256 22.405 104.662 22.6209 105.066 22.8418C105.47 23.0628 105.872 23.2887 106.27 23.5197C106.669 23.7507 107.064 23.9867 107.457 24.2276C107.849 24.4684 108.239 24.7142 108.625 24.965C109.012 25.2156 109.395 25.4711 109.775 25.7313C110.155 25.9916 110.532 26.2565 110.906 26.5262C111.279 26.7959 111.649 27.0702 112.016 27.3491C112.383 27.6282 112.746 27.9117 113.105 28.1998C114.489 29.3515 115.813 30.568 117.079 31.8493C118.344 33.1306 119.544 34.4708 120.679 35.8697C121.126 36.4226 121.693 37.0469 122.031 37.6703C120.94 38.8376 119.793 40.0074 118.622 41.0938C118.018 40.5365 117.564 39.6443 117.06 38.9872C115.878 37.4473 113.407 34.5033 111.863 33.4036C110.775 32.2767 109.483 31.283 108.226 30.3544C107.641 29.9153 107.046 29.4902 106.441 29.0789C105.836 28.6675 105.221 28.2705 104.598 27.8878C103.974 27.5051 103.342 27.1371 102.702 26.7839C102.061 26.4307 101.413 26.0926 100.757 25.7695C100.101 25.4464 99.4374 25.1388 98.7669 24.8467C98.0965 24.5546 97.4196 24.2783 96.7363 24.0177C96.0531 23.757 95.3642 23.5124 94.6697 23.284C93.975 23.0555 93.2755 22.8432 92.5711 22.6473C91.3038 22.305 89.9983 22.052 88.7048 21.8337C87.989 21.7129 87.21 21.6506 86.5119 21.4601L86.4032 21.4294L86.3148 21.3282C85.6769 21.1491 84.3888 21.0452 83.7101 21.0327C83.881 20.8271 84.0471 20.6121 84.2526 20.4401C84.2899 20.4087 84.328 20.3784 84.3657 20.3478L84.3352 20.3114C84.0117 20.4597 83.6571 20.8767 83.3469 20.9414C84.7158 19.5729 86.1512 18.2744 87.5166 16.9029C86.6541 16.8836 85.2299 16.8494 84.3956 16.6276C83.9089 16.4981 83.4456 16.6214 82.9688 16.5108L83.0493 16.4062Z" fill="#A472B9"/>
<path d="M79.4536 49.0625C79.9296 49.0643 80.3119 49.0548 80.7444 49.286C81.8584 49.8813 82.8011 51.0811 83.7325 51.9406C84.8074 52.9326 85.9434 53.888 86.9708 54.9281C87.5181 55.482 87.9603 56.0281 88.1638 56.7993C88.541 58.229 88.3469 60.4642 88.349 61.9749L88.3571 70.5985C88.4555 72.447 88.4132 74.3248 88.4015 76.1762C90.2615 76.1314 92.1258 76.1436 93.9865 76.132C94.9025 76.1265 95.8385 76.1622 96.7501 76.0855L105.283 76.1085C107.09 76.1137 109.176 75.936 110.937 76.3371C111.701 76.5111 112.488 76.9794 113.025 77.544C113.49 78.0327 113.869 78.6864 114.045 79.3383C114.47 80.9121 114.389 85.7365 114.317 87.5225L114.335 90.9149L114.335 109.641C113.606 109.326 112.898 108.866 112.199 108.482L107.806 106.076C107.027 105.801 106.25 105.283 105.525 104.879C103.765 103.898 101.98 102.795 100.146 101.969C98.0928 100.874 96.0399 99.731 94.0329 98.552C92.9786 97.9329 91.9628 97.2241 90.8831 96.6537C89.9542 96.1631 88.9676 95.8183 88.0182 95.3763C86.9495 94.9383 85.9043 94.1826 84.8923 93.602C83.1036 92.5759 81.2493 91.6114 79.5138 90.4997C78.4199 91.2854 77.2039 91.9141 76.0504 92.6081C74.2807 93.6725 72.5294 94.7922 70.7096 95.7688C69.9629 96.3473 68.9991 96.7816 68.1724 97.2424L63.1374 100.03L46.6258 109.128C45.8932 109.485 45.1955 109.994 44.4564 110.312C44.4419 105.815 44.2819 101.258 44.4546 96.7667C44.3563 93.9164 44.4345 91.0377 44.4382 88.1853C44.4407 86.2526 44.3024 84.187 44.5368 82.2706C44.5345 82.2219 44.531 82.1734 44.5297 82.1249C44.4904 80.623 45.4343 78.8201 46.4677 77.785C46.5821 77.6705 46.7002 77.5598 46.8219 77.4531C46.9438 77.3464 47.0689 77.2438 47.1973 77.1454C47.3258 77.0468 47.4573 76.9527 47.5918 76.863C47.7265 76.7731 47.8639 76.6878 48.0041 76.6071C48.1443 76.5263 48.287 76.4502 48.4323 76.3789C48.5774 76.3076 48.7247 76.2411 48.8743 76.1795C49.0238 76.1179 49.1751 76.0612 49.3284 76.0095C49.4816 75.9578 49.6364 75.9113 49.7927 75.8699C51.7568 75.367 54.1408 75.6033 56.1639 75.6365C57.7879 75.6631 59.412 75.6744 61.0362 75.6704C63.9849 75.9778 67.4742 75.6899 70.5337 75.8468L70.5279 64.2779C70.5269 62.2909 70.4274 60.2481 70.5406 58.2657C70.5613 57.9021 70.6016 57.5068 70.7452 57.1695C70.946 56.6985 71.3004 56.2693 71.6447 55.8947C72.7401 54.7025 74.0687 53.6655 75.2582 52.5648C76.3162 51.5853 77.3226 50.4702 78.4699 49.6003C78.7802 49.3649 79.0898 49.2014 79.4536 49.0625Z" fill="#DAAD6A"/>
<path d="M66.2461 85.3125C66.5803 85.3482 66.8722 85.3837 67.1869 85.4907C67.2073 85.6861 66.7074 85.8686 66.5925 86.0657C66.5564 86.1275 66.5238 86.1909 66.4823 86.25C66.4017 86.161 66.3495 86.1117 66.2337 86.0543C66.2034 86.0393 66.1716 86.0264 66.1406 86.0124L66.0921 86.0089L65.9546 86.1653C65.8589 86.0494 65.8116 85.9605 65.7659 85.8237L65.8802 85.7075C65.7895 85.6178 65.8338 85.6506 65.7134 85.5796C65.6843 85.5623 65.6545 85.5458 65.625 85.5288L65.6465 85.437C65.7703 85.4986 65.8428 85.5235 65.9857 85.5574L66.2461 85.3125Z" fill="#C37F9F"/>
<path d="M88.4626 70.7812C88.5412 72.6059 88.5074 74.4594 88.4981 76.2869L88.6348 81.0986C88.7205 81.1661 88.8033 81.2714 88.9063 81.2641C88.8962 81.3055 88.8857 81.3468 88.8761 81.3883C88.8476 81.5116 88.83 81.6212 88.8173 81.7474C88.7398 82.1622 88.6091 82.5781 88.583 83.0039C88.5032 84.3137 88.7815 86.3068 88.5189 87.5C88.3839 85.2055 88.4757 82.857 88.4718 80.554C88.4662 77.2984 88.4037 74.0363 88.4626 70.7812Z" fill="#A472B9"/>
<path d="M70.7812 83.2812L70.7773 85.2703C70.7664 85.2737 70.755 85.2756 70.7449 85.2803C70.6364 85.33 70.5197 85.4081 70.406 85.4443C70.1575 85.5236 69.4042 85.3966 69.1953 85.2556C68.9949 85.1202 68.9635 85.0352 68.9062 84.8321C69.0643 84.8277 69.1796 84.8114 69.3289 84.765C69.4019 84.6096 69.3707 84.5651 69.3456 84.4029L69.1061 84.3069L69.2167 84.0927L69.3115 84.0848L69.5429 84.2266L69.5101 84.1969L69.7693 84.2798C69.839 84.1336 69.6348 84.0243 69.7342 83.8141L70.1828 83.8023C70.2326 83.6941 70.2711 83.638 70.3484 83.547C70.4181 83.7204 70.3837 83.7524 70.5756 83.8413L70.6486 83.7736C70.6258 83.6526 70.6022 83.5323 70.5876 83.4103C70.5848 83.3877 70.5828 83.3649 70.5803 83.3422L70.7812 83.2812Z" fill="#C37F9F"/>
<path d="M60.3125 83.3493C61.2204 83.0716 61.4858 83.4119 62.3372 83.4441L62.3661 83.138L62.7264 82.9688L62.8234 83.0105C62.8253 83.1728 62.8318 83.3231 62.8593 83.4832C63.0029 83.3441 63.1479 83.2063 63.2941 83.0697C63.425 83.1336 63.5349 83.189 63.6801 83.2152C63.8296 83.242 63.9512 83.1055 64.0721 83.0219C64.2479 83.1923 64.4473 83.3449 64.5242 83.5838C64.4511 83.7084 64.3995 83.7316 64.2793 83.8064C64.3428 83.9948 64.3929 84.0365 64.5312 84.1722C64.3481 84.3395 63.8129 84.3544 63.539 84.4074C63.5068 84.4136 63.4741 84.4169 63.4418 84.4216C63.3169 84.2072 63.3159 84.1235 63.0733 84.0437L62.8267 84.1248L62.8351 84.2219L63.0881 84.4046L63.0814 84.5225C62.8598 84.6152 62.6574 84.577 62.4431 84.6875L62.3571 84.5768C62.4164 84.3683 62.5057 84.4375 62.5445 84.3323C62.5619 84.285 62.5386 84.0317 62.577 83.9089L62.4505 83.8867C62.3132 84.1043 62.2624 84.26 62.0251 84.3699C61.7759 84.323 61.6904 84.233 61.5106 84.0679L61.1748 84.0285C61.2477 83.8595 61.3809 83.7504 61.5084 83.6199L61.4529 83.5179L61.5511 83.541L61.5462 83.4473L61.4179 83.3591C61.1181 83.4589 61.0987 83.7154 60.7886 83.7529C60.5655 83.6407 60.4355 83.5797 60.3125 83.3493Z" fill="#9766AD"/>
<path d="M63.2322 81.5332L63.3684 81.8271C63.3744 81.7666 63.3873 81.6519 63.3841 81.5948C63.3747 81.4256 63.3501 81.2952 63.364 81.1179L63.4872 81.0938L63.6154 81.2002L63.6277 81.5534L63.7022 81.5819L63.9836 81.3412C64.1626 81.3243 64.2394 81.3111 64.404 81.3879C64.9675 81.6509 66.051 81.303 66.4926 81.5925C66.6096 81.5524 66.702 81.5163 66.8108 81.4564L66.894 81.5817C66.9842 81.7148 67.0787 81.8019 67.2083 81.9006C67.3192 82.1805 67.3095 82.4953 67.3241 82.7926C67.5227 82.7848 67.4833 82.7545 67.6562 82.8894C67.6022 82.9263 67.5513 82.9694 67.4908 82.9949C67.0917 82.8739 67.1541 83.1192 66.6015 82.9623C66.5488 82.9426 66.489 82.9551 66.4326 82.9542C66.4083 83.1551 66.4331 83.263 66.2877 83.4173C65.8586 83.3231 65.6875 83.0008 65.4045 82.7022C65.2176 82.5051 65.0944 82.4081 64.8184 82.3978L64.4621 82.83C64.4638 82.7275 64.4533 82.776 64.5104 82.6622C64.5255 82.6322 64.5416 82.6026 64.5573 82.5728L64.3728 82.4107C64.3728 82.2776 64.3587 82.3296 64.4173 82.2048C64.4312 82.175 64.4468 82.1459 64.4618 82.1164C64.2646 82.0763 64.272 82.0821 64.0959 82.1801C64.0458 82.3198 64.0119 82.4069 64.0371 82.5575C64.06 82.6948 64.0931 82.8335 64.1191 82.9705C63.9941 83.0551 63.8684 83.1933 63.7138 83.1662C63.5636 83.1397 63.45 83.0836 63.3146 83.0189C63.1634 83.1571 63.0135 83.2967 62.8649 83.4375C62.8365 83.2754 62.8297 83.1233 62.8279 82.959L62.7275 82.9167L62.3549 83.0881L62.325 83.3979C61.4445 83.3653 61.1702 83.0209 60.2312 83.3019L60.0369 83.2789C59.9523 83.1582 59.8599 83.0603 59.755 82.9561C59.6567 82.9474 59.6101 82.9381 59.5048 82.9556C59.3162 82.9874 59.1197 83.1011 59.0196 83.2586C58.9906 83.3042 58.9685 83.3537 58.9428 83.4012L58.783 83.2072C58.583 83.1693 58.5022 83.2364 58.3141 83.3004C58.0411 83.3935 57.9691 83.4052 57.7173 83.2875L57.4589 83.3855C57.5021 83.271 57.5282 83.1801 57.552 83.0624C57.3711 82.9515 57.4567 82.9583 57.2539 83.0073C57.227 83.0137 57.2009 83.023 57.1744 83.0308L57.0169 82.4756L57.1193 82.2977C57.0018 82.1103 56.3535 82.1546 56.0938 82.0282L56.1879 81.9006C56.3768 81.8928 56.5563 81.93 56.7425 81.9585C56.9087 81.909 56.9751 81.8607 57.0818 81.7325C57.1771 81.6185 57.1732 81.6092 57.3223 81.5513L57.3847 81.6435L57.306 81.7665C57.3619 81.8228 57.3752 81.842 57.4543 81.8863C57.7883 82.0734 58.2349 82.2104 58.5998 82.1252L59.0381 82.1184L59.1411 82.2223L59.1236 82.2967C59.2998 82.3963 59.4265 82.5044 59.5722 82.6413L59.6388 82.7045C60.1925 82.705 60.2975 82.3038 60.7342 82.0952C60.9218 82.2455 60.9352 82.389 61.0054 82.6095C61.1388 82.4947 61.2708 82.3785 61.4015 82.2607L61.8101 82.3455L61.4207 82.1303C61.9382 81.5935 62.2027 82.1983 62.7874 82.0119L62.722 81.7857L62.7975 81.6931C62.9886 81.6829 63.0737 81.6349 63.2322 81.5332Z" fill="#8E57A5"/>
<path d="M44.5397 82.281C44.5373 82.2328 44.5338 82.1848 44.5324 82.1367C44.4928 80.6487 45.4453 78.8626 46.488 77.8371C46.6035 77.7236 46.7226 77.614 46.8454 77.5083C46.9684 77.4025 47.0946 77.3009 47.2242 77.2034C47.3538 77.1058 47.4865 77.0125 47.6223 76.9236C47.7581 76.8346 47.8968 76.7501 48.0383 76.6701C48.1798 76.5901 48.3238 76.5147 48.4703 76.444C48.6167 76.3734 48.7654 76.3076 48.9164 76.2465C49.0672 76.1854 49.2199 76.1293 49.3745 76.0781C49.5292 76.0269 49.6853 75.9808 49.843 75.9398C51.8248 75.4416 54.2305 75.6756 56.2719 75.7086C57.9105 75.7349 59.5492 75.7461 61.1882 75.7421C64.1635 76.0467 67.6843 75.7614 70.7715 75.9169L70.7748 77.7089L70.7758 80.3889L70.7812 82.0676L70.7728 83.3124L70.5856 83.3751C70.5879 83.3985 70.5898 83.4219 70.5923 83.4452C70.606 83.5707 70.6279 83.6944 70.6492 83.8189L70.5812 83.8886C70.4024 83.7972 70.4344 83.7642 70.3695 83.5859C70.2974 83.6794 70.2615 83.7371 70.2151 83.8485L69.7971 83.8607C69.7045 84.0769 69.8947 84.1893 69.8298 84.3398L69.5882 84.2545L69.6188 84.2851L69.4032 84.1391L69.3148 84.1473C69.0973 84.0505 68.847 83.9675 68.6052 83.9697C68.3151 83.9725 68.1762 84.1612 67.9787 84.3399C67.6874 84.2688 67.8075 84.0969 67.5549 83.9549C67.3103 84.0015 67.1307 84.047 66.9119 84.175L66.9441 84.375L66.8349 84.3087C66.7153 83.9187 66.5392 83.45 66.6912 83.0557C67.24 83.2133 67.1781 82.9669 67.5743 83.0885C67.6344 83.0629 67.685 83.0196 67.7386 82.9826C67.5669 82.8471 67.606 82.8775 67.4088 82.8853C67.3943 82.5868 67.4039 82.2706 67.2938 81.9895C67.1651 81.8904 67.0713 81.8029 66.9817 81.6693L66.899 81.5434C66.7911 81.6036 66.6993 81.6398 66.5831 81.6801C66.1446 81.3893 65.0687 81.7388 64.5091 81.4746C64.3457 81.3975 64.2694 81.4108 64.0916 81.4277L63.8122 81.6694L63.7382 81.6408L63.726 81.2861L63.5987 81.1792L63.4764 81.2035C63.4625 81.3815 63.487 81.5125 63.4963 81.6824C63.4995 81.7398 63.4867 81.855 63.4807 81.9156L63.3455 81.6206C63.1881 81.7226 63.1035 81.7709 62.9138 81.7812L62.8389 81.8741L62.9038 82.1013C62.3232 82.2885 62.0605 81.6811 61.5466 82.2202L61.9333 82.4363L61.5276 82.3512C61.3978 82.4694 61.2667 82.5862 61.1342 82.7015C61.0645 82.48 61.0512 82.3359 60.8649 82.1849C60.4312 82.3944 60.327 82.7974 59.7772 82.7969L59.7111 82.7334C59.5663 82.5959 59.4405 82.4873 59.2655 82.3873L59.2829 82.3126L59.1807 82.2082L58.7454 82.215C58.3831 82.3007 57.9396 82.163 57.6079 81.9752C57.5293 81.9306 57.5162 81.9113 57.4607 81.8548L57.5388 81.7313L57.4768 81.6387C57.3287 81.6969 57.3326 81.7062 57.238 81.8207C57.132 81.9494 57.0661 81.9979 56.9011 82.0476C56.7162 82.019 56.5379 81.9816 56.3503 81.9895L56.2568 82.1176C56.5148 82.2446 57.1585 82.2001 57.2753 82.3883L57.1735 82.567L57.1037 82.6998C57.0406 82.8212 56.9922 82.9382 56.9503 83.0684C56.9099 83.061 56.8697 83.0511 56.8287 83.0462C56.6528 83.0256 56.5821 83.0599 56.4279 83.1319C56.205 83.0206 56.107 82.761 55.8751 82.7209L55.8962 82.892L55.8597 82.824L55.7798 83.0502L55.6106 83.1081C55.3396 82.9608 55.2011 82.7129 54.8953 82.6996C54.7553 82.895 54.7311 83.007 54.4899 83.0647C54.3347 82.9782 54.2353 82.8868 54.1134 82.759L53.885 82.7422C53.7713 82.9485 53.7077 82.8986 53.4914 82.9038C52.7782 82.9211 52.0517 82.8818 51.342 82.9237C50.6718 82.9631 50.01 83.0883 49.3401 83.1265C47.7572 83.2168 46.1565 83.124 44.6232 83.598C44.6259 83.1525 44.647 82.7169 44.5397 82.281Z" fill="#6A41A0"/>
<path d="M63.4576 80.3297L63.481 80.17L63.4375 80.1894L63.5166 79.9057C63.6354 79.849 63.6763 79.8462 63.8047 79.8409L64.081 79.638C63.9891 79.4948 63.9458 79.4826 63.9619 79.3094L64.1548 79.2188C64.2916 79.354 64.3393 79.4961 64.4623 79.6366C64.5576 79.7456 64.5734 79.8421 64.6069 79.9767C64.6933 79.9423 64.7553 79.9364 64.8104 79.8623C65.0464 79.895 65.1929 79.9992 65.3315 80.1856C65.4317 80.32 65.4721 80.3607 65.4685 80.5292L65.3488 80.625C65.2573 80.5886 65.1396 80.5138 65.0544 80.4866C64.8643 80.4256 64.5236 80.4663 64.3053 80.4395C64.1202 80.4168 64.0258 80.4603 63.8519 80.4684C63.7896 80.4713 63.7233 80.4522 63.6634 80.4378L63.4576 80.3297Z" fill="#8650B1"/>
<path d="M61.0938 80.46L61.3115 80.481L61.3126 80.3628C61.3167 80.1131 61.2962 79.8731 61.4509 79.6495C61.9144 79.6871 61.9602 80.1553 62.5015 80.0074C62.4217 79.8234 62.287 79.7015 62.1355 79.5552C62.3209 79.5548 62.392 79.5756 62.5602 79.6295L62.8402 79.5312C62.8768 79.5651 62.9129 79.5994 62.9501 79.6331C63.0628 79.7348 63.1406 79.7759 63.3045 79.8156C63.4349 79.9695 63.4594 79.9612 63.421 80.1425C63.2427 80.2122 63.2738 80.2368 63.0733 80.1801L62.9437 79.9296L62.855 79.9509L62.8452 80.0251C62.8158 80.2297 62.7917 80.3543 62.6416 80.528L62.6982 80.5951C62.4118 80.7295 62.013 80.8262 61.6822 80.7597C61.4484 80.7128 61.2292 80.6259 61.0938 80.46Z" fill="#8650B1"/>
<path d="M58.8785 81.7887L58.9293 81.8823L59.2952 81.9453L59.3418 81.9138L59.2752 81.76L59.2021 81.7329C58.953 81.6385 58.7241 81.5484 58.5938 81.321C58.6202 81.1808 58.6001 81.1915 58.717 81.0793C58.8119 80.9883 58.8783 80.8993 58.9457 80.7895C59.1842 80.7517 59.366 80.8487 59.5629 80.976C59.9379 81.2184 60.243 81.5672 60.4687 81.9286L60.4596 82.0723C60.3038 82.1673 60.2959 82.1888 60.112 82.1759C60.1042 82.1507 60.0968 82.1255 60.0888 82.1004C60.061 82.014 60.0285 81.9321 59.9926 81.8482L59.8461 81.815C59.7953 81.7085 59.7877 81.6875 59.7955 81.5657L59.6507 81.5829C59.7732 81.491 59.7116 81.5063 59.8184 81.498L59.7178 81.5956L59.6879 81.884L59.9031 82.0441L59.8381 82.1778C59.5962 82.225 59.4383 82.0817 59.2315 82.13L59.1377 82.0416L58.7382 82.0474L58.8785 81.7887Z" fill="#8650B1"/>
<path d="M62.7464 80.6158C62.9647 80.5658 63.1481 80.5207 63.3699 80.5824C63.4163 80.5953 63.4621 80.6096 63.5082 80.6232L63.5759 80.5702C63.5056 80.4659 63.5163 80.5101 63.5093 80.393C63.5075 80.3663 63.5082 80.3394 63.5075 80.3125L63.7276 80.4177C63.8659 80.5794 63.9957 80.571 64.0994 80.7554C64.036 80.7262 63.9732 80.6963 63.9086 80.669L64.2188 80.9791L64.1321 81.0432C63.883 81.0256 63.6362 81.0007 63.3882 80.9731C63.202 81.1168 63.2015 81.1858 63.1349 81.3887C63.1759 81.4258 63.212 81.4695 63.2634 81.4955C63.1027 81.5867 63.0164 81.6297 62.8227 81.639L62.7462 81.722L62.8125 81.925C62.2198 82.0923 61.9517 81.5495 61.4271 82.0312C61.3018 82.0027 61.1661 82.005 61.0369 81.9977C60.8008 81.8297 60.5032 81.692 60.3753 81.4448C60.4957 81.3062 60.5163 81.2936 60.7037 81.2309C61.0651 81.3582 61.0696 81.7428 61.4154 81.8785L61.5017 81.7553L61.4395 81.6335C61.3856 81.6216 61.288 81.6027 61.2411 81.58C61.1051 81.5142 61.1063 81.4637 61.0856 81.3365L61.392 81.2667L61.5046 81.0341C61.3722 81.0876 61.2442 81.1531 61.0925 81.1439C60.8571 81.1296 60.3104 81.0469 60.1562 80.8931L60.3548 80.7139C60.8907 80.836 60.738 80.5978 61.1922 80.4777C61.3235 80.6473 61.5358 80.7361 61.7622 80.7841C62.0827 80.8521 62.469 80.7532 62.7464 80.6158Z" fill="#8650B1"/>
<path d="M53.8665 82.7482C53.7959 82.5803 53.7266 82.4898 53.7576 82.3065L53.9113 82.2939C54.1494 82.4475 54.3527 82.6139 54.651 82.6288C54.8314 82.5378 54.8274 82.5764 54.9099 82.381C54.8007 82.1918 54.5506 82.1796 54.3376 82.1161L54.3586 82.0487C54.7126 82.0045 55.0657 81.9544 55.4179 81.8986C55.476 81.753 55.467 81.8211 55.4492 81.6468C55.4447 81.6027 55.438 81.559 55.4324 81.5153C55.7187 81.5297 55.9368 81.8308 56.2495 81.8703C56.3457 81.743 56.4386 81.5935 56.5748 81.5021C56.6587 81.4457 56.7291 81.4908 56.8224 81.5104C56.9245 81.6553 56.9657 81.7358 57.1285 81.8236C57.1495 81.7144 57.1602 81.6582 57.2374 81.5696C57.3293 81.464 57.4843 81.4949 57.6213 81.4834C57.6101 81.2838 57.2767 81.1123 57.139 80.937C57.3281 80.8969 57.4582 80.9069 57.5887 80.7642L57.3087 80.5628L57.3637 80.4688C58.0878 80.6346 57.7799 81.3463 58.2918 81.7033C58.4618 81.8218 58.6714 81.7524 58.9062 81.9431L58.7526 82.2386C58.3883 82.3213 57.9425 82.1883 57.6091 82.0066C57.5301 81.9636 57.5168 81.9449 57.461 81.8903L57.5396 81.7708L57.4773 81.6813C57.3284 81.7376 57.3323 81.7466 57.2372 81.8573C57.1307 81.9817 57.0644 82.0286 56.8985 82.0767C56.7127 82.0491 56.5334 82.0129 56.3448 82.0205L56.2509 82.1444C56.5102 82.2672 57.1573 82.2241 57.2747 82.406L57.1724 82.5788L57.1022 82.7073C57.0388 82.8246 56.9901 82.9377 56.948 83.0636C56.9073 83.0565 56.867 83.0469 56.8258 83.0422C56.6489 83.0223 56.5778 83.0554 56.4228 83.125C56.1988 83.0175 56.1003 82.7664 55.8671 82.7277L55.8883 82.8931L55.8517 82.8273L55.7713 83.0461L55.6012 83.102C55.3288 82.9596 55.1896 82.72 54.8821 82.7071C54.7414 82.896 54.7171 83.0043 54.4746 83.0601C54.3186 82.9765 54.2187 82.8881 54.0961 82.7645L53.8665 82.7482Z" fill="#8650B1"/>
<path d="M66.2372 80.3909L66.0013 80.2477L65.9829 80.0786C66.1302 79.8562 66.2162 79.8009 66.4538 79.6911C66.4243 79.8271 66.4187 79.9499 66.418 80.0888C66.7253 80.0914 67.0479 79.9406 67.3353 79.8389C67.3489 79.7435 67.362 79.6864 67.3513 79.5855C67.3288 79.3733 67.2077 79.2638 67.0427 79.1459C66.8958 79.1619 66.753 79.1751 66.6051 79.1771L66.4775 79.049L66.4997 78.9125L66.6481 78.8395L66.8085 79.0114C67.0089 78.9292 67.1757 78.8521 67.3563 78.7324L67.1677 78.785L67.306 78.6312C67.1966 78.4666 67.2055 78.5487 67.2386 78.3923C67.4538 78.5014 67.5127 78.5883 67.7598 78.5267C67.7435 78.383 67.6875 78.1265 67.7225 77.985C67.776 77.7694 67.8617 77.7491 68.0481 77.6562C68.3026 77.6714 68.3029 77.691 68.4945 77.8578L68.4655 77.9704L68.0136 77.9972L68.1916 77.996L68.0886 78.1526L68.1413 78.144C68.5082 78.4275 68.9662 78.6069 69.3886 78.803C69.6244 78.5931 69.5992 78.2211 69.8581 78.0817C69.9879 78.3551 69.9959 78.3449 70.2806 78.4752L70.2748 78.5798C69.9628 78.79 69.7982 78.9302 69.6557 79.2739C69.6852 79.258 69.7148 79.2426 69.744 79.2263C69.9498 79.1103 70.1075 78.9949 70.3568 79.0038C70.5898 79.0119 70.4567 79.0281 70.6715 78.9791C70.766 78.6975 70.6478 78.285 70.555 78.001C70.5384 77.9497 70.5163 77.9003 70.4969 77.85L70.7747 77.7L70.7757 80.3836L70.7813 82.0645L70.7726 83.311L70.5801 83.3737C70.5826 83.3972 70.5845 83.4207 70.5871 83.444C70.6011 83.5697 70.6237 83.6935 70.6455 83.8182L70.5756 83.8879C70.3919 83.7964 70.4248 83.7634 70.3581 83.5848C70.284 83.6785 70.2471 83.7363 70.1994 83.8478L69.7698 83.86C69.6746 84.0765 69.8702 84.1891 69.8034 84.3397L69.5552 84.2543L69.5866 84.2849L69.365 84.1388L69.2741 84.1469C69.0507 84.0501 68.7934 83.967 68.5449 83.9692C68.2467 83.972 68.1041 84.1609 67.901 84.3399C67.6016 84.2686 67.7251 84.0965 67.4655 83.9544C67.2142 84.001 67.0295 84.0466 66.8047 84.1747L66.8378 84.375L66.7256 84.3086C66.6027 83.9181 66.4217 83.4488 66.5779 83.054C67.1419 83.2118 67.0782 82.9651 67.4855 83.0867C67.5472 83.0611 67.5992 83.0178 67.6543 82.9807C67.4779 82.845 67.5181 82.8755 67.3154 82.8833C67.3005 82.5844 67.3104 82.2678 67.1972 81.9863C67.0649 81.8871 66.9685 81.7995 66.8764 81.6657L66.7915 81.5396C66.6805 81.5999 66.5862 81.6362 66.4668 81.6765C66.0162 81.3853 64.9104 81.7352 64.3353 81.4707C64.1673 81.3935 64.089 81.4068 63.9062 81.4238L64.2448 81.2497C64.2559 81.1425 64.2561 81.0707 64.2318 80.9634C64.2249 80.9327 64.2161 80.9024 64.2083 80.872L64.3504 80.7701L64.7365 80.8548C64.9772 80.7478 65.2493 80.5723 65.52 80.6264L65.6635 80.9544L65.7866 80.9291L65.718 80.6967L65.8726 80.548L65.9543 80.6519L66.2372 80.3909Z" fill="#8650B1"/>
<path d="M68.0369 78.9062C68.2598 78.9104 68.3865 78.9247 68.5708 79.0534C68.62 79.2714 68.5853 79.3254 68.5124 79.5312C68.3028 79.5246 68.1816 79.5265 68.0093 79.3929C67.9358 79.1881 67.9727 79.1041 68.0369 78.9062Z" fill="white"/>
<path d="M70.5538 83.2812C70.4677 83.1765 70.5212 83.2223 70.354 83.1391C70.3087 83.1165 70.2626 83.0952 70.2169 83.0733C70.0839 82.8849 70.0335 82.764 70 82.5437L70.1637 82.4712C70.23 82.3202 70.2404 82.2328 70.2083 82.0761C70.1979 82.0252 70.1861 81.9746 70.1749 81.9239C70.3834 81.8342 70.5557 81.8907 70.7812 81.9147L70.7714 83.2158L70.5538 83.2812Z" fill="#9766AD"/>
<path d="M66.6207 82.9712C67.1621 83.1389 67.101 82.8767 67.492 83.006L67.613 83.1493L67.731 83.1311C68.5855 83.0064 69.1588 83.5155 70.0073 83.2838L70.1344 83.342L70.1562 83.5562C69.9104 83.7023 69.6493 83.6393 69.3949 83.7578C69.1025 83.6742 68.4138 83.5571 68.2491 83.2841C68.2452 83.5038 68.1954 83.6982 68.3172 83.8813C68.3655 83.868 68.4136 83.8541 68.462 83.8411C68.8027 83.7511 68.9146 83.792 69.2143 83.9715L69.2964 84.124L69.2092 84.1327C68.9946 84.0297 68.7476 83.9414 68.5091 83.9437C68.2228 83.9467 68.0859 84.1475 67.891 84.3377C67.6035 84.262 67.722 84.0791 67.4729 83.928C67.2315 83.9775 67.0542 84.026 66.8384 84.1622L66.8702 84.375L66.7625 84.3044C66.6445 83.8894 66.4707 83.3908 66.6207 82.9712Z" fill="#9766AD"/>
<path d="M70.6724 75.8977L70.6666 64.3068C70.6656 62.316 70.5656 60.2693 70.6793 58.2832C70.7002 57.9189 70.7407 57.5228 70.885 57.1849C71.0867 56.713 71.4428 56.283 71.7887 55.9077C72.8894 54.7132 74.2244 53.6743 75.4196 52.5714C76.4827 51.5901 77.4939 50.4728 78.6467 49.6013C78.9585 49.3654 79.2696 49.2017 79.6351 49.0625L79.6565 76.1458L79.6533 84.7828C79.6524 86.1853 79.7393 87.6541 79.6395 89.05C78.366 89.7467 77.1722 90.6876 75.9863 91.5263C74.2511 92.7534 72.4783 93.9494 70.846 95.3125C70.5717 94.5978 70.7675 91.7232 70.7363 90.7411C70.7305 88.976 70.7084 87.211 70.6701 85.4462L70.6738 83.3767L70.6822 82.1178L70.6768 80.4202L70.6758 77.71L70.6724 75.8977Z" fill="white"/>
<path d="M96.7745 76.1056L105.295 76.1286C107.1 76.1338 109.183 75.9558 110.941 76.3576C111.705 76.5319 112.491 77.001 113.027 77.5666C113.491 78.0561 113.869 78.7109 114.045 79.364C114.47 80.9405 114.389 85.7731 114.317 87.5622L114.335 90.9605L114.198 90.8653C114.063 91.2676 114.179 94.814 114.167 95.595C114.157 96.1967 113.846 96.6887 113.813 97.2866C113.782 97.8689 113.821 98.456 113.796 99.0394C113.762 99.8286 113.656 100.614 113.635 101.404C113.599 102.789 113.887 107.696 112.534 108.343C112.458 108.379 112.379 108.408 112.301 108.438C112.159 108.296 112.008 108.16 111.906 107.985C111.563 107.398 110.862 106.543 110.885 105.846C110.891 105.658 110.93 105.734 110.836 105.626L110.584 105.902C110.6 105.295 110.915 104.657 111.1 104.083C111.558 102.665 111.554 100.896 111.165 99.4662C110.97 98.7468 111.081 98.0672 110.969 97.3493C110.831 96.4683 109.873 94.8848 109.373 94.0983C109.102 93.6717 108.758 93.2653 108.335 92.9839C106.068 91.4751 100.7 90.5604 97.9492 90.3332C95.5865 90.1378 93.177 90.2969 90.8325 90.052C90.0848 89.9738 89.3432 89.7948 88.6091 89.6353C88.5969 89.5684 88.5861 89.5011 88.5726 89.4344C88.447 88.817 88.4303 88.2042 88.4635 87.5757C88.7919 86.3648 88.4439 84.3422 88.5437 83.013C88.5762 82.5808 88.7397 82.1587 88.8367 81.7379C88.8525 81.6098 88.8746 81.4985 88.9101 81.3734C88.9222 81.3313 88.9354 81.2894 88.9479 81.2474C88.8192 81.2548 88.7157 81.1479 88.6085 81.0795L88.4375 76.1964C90.2949 76.1515 92.1566 76.1638 94.0148 76.1522C94.9295 76.1466 95.8641 76.1824 96.7745 76.1056Z" fill="#C37F9F"/>
<path d="M97.6747 80.9375C97.9861 81.0659 98.0229 81.1503 98.2079 81.3912L98.3728 81.4105C98.5482 81.2851 98.7627 81.1222 98.9789 81.0532C99.1654 80.9936 99.2885 80.9983 99.4701 81.0657C99.4367 81.3534 99.1597 81.3797 99.0565 81.6303C99.2952 81.7199 99.3572 81.5035 99.6875 81.7131C99.5609 81.8838 99.4907 81.9457 99.2753 82.0312C98.9571 82.0204 98.4756 82.054 98.1902 81.9386C98.0429 81.8789 97.9948 81.6786 97.9582 81.5559C97.9016 81.3667 97.5396 81.3058 97.3438 81.1748L97.6747 80.9375Z" fill="#9766AD"/>
<path d="M94.345 80.1943L94.4247 80.2559L94.5275 80.1562C94.6964 80.2551 94.7054 80.222 94.7734 80.4149C94.5403 80.5668 94.4033 80.6107 94.2945 80.8654L94.3547 80.9429C94.4771 80.8721 94.5908 80.8105 94.698 80.719L94.8438 80.7312C94.7914 80.901 94.7628 81.0201 94.6305 81.1479L94.699 81.1457L94.7872 81.3001L94.7428 81.4031C94.6273 81.6769 94.5544 81.8719 94.5569 82.1678L94.4813 82.2728L94.308 82.1969C94.137 82.2723 94.016 82.326 93.8882 82.4608L93.9281 82.544C94.036 82.7725 94.1016 82.9412 94.1204 83.1916C93.7554 83.343 93.4533 83.0048 93.0567 83.1092C92.9433 83.4082 93.1404 83.661 92.9509 83.9062C92.7546 83.8455 92.7284 83.8347 92.5952 83.6847C92.6587 83.4766 92.6597 83.5198 92.8389 83.4173C92.5665 83.3302 92.29 83.5243 92.1717 83.3448C92.3408 83.1653 92.4916 83.3325 92.667 83.0775C92.6459 82.8354 92.6372 82.7873 92.7457 82.5714L92.69 82.5313L92.7384 82.5882L92.4914 82.4506C92.4278 82.7178 92.4269 82.8682 92.2289 83.0703C92.0048 83.0184 91.8271 82.8918 91.6355 82.7739C91.4274 82.9069 91.3038 83.0573 91.0491 83.0207L90.8234 82.7762C90.619 82.9164 90.7918 83.0043 90.5054 83.0487L90.3697 82.9747L90.3254 82.765C90.1558 82.8955 90.2545 82.8081 90.12 82.9534C90.0271 83.0538 89.9595 83.1003 89.8393 83.164C89.8225 83.3421 89.8128 83.5125 89.7586 83.6845L89.6323 83.583C89.6185 83.3604 89.6385 83.1773 89.6736 82.9587L89.375 82.6444C89.4979 82.2438 89.9515 82.4579 89.7809 81.8815C89.6563 81.8353 89.537 81.7934 89.4087 81.7579L89.4113 81.6195L89.6145 81.5422C89.7962 81.6137 89.8102 81.6393 89.9246 81.7954L90.0081 81.7799L90.0973 81.5134L90.0427 81.6004L90.103 81.3836C90.143 81.3281 90.1637 81.2619 90.1905 81.1995L90.0925 81.1273C90.0532 80.9909 90.1172 80.8716 90.1535 80.7365L90.3251 80.658L90.5042 80.8288C90.6166 81.1727 90.7138 81.361 91.0624 81.5189C91.2509 81.6042 91.4048 81.6152 91.6045 81.5744L91.6848 81.4791C91.8025 81.3865 91.899 81.3352 92.042 81.2896C92.2379 81.2271 92.3995 81.2637 92.579 81.3582C92.7334 81.4394 92.8172 81.5007 92.9978 81.5077L93.1301 81.35L93.0528 81.1429C93.233 80.9256 93.4626 80.7633 93.6858 80.5894C93.5496 80.4153 93.6068 80.5088 93.5145 80.309L93.616 80.2271L93.9302 80.3862L94.345 80.1943Z" fill="#A472B9"/>
<path d="M91.366 79.5225C91.4862 79.4273 91.6051 79.3344 91.7115 79.2252C91.8315 79.1006 91.9525 78.9768 92.0746 78.8541L92.3287 78.9992C92.4698 78.8793 92.1504 78.7533 92.1707 78.5346C92.4356 78.3815 92.4604 78.5816 92.7579 78.5074C92.7705 78.3738 92.7892 78.2595 92.8316 78.1314L93.008 78.125L93.1067 78.2439C93.129 78.5766 92.9297 78.8625 92.7778 79.1539L92.7655 79.2368C93.0385 79.2947 93.167 79.3574 93.4341 79.267C93.4907 79.1249 93.5269 79.059 93.6459 78.9499C93.6783 78.9203 93.713 78.8933 93.7464 78.8651L93.7186 78.7587C93.5174 78.9216 93.247 79.15 92.9709 79.1467L92.975 78.9729C93.0941 78.7514 93.1602 78.6341 93.4032 78.5093C93.6456 78.5272 93.6688 78.5581 93.8622 78.7019C93.9178 78.867 93.9708 78.9814 93.9429 79.1568C93.9378 79.1892 93.9267 79.2208 93.9187 79.2528C94.2362 79.2625 94.646 79.2281 94.9314 79.368L95.0165 79.4104C95.3082 79.2382 95.1764 78.9785 95.2678 78.7224L95.5184 78.6614C95.7692 78.8123 95.8494 78.9848 95.9614 79.2377C96.1962 79.2689 96.4331 79.2864 96.6576 79.3598L96.5824 79.36L96.6936 79.3857C97.006 79.4603 97.4233 79.5375 97.6114 79.8114C97.6858 79.9198 97.6541 80.0541 97.6131 80.1708C97.5845 80.2514 97.4686 80.3696 97.4165 80.4314L97.3179 80.445C97.2692 80.5261 97.2506 80.5642 97.1812 80.6408C97.0284 80.809 96.9089 80.8719 96.6838 80.888C96.4865 80.7979 96.2616 80.7283 96.1397 80.5488C96.2376 80.4266 96.202 80.4592 96.3023 80.37C96.3226 80.352 96.3435 80.3348 96.3643 80.317L96.2116 80.1884L96.1598 80.2485C96.1053 80.3127 96.0631 80.3863 96.0025 80.4453C95.9809 80.4664 95.9499 80.4767 95.9235 80.4924C95.9311 80.7261 95.939 80.9584 95.9332 81.1921L96.0798 81.1894C96.1547 81.0462 96.1654 80.92 96.3295 80.8621C96.4387 81.0122 96.5218 81.1587 96.6035 81.3233C96.8984 81.1482 96.6278 81.1306 97.124 81.0035L97.2559 81.0509C97.2593 81.1984 97.2585 81.3176 97.2324 81.464L96.8752 81.4096C96.7094 81.6886 97.0623 81.7692 96.77 82.0858C96.5747 82.0842 96.5805 82.0962 96.4414 81.97C96.4749 81.8187 96.4346 81.8731 96.5367 81.7921L96.493 81.7513L96.4162 81.8147C96.2425 81.9561 96.1159 82.0769 95.8831 82.121C95.6504 82.0271 95.6385 81.9377 95.5172 81.7345C95.3386 81.8777 95.3705 81.9644 95.3359 82.1724L95.3444 82.1241C95.1915 82.2898 95.1643 82.2889 94.9353 82.3438L94.7667 82.2442C94.708 81.9713 94.6631 81.5315 94.7729 81.2721L94.6729 81.1219L94.5861 80.9734L94.5187 80.9755C94.6489 80.8527 94.677 80.7381 94.7286 80.5747L94.5851 80.5631C94.4795 80.6511 94.3677 80.7103 94.2471 80.7784L94.1879 80.7039C94.295 80.4589 94.4298 80.4167 94.6593 80.2706C94.5924 80.085 94.5836 80.1169 94.4172 80.0218L94.3161 80.1177L94.2376 80.0585L93.8291 80.2429L93.5198 80.09L93.4198 80.1687C93.5108 80.3608 93.4544 80.2709 93.5886 80.4384C93.3688 80.6056 93.1427 80.7618 92.9653 80.9707L93.0414 81.1699L92.9111 81.3216C92.7334 81.3149 92.6508 81.2558 92.4988 81.1777C92.322 81.0869 92.163 81.0517 91.9701 81.1118C91.8293 81.1557 91.7343 81.205 91.6184 81.2941L91.5394 81.3857C91.3427 81.4249 91.1912 81.4144 91.0056 81.3323C90.6624 81.1805 90.5667 80.9994 90.456 80.6687L90.2796 80.5044L90.1107 80.5799C90.075 80.7098 90.012 80.8245 90.0506 80.9557L90.1472 81.0251C90.1208 81.0851 90.1003 81.1488 90.061 81.2022L90.0288 81.1454C90.0013 81.144 89.8613 81.1365 89.837 81.1369C89.8143 81.1374 89.792 81.1419 89.7695 81.1443C89.6323 80.8152 89.5589 80.342 89.5412 79.9885C89.5325 79.8138 89.5162 79.8002 89.6473 79.6675L89.9306 79.7215L89.9759 79.6601C89.7517 79.5014 89.4748 79.5942 89.2188 79.4601L89.2463 79.3822C89.8036 78.9888 90.2374 79.6292 90.8198 79.406C90.8682 79.3875 90.9155 79.3665 90.9634 79.3468C91.1753 79.3761 91.2007 79.3926 91.366 79.5225Z" fill="#8650B1"/>
<path d="M96.7745 76.1055L105.295 76.1284C107.1 76.1336 109.183 75.9566 110.941 76.3561C111.705 76.5295 112.491 76.9961 113.027 77.5586C113.491 78.0454 113.869 78.6967 114.045 79.3462C114.47 80.9141 114.389 85.7206 114.317 87.5C114.164 86.4154 114.122 85.3859 114.125 84.2929C113.488 84.1157 112.881 84.1182 112.263 83.8293C111.489 83.4669 110.837 82.6964 110.057 82.3925C109.383 82.1295 108.539 82.236 107.842 82.0257C107.304 81.8632 106.885 81.3145 106.356 81.1261C105.818 80.9342 105.297 81.0332 104.666 80.76C103.931 81.2824 102.627 80.6968 101.836 80.6154L101.559 80.8953C101.172 81.0203 100.402 81.0442 100.004 80.9489C100.007 80.8092 99.9966 80.7642 99.9498 80.6228C99.7577 80.5449 99.5762 80.4822 99.3712 80.4457C98.994 80.3784 98.7995 80.4252 98.4885 80.6475C98.4669 80.663 98.4459 80.6791 98.4247 80.6948C98.1183 80.6236 98.2015 80.3471 97.8971 80.2466C97.7071 80.3225 97.708 80.3212 97.6095 80.5006L97.3238 80.5609C97.3749 80.4964 97.4886 80.3728 97.5166 80.2886C97.5569 80.1667 97.5879 80.0263 97.515 79.9131C97.3305 79.6269 96.9213 79.5462 96.6149 79.4682L96.5059 79.4413L96.5797 79.4412C96.3595 79.3644 96.1272 79.3462 95.897 79.3136C95.7872 79.0493 95.7085 78.8691 95.4626 78.7115L95.2168 78.7751C95.1272 79.0428 95.2564 79.3141 94.9704 79.494L94.8869 79.4497C94.6071 79.3036 94.2053 79.3395 93.8939 79.3293C93.9017 79.2959 93.9126 79.263 93.9176 79.229C93.945 79.0458 93.8931 78.9263 93.8385 78.7537C93.6488 78.6035 93.6261 78.5712 93.3884 78.5525C93.1501 78.6829 93.0853 78.8054 92.9685 79.0369L92.9645 79.2185C93.2353 79.222 93.5004 78.9833 93.6977 78.8131L93.7249 78.9243C93.6922 78.9537 93.6582 78.9819 93.6264 79.0129C93.5097 79.1269 93.4742 79.1958 93.4187 79.3442C93.1568 79.4387 93.0307 79.3731 92.7631 79.3126L92.7751 79.226C92.9241 78.9216 93.1196 78.6228 93.0977 78.2751L93.0009 78.1509L92.8279 78.1576C92.7863 78.2915 92.768 78.4109 92.7556 78.5505C92.4639 78.628 92.4396 78.4189 92.1798 78.5789C92.1599 78.8074 92.4731 78.9391 92.3347 79.0644L92.0856 78.9127C91.9659 79.041 91.8472 79.1703 91.7295 79.3006C91.6252 79.4146 91.5086 79.5117 91.3908 79.6112C91.2286 79.4754 91.2038 79.4582 90.9959 79.4276C90.949 79.4482 90.9026 79.4701 90.8552 79.4895C90.284 79.7227 89.8586 79.0535 89.3122 79.4646L89.2851 79.546C89.5362 79.6861 89.8077 79.5891 90.0276 79.755L89.9832 79.8191L89.7053 79.7626C89.5768 79.9014 89.5928 79.9156 89.6013 80.0982C89.6187 80.4675 89.6907 80.962 89.8252 81.3058C89.8473 81.3033 89.8691 81.2986 89.8913 81.2981C89.9152 81.2976 90.0525 81.3055 90.0795 81.307L90.1111 81.3664L90.0528 81.5842L90.1055 81.4968L90.0194 81.7646L89.9388 81.7801C89.8284 81.6233 89.8149 81.5976 89.6394 81.5257L89.4432 81.6034L89.3618 81.534C89.227 81.5904 89.1 81.6385 88.9584 81.6766C88.918 81.6875 88.8773 81.697 88.8367 81.7072C88.8525 81.5798 88.8746 81.4692 88.9101 81.3448C88.9222 81.3028 88.9354 81.2612 88.9479 81.2194C88.8192 81.2268 88.7157 81.1204 88.6085 81.0524L88.4375 76.1958C90.2949 76.1512 92.1566 76.1634 94.0148 76.1518C94.9295 76.1463 95.8641 76.1819 96.7745 76.1055Z" fill="#6A41A0"/>
<defs>
<linearGradient id="paint0_linear_9099_23799" x1="80" y1="0" x2="80" y2="160" gradientUnits="userSpaceOnUse">
<stop stop-color="#7A4EA1"/>
<stop offset="1" stop-color="#0F245A"/>
</linearGradient>
<linearGradient id="paint1_linear_9099_23799" x1="138.188" y1="7.48627" x2="109.8" y2="20.5976" gradientUnits="userSpaceOnUse">
<stop stop-color="#EB929D"/>
<stop offset="1" stop-color="#8B49B5"/>
</linearGradient>
<linearGradient id="paint2_linear_9099_23799" x1="132.595" y1="57.8622" x2="116.245" y2="65.8653" gradientUnits="userSpaceOnUse">
<stop stop-color="#6862A5"/>
<stop offset="1" stop-color="#A688AE"/>
</linearGradient>
<linearGradient id="paint3_linear_9099_23799" x1="57.2558" y1="122.603" x2="88.8623" y2="117.667" gradientUnits="userSpaceOnUse">
<stop stop-color="#9F433C"/>
<stop offset="1" stop-color="#FFC14D"/>
</linearGradient>
<linearGradient id="paint4_linear_9099_23799" x1="82.1951" y1="117.834" x2="78.2271" y2="97.1829" gradientUnits="userSpaceOnUse">
<stop stop-color="#F4BC56"/>
<stop offset="1" stop-color="#FFFFDA"/>
</linearGradient>
<linearGradient id="paint5_linear_9099_23799" x1="82.8416" y1="141.87" x2="81.8635" y2="122.998" gradientUnits="userSpaceOnUse">
<stop stop-color="#BF6D45"/>
<stop offset="1" stop-color="#DFA250"/>
</linearGradient>
<linearGradient id="paint6_linear_9099_23799" x1="113.789" y1="126.311" x2="96.9484" y2="101.394" gradientUnits="userSpaceOnUse">
<stop stop-color="#E7C28E"/>
<stop offset="1" stop-color="#FFF2C3"/>
</linearGradient>
<linearGradient id="paint7_linear_9099_23799" x1="138.645" y1="73.6745" x2="153.277" y2="89.7409" gradientUnits="userSpaceOnUse">
<stop stop-color="#221850"/>
<stop offset="1" stop-color="#5E415A"/>
</linearGradient>
<linearGradient id="paint8_linear_9099_23799" x1="125.411" y1="85.1556" x2="139.212" y2="104.91" gradientUnits="userSpaceOnUse">
<stop stop-color="#241C53"/>
<stop offset="1" stop-color="#826E65"/>
</linearGradient>
<linearGradient id="paint9_linear_9099_23799" x1="127.199" y1="107.495" x2="130.787" y2="111.4" gradientUnits="userSpaceOnUse">
<stop stop-color="#816660"/>
<stop offset="1" stop-color="#A79174"/>
</linearGradient>
<linearGradient id="paint10_linear_9099_23799" x1="142.557" y1="97.6287" x2="152.387" y2="107.962" gradientUnits="userSpaceOnUse">
<stop stop-color="#2A0841"/>
<stop offset="1" stop-color="#C58861"/>
</linearGradient>
<linearGradient id="paint11_linear_9099_23799" x1="130.218" y1="111.11" x2="134.647" y2="116.872" gradientUnits="userSpaceOnUse">
<stop stop-color="#613943"/>
<stop offset="1" stop-color="#9A6958"/>
</linearGradient>
<linearGradient id="paint12_linear_9099_23799" x1="119.589" y1="72.3516" x2="126.747" y2="89.3355" gradientUnits="userSpaceOnUse">
<stop stop-color="#BF8D95"/>
<stop offset="1" stop-color="#F6DCA6"/>
</linearGradient>
<linearGradient id="paint13_linear_9099_23799" x1="70.9985" y1="57.8624" x2="58.8525" y2="25.6523" gradientUnits="userSpaceOnUse">
<stop stop-color="#A98EAA"/>
<stop offset="1" stop-color="#E3D9D2"/>
</linearGradient>
</defs>
</svg>
