<svg width="180" height="180" viewBox="0 0 180 180" fill="none" xmlns="http://www.w3.org/2000/svg">
<rect width="180" height="180" rx="53" fill="url(#paint0_linear_9096_23145)"/>
<path d="M22.2476 43C22.5812 43.0064 22.9365 43.0376 23.1764 43.2993C23.6426 43.8082 23.5059 44.834 23.5021 45.4827C24.2521 45.4657 24.9824 45.3715 25.6306 45.8362C25.8546 45.9967 25.9469 46.1668 26 46.4334C25.9596 46.6498 25.9022 46.8076 25.7369 46.9597C25.1076 47.5387 24.2356 47.4263 23.4525 47.41C23.4643 47.9742 23.5598 48.6971 23.3998 49.2351C23.2738 49.659 23.0253 49.8067 22.658 50C22.3584 49.9414 22.0874 49.8838 21.8684 49.6526C21.4069 49.1648 21.5691 48.0619 21.5839 47.4334C20.8055 47.4379 19.9802 47.5438 19.3269 47.0218C19.1157 46.8529 19.0386 46.6926 19 46.43C19.0432 46.2445 19.0951 46.1003 19.2347 45.9652C19.8549 45.3645 20.7968 45.4825 21.5816 45.5095C21.57 45.0263 21.5085 44.4614 21.5854 43.9864C21.6647 43.4962 21.8624 43.2787 22.2476 43Z" fill="white"/>
<path d="M153.867 32.0957C154.295 31.9982 154.749 31.9096 155.146 32.1808C155.492 32.4165 155.71 32.8635 155.806 33.3018C155.926 33.857 155.847 35.1583 155.588 35.6511C156.447 35.6541 157.931 35.3617 158.62 36.0277C158.868 36.2667 158.996 36.6171 159 36.9856C159.007 37.465 158.818 37.8969 158.524 38.2277C157.936 38.8912 156.376 38.614 155.573 38.5895C155.819 39.245 155.84 40.4123 155.618 41.0849C155.508 41.4165 155.338 41.5431 155.068 41.6877C155.022 41.7472 155.019 41.7583 154.948 41.8044C154.769 41.9209 154.281 42.067 154.092 41.9663C152.941 41.3543 153.533 39.5813 153.12 38.6265C153.112 38.6062 153.101 38.587 153.092 38.5671C152.198 38.5968 151.111 38.7565 150.395 37.9888C150.165 37.7424 149.992 37.4178 150 37.0464C150.009 36.6999 150.187 36.3906 150.406 36.1672C151.142 35.4168 152.124 35.5849 153.024 35.6294C153.633 34.4027 152.746 33.3639 153.867 32.0957Z" fill="white"/>
<path d="M143.156 71.1355L143.808 71L143.989 71.0908C144.069 71.5185 143.688 72.2766 143.307 72.624C143.273 72.6536 143.213 72.6922 143.177 72.7161C143.147 72.7361 143.115 72.7556 143.086 72.776C142.983 72.8481 142.912 72.9164 142.833 73C142.712 72.9208 142.588 72.8436 142.461 72.7684L142.1 72.8002C142.105 72.7925 142.114 72.7852 142.118 72.777C142.265 72.5194 142.151 72.4395 142 72.1979C142.497 71.9866 142.862 71.6621 143.207 71.3538L143.156 71.1355Z" fill="#E11F6A"/>
<path d="M158.967 91C159.238 91.0375 159.311 91.4436 159.427 91.7978C159.834 93.0438 160.369 93.6487 161 94.5305C160.967 94.6299 160.982 94.6081 160.934 94.6716C160.625 95.0814 160.181 95.4087 159.922 95.9057C159.594 96.5308 159.45 97.5099 159.045 98C159.038 97.9574 159.033 97.9137 159.023 97.8721C158.67 96.2628 157.911 95.114 157 94.4631C157.364 94.2136 157.686 93.9106 157.99 93.4806C158.398 92.9013 158.912 91.9444 158.967 91Z" fill="#FFEED4"/>
<path d="M139.958 72.1255L142.956 71L143 71.2797C142.709 71.6748 142.401 72.0907 141.983 72.3614C142.11 72.6711 142.207 72.7735 142.082 73.1036C142.079 73.1141 142.072 73.1235 142.067 73.1334L142.372 73.0927C142.479 73.189 142.583 73.2879 142.685 73.3894C142.751 73.2822 142.811 73.1948 142.898 73.1024C142.922 73.0762 142.949 73.0512 142.974 73.0256C143.064 73.5463 142.694 74.6932 142.376 75.133C142.331 75.1949 142.291 75.2303 142.235 75.2863C142.34 75.9187 141.652 78.2095 141.242 78.7561C141.215 78.7914 141.186 78.8253 141.159 78.8599C141.183 79.4311 140.756 80.4096 140.352 80.8274C140.289 80.8928 140.219 80.9474 140.145 81C139.476 80.3498 138.793 79.6729 138.052 79.1039C137.84 78.6983 137.381 78.3559 137.011 78.0988L136.852 78.0037C136.706 77.7468 136.478 77.6061 136.244 77.4352C135.746 76.8127 134.713 75.2984 134 75.0442C134.098 74.9696 134.198 74.8964 134.29 74.8167C135.259 73.9778 136.526 73.5333 137.688 73.0195L139.958 72.1255Z" fill="#E8506F"/>
<path d="M138 78.8667C138.163 78.8201 138.328 78.8422 138.494 78.8519C138.716 78.7083 138.893 78.5059 139.076 78.3173L139.177 78.4062C139.455 78.3906 139.502 78.1527 139.701 77.9644L139.749 78.2433C140.531 77.9407 141.352 76.5599 141.676 75.8004C141.793 75.5226 141.775 75.2375 141.977 75C142.06 75.2551 141.897 75.5241 141.815 75.778L141.915 75.774C142.012 76.3524 141.377 78.4477 140.999 78.9476C140.975 78.98 140.948 79.0109 140.923 79.0425C140.945 79.565 140.551 80.46 140.179 80.8421C140.121 80.9019 140.056 80.9519 139.989 81C139.372 80.4053 138.741 79.7861 138.058 79.2658C138.08 79.1092 138.05 79.0153 138 78.8667Z" fill="#E11F6A"/>
<path d="M140.298 71.9513L142.961 71L143 71.2364C142.742 71.5704 142.468 71.9219 142.097 72.1507C141.605 72.8972 138.612 76.1054 137.923 76.6286C137.85 76.7589 137.785 76.8894 137.681 77L137.54 76.9196C137.41 76.7025 137.208 76.5835 137 76.4391C137.077 76.3864 137.072 76.3928 137.156 76.3196C137.705 75.8425 140.39 72.741 140.414 72.2287L140.489 72.0812L140.298 71.9513Z" fill="#F87DA9"/>
<path d="M137.585 72.8418L139.791 72L140 72.1448L139.918 72.309C139.892 72.8799 136.953 76.3352 136.352 76.8668C136.26 76.9484 136.266 76.9412 136.181 77C135.697 76.4138 134.693 74.9878 134 74.7484C134.095 74.6782 134.192 74.6093 134.281 74.5343C135.223 73.7443 136.455 73.3257 137.585 72.8418Z" fill="url(#paint1_linear_9096_23145)"/>
<path d="M138 73.0662L139.827 72L140 72.1834L139.932 72.3914C139.469 72.8921 138.716 73.9396 138.134 74C138.109 73.6736 138.185 73.5765 138.292 73.2967L138 73.0662Z" fill="#FFEED4"/>
<path d="M147.735 76C148.329 77.1195 147.768 88.5203 147.572 90.4699C147.391 92.3261 147.094 94.1585 146.679 95.9671C145.579 100.773 143.78 104.905 141.405 109.072L141.531 109.133C140.404 110.033 139.012 110.648 137.828 111.495C136.837 112.348 135.833 113.182 134.914 114.134C134.426 114.64 133.688 115.742 133.111 116C133.339 115.095 133.321 104.015 133.106 103.267C133.13 103.169 133.149 103.083 133.162 102.983C133.274 102.139 133.348 90.5327 133.21 89.98C133.189 89.9025 133.048 89.7382 133 89.6653C133.865 89.0252 137.536 84.9158 138.38 83.7861C138.403 83.7664 138.428 83.7474 138.451 83.7267C138.997 83.2477 140.183 82.181 140.271 81.4048C140.338 81.3511 140.402 81.2952 140.46 81.2282C140.829 80.8009 141.22 79.8 141.198 79.2157C142.075 78.8863 147.288 76.5366 147.735 76Z" fill="url(#paint2_linear_9096_23145)"/>
<path d="M138.241 83L138.321 83.2142C137.461 84.6137 137.218 84.0468 137.49 86.0496C137.589 86.7764 137.958 89.7406 138.271 90.1931L138.287 89.8953L138.371 90.0101C138.54 89.659 138.714 89.1494 139 88.92C138.963 89.7266 137.529 92.0981 137.122 93.0019C135.687 96.1883 134.731 99.5787 133.389 102.801L133.103 103C133.127 102.899 133.146 102.811 133.158 102.708C133.267 101.842 133.339 89.9263 133.204 89.3589C133.184 89.2793 133.047 89.1106 133 89.0358C133.843 88.3787 137.42 84.1597 138.241 83Z" fill="url(#paint3_linear_9096_23145)"/>
<path d="M141.978 108.457C146.472 106.322 151.009 104.916 155.908 105.004C156.418 106.345 154.666 116.966 154.271 118.832C153.888 120.637 153.413 122.408 152.845 124.147C152.326 125.692 150.656 130.334 149.554 131.268C149.544 131.732 149.191 132.23 148.915 132.545C148.85 132.62 148.791 132.668 148.708 132.712C148.541 133.418 147.886 134.153 147.471 134.698C145.167 137.711 142.646 140.034 139.62 142.031C136.555 144.054 133.283 145.423 129.784 145.983C129.526 146.019 129.26 145.988 129 145.976C130.634 144.998 131.923 143.995 132.803 142.046C132.893 141.846 132.977 141.641 133.053 141.433C133.13 141.225 133.199 141.014 133.261 140.799C133.323 140.585 133.377 140.368 133.423 140.148C133.47 139.929 133.509 139.707 133.541 139.484C133.704 138.333 133.826 132.79 133.559 131.799C133.802 130.979 133.769 126.413 133.587 125.503C133.781 124.738 133.802 116.453 133.587 115.54C134.163 115.275 134.898 114.138 135.384 113.615C136.3 112.633 137.3 111.774 138.288 110.894C139.467 110.019 140.854 109.386 141.978 108.457Z" fill="url(#paint4_linear_9096_23145)"/>
<path d="M139.887 120.53C139.931 120.513 139.975 120.499 140.018 120.48C140.874 120.119 143.939 115.437 145 115C144.913 115.225 140.082 120.869 139.65 121.248C139.35 121.909 138.735 122.545 138.287 123.102C137.185 124.638 136.12 126.207 135.093 127.807C134.727 128.381 133.557 130.559 133.304 130.813C133.233 130.884 133.087 130.946 133 131C133.243 130.211 133.21 125.813 133.029 124.937C133.735 125.183 133.754 127.681 134.342 128.355C135.048 127.629 135.61 126.46 136.196 125.595C136.759 124.763 139.799 121.15 139.887 120.53Z" fill="#2F4F84"/>
<path d="M138 123.865C138.503 123.305 139.194 122.665 139.531 122C139.54 122.044 139.55 122.088 139.557 122.132C139.583 122.312 139.519 122.421 139.447 122.581C139.311 122.884 139.278 123.025 139.399 123.339C139.671 124.042 140.18 124.693 140.647 125.278C142.995 128.216 146.084 129.666 149.185 131.646C149.277 131.706 149.359 131.762 149.434 131.844C149.609 131.67 149.799 131.435 150 131.297C149.989 131.746 149.594 132.229 149.284 132.534C149.211 132.606 149.145 132.653 149.051 132.695L148.967 132.663C148.852 132.783 148.737 132.895 148.608 133C147.719 132.309 146.804 131.852 145.846 131.283C143.374 129.815 141.138 128.061 139.694 125.532C139.323 124.883 138.927 124.295 138.705 123.572L138.664 123.434C138.615 123.506 138.596 123.537 138.535 123.608C138.348 123.82 138.279 123.84 138 123.865Z" fill="#219A86"/>
<path d="M139.001 124.428C139.254 124.403 139.316 124.384 139.485 124.173C139.541 124.103 139.557 124.072 139.602 124L139.639 124.137C139.84 124.855 140.198 125.44 140.534 126.085C141.84 128.598 143.863 130.342 146.1 131.801C146.967 132.366 147.795 132.821 148.599 133.507C148.716 133.402 148.82 133.292 148.924 133.172L149 133.204C148.831 133.884 148.167 134.593 147.745 135.117C145.407 138.018 142.848 140.255 139.778 142.178C136.667 144.126 133.346 145.444 129.796 145.984C129.534 146.018 129.263 145.988 129 145.977C130.659 145.035 131.966 144.069 132.859 142.193C132.951 142 133.035 141.803 133.113 141.602C133.191 141.402 133.261 141.199 133.324 140.992C133.387 140.785 133.442 140.576 133.489 140.365C133.536 140.154 133.576 139.941 133.608 139.726C133.773 138.617 133.898 133.28 133.626 132.325C133.715 132.272 133.863 132.209 133.936 132.138C134.192 131.885 135.382 129.706 135.754 129.132C136.798 127.532 137.881 125.964 139.001 124.428Z" fill="url(#paint5_linear_9096_23145)"/>
<path d="M50.9634 145C51.2768 145.129 51.5991 145.257 51.9305 145.297C53.856 145.532 55.9403 145.34 57.8821 145.336L69.8887 145.321L108.644 145.34L121.351 145.335C123.726 145.333 126.114 145.271 128.486 145.36L128.782 145.312C129.046 145.324 129.318 145.357 129.582 145.319C131.635 145.464 133.715 145.381 135.772 145.377L146.025 145.356C147.047 145.354 150.03 145.141 150.802 145.43C151.12 145.487 151.399 145.548 151.611 145.861C151.803 146.147 151.835 146.448 151.825 146.8C151.979 147.125 152.048 147.483 151.963 147.852C151.889 148.166 151.693 148.371 151.452 148.505C150.384 149.091 147.373 148.9 146.07 148.914C145.556 148.92 144.969 148.836 144.478 149.019C145.451 149.14 146.455 149.035 147.433 149.042C147.121 150.325 146.246 151.36 145.281 152.002C144.355 152.619 143.353 152.888 142.298 152.941C139.779 153.068 137.222 152.951 134.7 152.948L121.368 152.971L77.6777 152.874L50.0879 152.882L44.0286 152.9C41.6013 152.925 38.9285 153.238 36.5751 152.447C34.678 151.81 32.9878 150.613 31.4109 149.241C30.4185 149.272 29.5666 149.346 28.6288 148.897C30.9493 148.482 33.3995 148.652 35.7458 148.633C38.6545 148.609 41.5588 148.498 44.4684 148.566C47.6401 148.487 51.9739 148.96 54.9681 148.195L54.329 148.187C55.094 148.078 55.8982 147.881 56.6625 147.837C57.9638 147.763 62.9755 148.072 63.7786 147.427L46.5454 147.913C41.6739 147.643 36.7249 148.035 31.8434 148.044C30.6908 148.046 29.2581 148.323 28.1387 148.109L28.0265 147.717C27.9923 147.366 28.0015 147.008 28.0002 146.655C28.1068 146.401 28.2144 146.134 28.3634 145.91C28.5845 145.577 28.8054 145.419 29.1547 145.342C30.5553 145.033 32.4935 145.258 33.9456 145.258L45.0629 145.269C46.7975 145.276 48.6417 145.47 50.3645 145.28L50.4427 145.121L50.8935 145.152L50.9634 145Z" fill="url(#paint6_linear_9096_23145)"/>
<path d="M150.932 146C151.263 146.041 151.554 146.086 151.775 146.315C151.975 146.523 152.009 146.743 151.998 147L151.982 146.99C151.923 146.854 151.868 146.705 151.76 146.589C150.934 145.698 142.888 146.265 141 146.053L147.487 146.037C148.617 146.033 149.807 146.085 150.932 146Z" fill="#2F4F84"/>
<path d="M51.0809 145C51.3958 145.162 51.7197 145.322 52.0529 145.373C53.9883 145.667 56.0832 145.426 58.035 145.422L70.1029 145.403L109.056 145.427L121.828 145.42C124.216 145.418 126.615 145.34 129 145.452C127.501 145.67 125.895 145.515 124.385 145.517L115.976 145.555C110.239 145.58 104.492 145.689 98.7556 145.626C91.3495 145.544 83.9002 145.311 76.5143 146.072C75.1542 146.212 71.2939 145.893 70.2853 146.358L70.3944 146.262L70.2608 146.474C70.476 146.638 70.5575 146.675 70.7982 146.635L70.9379 146.438C72.6573 146.732 74.3585 146.259 76.0529 146.761C77.9763 146.668 79.9075 146.757 81.832 146.726C82.4196 146.717 83.0048 146.532 83.5864 146.547C83.8098 146.553 83.9776 146.52 84.1544 146.735L84.0298 146.946C85.5961 146.999 87.1707 146.902 88.7346 147.019L88.6568 147.22C88.2026 147.251 87.704 147.231 87.2684 147.426L87.5992 147.46C87.1216 147.679 86.6954 147.545 86.2127 147.435C86.2356 147.452 86.2583 147.471 86.2814 147.488C86.8219 147.885 87.425 147.912 88.0175 147.927L87.9564 148.033C87.4683 148.065 86.9396 148.149 86.4538 148.093C86.0212 148.044 85.6972 147.906 85.2355 147.925C81.9524 148.057 73.0823 149.125 70.4094 147.803C69.3542 147.862 64.412 147.849 63.9615 148.043L46.6402 148.653C41.7438 148.313 36.7695 148.805 31.863 148.816C30.7045 148.819 29.2646 149.167 28.1394 148.898L28.0266 148.407C27.9923 147.967 28.0016 147.518 28.0002 147.075C28.1073 146.756 28.2155 146.422 28.3653 146.141C28.5875 145.724 28.8095 145.525 29.1606 145.429C30.5684 145.041 32.5165 145.324 33.976 145.324L45.1501 145.338C46.8937 145.346 48.7472 145.59 50.4789 145.351L50.5575 145.152L51.0106 145.191L51.0809 145Z" fill="url(#paint7_linear_9096_23145)"/>
<path d="M75.4717 147.175C77.3719 147.099 79.2797 147.172 81.181 147.147C81.7614 147.139 82.3396 146.988 82.9141 147.001C83.1348 147.006 83.3005 146.978 83.4752 147.154L83.3522 147.326C84.8995 147.369 86.4551 147.29 88 147.385L87.9232 147.549C87.4745 147.575 86.9819 147.558 86.5516 147.717L86.8783 147.745C86.4065 147.923 85.9855 147.814 85.5087 147.724C85.5312 147.739 85.5537 147.753 85.5765 147.767C86.1105 148.091 86.7063 148.113 87.2916 148.126L87.2313 148.212C86.7491 148.238 86.2267 148.306 85.7469 148.261C85.3195 148.221 84.9993 148.109 84.5433 148.124C81.2998 148.231 72.537 149.102 69.8965 148.024C68.854 148.072 63.9716 148.062 63.5266 148.22L46.4148 148.717C41.5776 148.44 36.6635 148.841 31.8163 148.85C30.6718 148.852 29.2493 149.136 28.1377 148.917L28.0263 148.517C27.9924 148.158 28.0015 147.792 28.0001 147.431C28.187 147.585 28.4496 147.61 28.6705 147.621C30.4001 147.709 32.1713 147.616 33.9057 147.623C39.1349 147.643 44.3607 147.525 49.5887 147.488L62.674 147.299C66.9347 147.282 71.2144 147.389 75.4717 147.175Z" fill="#504848"/>
<path d="M75.9208 147.106C77.8389 147.06 79.7648 147.105 81.6841 147.089C82.27 147.085 82.8536 146.993 83.4336 147C83.6564 147.003 83.8237 146.987 84 147.093L83.8758 147.198C79.7507 147.203 75.6095 147.34 71.4834 147.398L40.1627 147.827L31.4172 147.926C30.4079 147.936 28.9783 148.09 28.0266 147.922C27.9923 147.704 28.0015 147.482 28.0002 147.262C28.1888 147.356 28.4538 147.371 28.6768 147.378C30.4228 147.431 32.2108 147.375 33.9616 147.379C39.2402 147.391 44.5155 147.319 49.793 147.296L63.002 147.182C67.3031 147.171 71.6232 147.236 75.9208 147.106Z" fill="#5C5452"/>
<path d="M46.8328 55.6555C46.8223 52.5745 46.964 49.9043 49.0424 47.5719C49.1708 47.4288 49.3037 47.2911 49.4412 47.1588C49.5786 47.0265 49.7202 46.8999 49.866 46.7789C50.0117 46.6581 50.1612 46.5433 50.3146 46.4345C50.4679 46.3257 50.6246 46.2233 50.7846 46.1272C50.9446 46.0311 51.1076 45.9416 51.2736 45.8587C51.4395 45.7758 51.6079 45.6996 51.7788 45.6304C51.9497 45.5611 52.1227 45.4988 52.2977 45.4434C52.4726 45.3882 52.6492 45.3401 52.8275 45.299C54.9528 44.7942 58.1967 45.0802 60.4221 45.085L74.5704 45.1L74.5855 48.1318L68.6837 48.1368L58.6216 48.0909C56.9844 48.0875 54.9541 47.8362 53.3596 48.2461C52.4603 48.4772 51.6379 49.0639 50.9903 49.782C50.242 50.6118 49.625 51.8085 49.5051 52.9879C49.2538 55.4564 49.4593 59.2799 49.4661 61.8774L49.4684 79.5328L49.5252 118.475C49.5387 124.54 49.4851 130.612 49.5506 136.676C49.5716 138.604 49.9683 140.019 51.2498 141.39C51.3442 141.491 51.4416 141.589 51.5419 141.682C51.6422 141.776 51.7453 141.866 51.8511 141.952C51.957 142.038 52.0653 142.119 52.1762 142.197C52.2871 142.275 52.4002 142.348 52.5156 142.417C52.631 142.486 52.7483 142.551 52.8676 142.611C52.987 142.672 53.108 142.727 53.2308 142.779C53.3535 142.83 53.4777 142.876 53.6034 142.918C53.729 142.96 53.8557 142.997 53.9836 143.029C55.5695 143.415 57.4352 143.215 59.0625 143.205C61.8372 143.188 64.6201 143.139 67.3942 143.188L79.4245 143.182C81.4718 143.177 83.6048 143.315 85.6406 143.152C89.9375 143.438 94.3037 143.045 98.6125 143.171C100.354 143.276 102.137 143.209 103.882 143.215L114.279 143.206L121.255 143.199C122.663 143.2 124.099 143.26 125.503 143.139C126.075 143.09 126.604 142.94 127.126 142.675C127.206 142.635 127.285 142.592 127.363 142.547C127.442 142.503 127.52 142.456 127.596 142.407C127.672 142.358 127.747 142.307 127.821 142.254C127.895 142.201 127.968 142.146 128.039 142.089C128.11 142.032 128.181 141.973 128.25 141.912C128.319 141.851 128.386 141.788 128.451 141.723C128.517 141.658 128.581 141.591 128.644 141.523C128.707 141.454 128.769 141.384 128.829 141.313C128.888 141.241 128.946 141.167 129.002 141.092C129.059 141.017 129.114 140.94 129.166 140.862C129.219 140.784 129.27 140.704 129.32 140.624C129.369 140.543 129.417 140.46 129.462 140.377C129.507 140.293 129.551 140.208 129.594 140.122C129.635 140.036 129.675 139.949 129.712 139.86C129.75 139.772 129.786 139.683 129.82 139.593C129.853 139.502 129.885 139.411 129.914 139.319C130.107 138.719 130.21 138.097 130.253 137.463C130.343 136.13 130.41 127.075 130.125 126.404C130.168 126.33 130.218 126.251 130.245 126.167C130.47 125.43 130.414 93.3541 130.177 92.658C130.81 92.2563 132.341 90.4442 132.711 89.7664C132.76 89.8397 132.903 90.0049 132.924 90.0828C133.064 90.6385 132.989 102.307 132.875 103.155C132.863 103.255 132.843 103.342 132.818 103.441C133.036 104.193 133.054 115.331 132.824 116.241C133.042 117.131 133.021 125.206 132.824 125.951C133.008 126.838 133.042 131.288 132.795 132.087C133.067 133.053 132.942 138.456 132.777 139.578C132.744 139.795 132.704 140.011 132.657 140.225C132.61 140.439 132.555 140.65 132.492 140.859C132.429 141.068 132.359 141.274 132.281 141.477C132.203 141.68 132.119 141.879 132.027 142.074C131.133 143.974 129.824 144.952 128.164 145.905L127.87 145.95C125.507 145.867 123.13 145.925 120.765 145.926L108.111 145.932L69.5183 145.914L57.5622 145.928C55.6285 145.931 53.553 146.11 51.6356 145.891C51.3055 145.854 50.9846 145.735 50.6725 145.614L50.6029 145.756L50.154 145.727C46.231 145.168 42.2931 142.948 39.0996 140.454C35.525 140.601 32.1144 139.651 28.8465 138.104C21.1633 134.466 13.4117 127.099 10.1984 118.372C9.65371 116.892 9.18483 115.336 8.85073 113.781C8.59977 112.613 8.45514 111.27 8.03886 110.167L8 110.066L8.0329 106.399C8.39726 105.759 8.88543 101.738 9.09946 100.672C9.34672 99.4396 9.62891 98.2175 9.94603 97.0054C10.1897 96.061 10.4584 95.1254 10.7522 94.1988C11.046 93.2721 11.3643 92.356 11.7072 91.4503C12.0501 90.5447 12.417 89.6511 12.8077 88.7696C13.1985 87.8881 13.6126 87.0203 14.0499 86.1662C20.9511 72.3743 33.229 62.717 46.7568 58.4224C46.7651 57.4983 46.7683 56.5772 46.8328 55.6555Z" fill="#2F4F84"/>
<path d="M39.3239 140.527C38.036 139.394 36.8063 138.234 35.6556 136.922C29.5354 129.943 25.8146 120.339 24.5184 110.678C24.3333 109.299 23.9827 107.714 24.0007 106.327C24.0071 105.837 24.0889 105.474 24.4052 105.128C25.4675 104.602 30.2721 105.837 31.5134 106.283C30.3592 106.57 25.098 104.386 24.4005 105.426C24.1072 105.864 24.107 106.924 24.2376 107.434C24.2565 107.508 24.2796 107.533 24.317 107.588C24.508 107.31 24.5293 107.31 24.8326 107.225C24.9999 107.452 25.0143 108.077 24.9815 108.378C24.9762 108.427 24.9578 108.501 24.9483 108.544L24.7517 108.246L24.7838 108.259C24.772 108.306 24.7588 108.352 24.7482 108.399C24.6927 108.646 24.7556 108.897 24.8004 109.14C24.7377 109.293 24.6661 109.425 24.6605 109.596C24.8535 109.679 25.0241 109.753 25.233 109.672C25.2986 109.646 25.3334 109.613 25.3871 109.57C25.3969 108.422 25.0414 107.344 25.2682 106.193C25.3329 111.478 27.0848 117.994 28.8761 122.844C29.1413 123.562 29.4449 124.665 29.8681 125.237C31.5895 129.874 35.9152 136.34 39.5718 139.226C40.3474 140.171 41.7835 141.295 42.818 141.834C45.1786 143.69 48.0766 144.772 50.7895 145.766L51 145.853L50.9297 146L50.4768 145.97C46.5188 145.393 42.5459 143.101 39.3239 140.527Z" fill="white"/>
<path d="M25.1753 106.056C24.9361 107.214 25.311 108.299 25.3007 109.454C25.2441 109.497 25.2073 109.531 25.1382 109.556C24.9178 109.639 24.7378 109.564 24.5343 109.48C24.5402 109.308 24.6157 109.176 24.6819 109.021C24.6346 108.777 24.5683 108.524 24.6268 108.276C24.638 108.229 24.6519 108.182 24.6643 108.135L24.6304 108.122L24.8379 108.422C24.8479 108.378 24.8673 108.304 24.8729 108.255C24.9074 107.952 24.8922 107.323 24.7158 107.095C24.3959 107.18 24.3734 107.18 24.1719 107.46C24.1325 107.405 24.1081 107.379 24.0882 107.305C23.9503 106.792 23.9506 105.725 24.26 105.285C24.9958 104.238 30.5456 106.435 31.7631 106.147C34.1137 106.491 38.9509 108.788 40.9418 110.257L40.9486 110.452C41.9697 111.169 42.9868 111.892 44 112.622C43.5209 113.108 42.9789 113.465 42.4954 113.94C40.9801 115.428 39.4148 117.214 38.1939 119C37.4387 118.166 35.488 115.652 34.5693 115.373C34.5474 115.366 34.526 115.358 34.5045 115.35C33.5385 114.579 31.8267 112.032 30.7889 111.806C30.766 111.793 30.7424 111.781 30.7204 111.767C29.7807 111.134 27.8415 108.764 26.9271 107.811C26.5517 107.42 26.1171 107.1 25.7568 106.694C25.592 106.509 25.5347 106.458 25.4853 106.209C25.571 106.203 25.6582 106.174 25.7422 106.193C26.105 106.273 30.1047 110.701 30.8474 111.324L30.8548 111.316C30.1188 110.327 26.8032 106.581 25.9012 106.065C25.6514 105.922 25.4333 105.972 25.1753 106.056Z" fill="#ADE8B6"/>
<path d="M25 106.081C25.2583 105.998 25.4765 105.948 25.7265 106.089C26.6293 106.6 29.9478 110.311 30.6844 111.29L30.677 111.298C29.9336 110.681 25.9306 106.296 25.5674 106.216C25.4833 106.197 25.3961 106.226 25.3103 106.232C25.3597 106.479 25.4171 106.529 25.5821 106.713C25.9427 107.115 26.3777 107.431 26.7534 107.819C27.6686 108.763 29.6094 111.11 30.5499 111.737C30.5719 111.751 30.5956 111.763 30.6185 111.776C32.7003 113.977 34.7685 116.192 36.8231 118.422L44.4449 126.599C45.594 127.837 46.9996 129.102 48 130.463C47.3891 130.348 46.882 129.623 46.4612 129.164L46.4971 129.19C43.5741 131.517 42.3437 133.812 39.9196 136.266C39.5203 136.671 39.0349 136.986 38.605 137.356C39.072 137.801 39.8805 138.363 40.1014 139C36.2408 136.124 31.6738 129.68 29.8565 125.059C29.4097 124.489 29.0891 123.39 28.8091 122.674C26.9179 117.841 25.0683 111.348 25 106.081Z" fill="url(#paint8_linear_9096_23145)"/>
<path d="M47.301 55.6555C47.2905 52.5745 47.4315 49.9043 49.4986 47.5719C49.6263 47.4288 49.7585 47.2911 49.8952 47.1588C50.0319 47.0265 50.1727 46.8999 50.3177 46.7789C50.4626 46.6581 50.6113 46.5433 50.7638 46.4345C50.9163 46.3257 51.0722 46.2233 51.2313 46.1272C51.3905 46.0311 51.5526 45.9416 51.7176 45.8587C51.8826 45.7758 52.0501 45.6996 52.2201 45.6304C52.3901 45.5611 52.5621 45.4988 52.7362 45.4434C52.9102 45.3882 53.0858 45.3401 53.2631 45.299C55.3769 44.7942 58.6031 45.0802 60.8165 45.085L74.8878 45.1L74.9029 48.1318L69.0332 48.1368L59.0257 48.0909C57.3974 48.0875 55.3782 47.8362 53.7924 48.2461C52.898 48.4772 52.08 49.0639 51.4359 49.782C50.6916 50.6118 50.078 51.8085 49.9587 52.9879C49.7089 55.4564 49.9132 59.2799 49.92 61.8774L49.9223 79.5328L49.9788 118.475C49.9922 124.54 49.9389 130.612 50.004 136.676C50.0249 138.604 50.4194 140.019 51.694 141.39C51.7879 141.491 51.8847 141.589 51.9845 141.682C52.0842 141.776 52.1868 141.866 52.2921 141.952C52.3973 142.038 52.5051 142.119 52.6154 142.197C52.7256 142.275 52.8381 142.348 52.9529 142.417C53.0677 142.486 53.1844 142.551 53.303 142.611C53.4217 142.672 53.5421 142.727 53.6643 142.779C53.7863 142.83 53.9098 142.876 54.0348 142.918C54.1597 142.96 54.2857 142.997 54.4129 143.029C55.9903 143.415 57.8458 143.215 59.4643 143.205C62.2239 143.188 64.9916 143.139 67.7507 143.188L79.7156 143.182C81.7518 143.177 83.8732 143.315 85.898 143.152C90.1714 143.438 94.5139 143.045 98.7994 143.171C100.531 143.276 102.304 143.209 104.041 143.215L114.38 143.206L121.319 143.199C122.719 143.2 124.147 143.26 125.544 143.139C126.113 143.09 126.639 142.94 127.158 142.675C127.238 142.635 127.317 142.592 127.394 142.547C127.472 142.503 127.549 142.456 127.626 142.407C127.701 142.358 127.776 142.307 127.849 142.254C127.923 142.201 127.995 142.146 128.066 142.089C128.137 142.032 128.207 141.973 128.276 141.912C128.344 141.851 128.411 141.788 128.476 141.723C128.541 141.658 128.605 141.591 128.668 141.523C128.731 141.454 128.792 141.384 128.852 141.313C128.911 141.241 128.968 141.167 129.024 141.092C129.08 141.017 129.135 140.94 129.187 140.862C129.24 140.784 129.291 140.704 129.34 140.624C129.389 140.543 129.436 140.46 129.481 140.377C129.526 140.293 129.57 140.208 129.612 140.122C129.654 140.036 129.693 139.949 129.73 139.86C129.767 139.772 129.803 139.683 129.837 139.593C129.87 139.502 129.902 139.411 129.931 139.319C130.123 138.719 130.225 138.097 130.268 137.463C130.358 136.13 130.424 127.075 130.141 126.404C130.184 126.33 130.234 126.251 130.26 126.167C130.483 125.43 130.428 93.3541 130.192 92.658C130.822 92.2563 132.344 90.4442 132.713 89.7664C132.761 89.8397 132.903 90.0049 132.924 90.0828C133.064 90.6385 132.989 102.307 132.876 103.155C132.863 103.255 132.844 103.342 132.819 103.441C133.036 104.193 133.054 115.331 132.825 116.241C133.041 117.131 133.021 125.206 132.825 125.951C133.008 126.838 133.041 131.288 132.796 132.087C133.066 133.053 132.942 138.456 132.778 139.578C132.746 139.795 132.706 140.011 132.659 140.225C132.612 140.439 132.557 140.65 132.495 140.859C132.432 141.068 132.362 141.274 132.285 141.477C132.208 141.68 132.123 141.879 132.032 142.074C131.143 143.974 129.841 144.952 128.19 145.905L127.898 145.95C125.548 145.867 123.183 145.925 120.831 145.926L108.246 145.932L69.8633 145.914L57.9721 145.928C56.0489 145.931 53.9847 146.11 52.0777 145.891C51.7494 145.854 51.4302 145.735 51.1199 145.614L50.9124 145.529C48.2381 144.567 45.3813 143.518 43.0542 141.721C42.0344 141.198 40.6187 140.109 39.8542 139.194C39.648 138.575 38.8931 138.028 38.457 137.595C38.8585 137.236 39.3117 136.929 39.6846 136.536C41.9479 134.151 43.0967 131.92 45.826 129.657L45.7924 129.632C46.1853 130.078 46.6588 130.783 47.2292 130.895C46.2952 129.571 44.9828 128.342 43.9098 127.139L36.7932 119.19C34.8749 117.022 32.9438 114.868 31 112.729C31.9698 112.947 33.5695 115.398 34.4722 116.141C34.4924 116.148 34.5124 116.157 34.5328 116.163C35.3914 116.432 37.2143 118.852 37.92 119.655C39.061 117.936 40.5238 116.216 41.9399 114.784C42.3917 114.327 42.8982 113.982 43.3459 113.515C42.3991 112.812 41.4486 112.115 40.4944 111.425L40.488 111.238L40.9815 111.493C41.0374 110.792 38.8563 107.026 38.4781 105.914C38.0444 105.166 37.7412 104.159 37.4428 103.332C35.7216 98.5586 34.4298 93.1647 34.3993 87.9895C34.2749 85.783 34.3107 77.0981 35.3631 75.7338C36.0428 75.4977 37.1685 76.1576 37.8188 76.4268C41.398 78.0473 44.3527 80.0912 47.1973 83.0089L47.2361 63.4988C47.2404 60.8936 47.3912 58.254 47.301 55.6555Z" fill="url(#paint9_linear_9096_23145)"/>
<path d="M45 127.748C45.1813 127.829 45.3637 127.917 45.5635 127.902C46.1249 127.862 47.188 126.648 47.5763 126.227C47.9168 125.859 47.9329 125.5 48 125L47.9976 131C46.9725 129.945 45.9733 128.861 45 127.748Z" fill="#219A86"/>
<path d="M42 88.7027C42.5472 88.0951 43.2273 87.6231 43.91 87.1778C44.8191 86.5851 46.2409 85.8114 47.3668 86.0416C48.167 86.5848 47.7399 87.8452 47.9208 88.7305C47.9277 88.7639 47.9359 88.797 47.9434 88.8301C48.0737 92.5387 47.9394 96.2867 47.9308 100C46.7993 97.8351 45.626 95.6927 44.411 93.573C43.8712 92.6093 43.0984 91.5028 42.7421 90.4703C42.7482 90.461 42.757 90.4528 42.7606 90.4422C42.887 90.0583 42.2112 89.0913 42 88.7027Z" fill="#79AD7A"/>
<path d="M45.0995 130.024L45.0672 130C45.4457 130.421 45.9019 131.086 46.4515 131.191C46.4257 133.379 46.5491 135.638 46.4123 137.812C46.6075 140.653 47.3517 142.03 49.1794 143.975C49.4653 144.279 49.8542 144.59 50 145C47.4235 144.092 44.6711 143.102 42.4291 141.406C41.4466 140.913 40.0827 139.886 39.3461 139.022C39.1474 138.438 38.4202 137.922 38 137.514C38.3868 137.174 38.8234 136.885 39.1827 136.515C41.3632 134.264 42.4701 132.158 45.0995 130.024Z" fill="#2F4F84"/>
<path d="M40.6049 111L41.1467 111.264C43.4778 112.921 45.9542 114.488 47.9879 116.548C48.0057 119.501 48.0039 122.453 47.9824 125.406C47.9195 125.853 47.9044 126.173 47.585 126.502C47.2208 126.878 46.2236 127.963 45.6971 127.999C45.5098 128.011 45.3386 127.933 45.1686 127.861C44.4735 126.857 43.3301 125.886 42.4855 125.003L37.1296 119.411C36.0803 118.316 34.952 117.243 34 116.054C34.0221 116.062 34.0441 116.071 34.0665 116.077C35.0091 116.354 37.0106 118.849 37.7854 119.677C39.0381 117.905 40.6441 116.132 42.1989 114.655C42.695 114.184 43.2511 113.829 43.7426 113.347C42.7031 112.623 41.6595 111.905 40.6118 111.193L40.6049 111Z" fill="url(#paint10_linear_9096_23145)"/>
<path d="M34.0542 88.0243C33.9196 85.8683 33.9583 77.3821 35.0969 76.049C35.8324 75.8182 37.0504 76.463 37.7541 76.7262C41.6269 78.3096 44.824 80.3067 47.9019 83.1576C47.9447 85.2214 47.9875 87.3184 47.9078 89.3802C47.901 89.3503 47.8937 89.3204 47.8876 89.2901C47.7263 88.4892 48.1072 87.3487 47.3935 86.8572C46.3894 86.6489 45.1214 87.349 44.3106 87.8853C43.7017 88.2882 43.0951 88.7153 42.6071 89.265C42.7955 89.6166 43.3982 90.4916 43.2854 90.8389C43.2823 90.8486 43.2744 90.856 43.269 90.8644C41.4559 87.7228 39.8334 84.4529 38.0742 81.2768C37.4729 80.191 36.85 78.7359 36.0075 77.8385C36.7822 79.8546 38.0754 81.6881 39.0534 83.6112C41.922 88.9597 44.7614 94.3239 47.5714 99.704C47.7487 99.9283 47.8604 100.115 47.8983 100.403C48.1022 101.952 47.9369 103.718 47.9339 105.289L47.9184 116C45.9141 114.046 43.4736 112.562 41.1763 110.991C41.2368 110.305 38.8767 106.625 38.4675 105.539C37.9982 104.807 37.6702 103.824 37.3472 103.015C35.4849 98.3516 34.0872 93.0812 34.0542 88.0243Z" fill="url(#paint11_linear_9096_23145)"/>
<path d="M85.704 44.7309C85.683 42.5709 85.1912 38.7885 86.6397 37.1603C87.3316 36.3825 88.29 35.9862 89.2687 36.0004C90.31 36.0153 91.3424 36.4848 92.0556 37.3353C93.528 39.0917 92.9845 42.5477 92.9863 44.7714C94.6975 44.7887 96.4086 44.7837 98.1196 44.7563C98.1161 43.2788 98.2019 42.0984 99.2052 40.9951C99.8898 40.2423 100.837 39.7773 101.805 39.7831C101.86 39.7829 101.914 39.7842 101.968 39.787C102.023 39.7898 102.077 39.7942 102.131 39.8001C102.186 39.8058 102.24 39.8131 102.294 39.8219C102.348 39.8309 102.401 39.8412 102.455 39.8531C102.508 39.8649 102.561 39.8782 102.614 39.893C102.667 39.9078 102.719 39.924 102.771 39.9417C102.823 39.9594 102.875 39.9786 102.926 39.9991C102.977 40.0198 103.028 40.0418 103.078 40.0652C103.129 40.0887 103.178 40.1134 103.227 40.1395C103.276 40.1657 103.325 40.1932 103.373 40.2221C103.421 40.251 103.468 40.2812 103.514 40.3127C103.561 40.3442 103.607 40.377 103.652 40.411C103.697 40.4451 103.741 40.4804 103.784 40.5168C103.828 40.5534 103.87 40.5911 103.912 40.6299C103.954 40.6689 103.995 40.7089 104.035 40.75C104.075 40.7912 104.114 40.8334 104.152 40.8768C105.663 42.6019 105.09 45.0768 105.195 47.2339L105.2 47.7635C109.416 47.7629 113.643 47.6908 117.859 47.766C120.024 47.7624 124.193 47.4945 126.094 47.9372C126.939 48.1339 127.711 48.4717 128.324 49.1629C128.492 49.3521 128.674 49.5495 128.678 49.8302C129.22 50.1404 129.559 51.0406 129.732 51.6601C129.842 52.0521 129.897 52.4513 129.918 52.8606C129.985 54.2353 130.098 66.9325 129.831 67.4934C129.811 67.5344 129.788 67.5731 129.767 67.6128C130.164 68.4194 129.925 77.9872 129.92 79.6894C129.82 80.0254 125.317 85.3498 124.923 85.5553C124.887 85.5735 124.852 85.5891 124.816 85.606C124.844 85.5002 124.861 85.4533 124.875 85.3502C124.969 84.6837 124.832 83.7849 124.444 83.2562C124.096 82.7795 123.563 82.4821 123.031 82.3482C121.348 81.9247 117.451 82.3888 115.395 82.2308C109.303 82.2764 103.212 82.2806 97.1201 82.2435L91.9926 82.2384C90.9237 82.2387 89.8036 82.1735 88.7433 82.339C88.6867 82.3476 88.6304 82.3588 88.5746 82.3724C88.5188 82.3862 88.4636 82.4024 88.409 82.4211C88.3544 82.4399 88.3005 82.4612 88.2475 82.4849C88.1944 82.5085 88.1424 82.5346 88.0913 82.563C88.0401 82.5915 87.9901 82.6222 87.9413 82.6553C87.8925 82.6883 87.845 82.7235 87.7988 82.7609C87.7526 82.7982 87.7078 82.8375 87.6645 82.879C87.6211 82.9204 87.5794 82.9638 87.5394 83.0091C86.8606 83.7735 86.846 84.8399 86.8657 85.8407C85.9328 86.3442 83.3278 90.4333 82.6378 91.4917C81.0637 93.906 79.5314 96.4382 77.8352 98.7431C76.0944 101.108 74.1605 103.291 72.4083 105.643C72.0718 106.095 70.45 108.653 70.2709 108.777L67.1379 108.794C65.1663 108.516 62.9788 108.814 60.9811 108.808C58.8312 108.791 56.6814 108.788 54.5315 108.801C54.0861 109.119 53.6378 109.416 53.5034 110.031C53.1811 111.504 53.4229 116.986 53.4267 118.841L53.4152 130.791C53.4139 132.968 53.3214 135.206 53.4609 137.374C53.4468 138.256 53.7803 139.042 54.3296 139.668C55.3073 140.783 56.4528 140.811 57.7703 140.812L66.9831 140.804C67.0025 141.511 67.0223 142.215 67.0065 142.923C64.2335 142.873 61.4517 142.922 58.6782 142.939C57.0515 142.949 55.1866 143.15 53.6012 142.763C53.4734 142.731 53.3467 142.694 53.2212 142.652C53.0956 142.61 52.9714 142.564 52.8488 142.513C52.726 142.461 52.605 142.406 52.4857 142.345C52.3664 142.285 52.2492 142.22 52.1338 142.151C52.0185 142.082 51.9054 142.008 51.7946 141.931C51.6838 141.853 51.5754 141.771 51.4696 141.685C51.3638 141.599 51.2608 141.509 51.1605 141.415C51.0602 141.322 50.9629 141.224 50.8686 141.123C49.5875 139.751 49.191 138.335 49.17 136.405C49.1045 130.337 49.1581 124.26 49.1446 118.191L49.0879 79.2185L49.0855 61.5496C49.0787 58.9501 48.8734 55.1238 49.1245 52.6533C49.2444 51.4731 49.8611 50.2754 50.6091 49.445C51.2565 48.7264 52.0786 48.1392 52.9775 47.9079C54.5713 47.4977 56.6008 47.7492 58.2374 47.7526L68.2955 47.7985L74.1949 47.7936L74.1798 44.7594C74.1759 43.3403 74.2108 42.0603 75.1637 40.976C75.8021 40.2497 76.6864 39.8819 77.594 39.8771C78.5045 39.8725 79.3761 40.2364 80.0207 40.9588C80.9986 42.0544 81.0386 43.2789 81.0164 44.7309H85.704Z" fill="url(#paint12_linear_9096_23145)"/>
<path d="M61.8413 96.9148C60.9069 96.9405 59.15 97.288 58.4001 96.3653C58.1369 96.0412 58.0103 95.5351 58.0006 95.0488C57.99 94.5226 58.1298 93.9945 58.4025 93.634C58.637 93.3238 58.8998 93.2156 59.2087 93.1627C61.0181 92.8525 63.0249 93.0815 64.8534 93.0797C67.8941 93.0766 70.9623 92.9555 74 93.1249C69.4462 93.4567 64.8495 93.0987 60.2866 93.3044C60.8851 94.6038 60.9824 95.2153 60.9876 96.7525C61.2866 96.7708 61.5529 96.7836 61.8413 96.9148Z" fill="#C1CCF3"/>
<path d="M94.0029 45.0151C95.6583 45.0324 97.3135 45.0274 98.9687 45C98.9686 45.9726 98.9011 47.0245 99 47.9869C97.334 47.9694 95.6661 47.9939 94 48L94.0029 45.0151Z" fill="#0D2359"/>
<path d="M70.1803 86.0734L74.7247 86.039C75.4908 86.0349 76.3922 85.9206 77.1412 86.1036C77.354 86.1557 77.5417 86.2929 77.6916 86.5002C77.914 86.8079 78.0221 87.2647 77.9963 87.6857C77.973 88.0637 77.8417 88.4162 77.6056 88.6387C76.9331 89.2721 71.2676 88.8705 70 88.9147C70.3828 88.621 70.7092 88.4187 70.8905 87.8525C71.0146 87.465 71.0333 87.1416 70.8931 86.7569C70.7316 86.3134 70.5088 86.2259 70.1803 86.0734Z" fill="#7876DD"/>
<path d="M69.789 88.9464C67.996 89.0695 66.1219 88.9425 64.319 88.939C62.6567 88.9358 60.8569 89.0935 59.2096 88.8803C58.8918 88.8392 58.5686 88.7383 58.3275 88.4951C58.0955 88.2609 58.0179 87.8562 58.0025 87.5234C57.9846 87.1422 58.0606 86.7867 58.3202 86.5184C58.5827 86.2468 58.9622 86.1313 59.3121 86.0818C60.4635 85.9189 61.7774 86.0766 62.9493 86.0704C65.2924 86.0579 67.6715 85.9327 70.0093 86.0493C70.4107 86.2048 70.683 86.2941 70.8803 86.7462C71.0516 87.1385 71.0287 87.4682 70.8771 87.8634C70.6556 88.4407 70.2567 88.6469 69.789 88.9464Z" fill="#9FAAE4"/>
<path d="M70.2266 75.7641C70.4619 75.761 70.6965 75.7519 70.9316 75.7467C71.5646 75.7327 72.1336 75.2644 72.7658 75.1188C72.9784 75.1906 73.1783 75.2345 73.4003 75.2707C73.5972 75.1662 73.7911 75.0802 74 75C72.8949 76.1592 71.6964 77.2424 70.5349 78.3491C69.7814 79.0671 69.0583 79.9096 68.1762 80.4817C67.7531 80.7559 67.273 80.9577 66.7593 80.994C65.7104 81.0684 64.9209 80.4387 64.1969 79.7959C63.1263 78.8453 61.9905 77.8784 61 76.8536C62.4405 77.316 68.4433 76.1405 70.2266 75.7641Z" fill="#2F4F84"/>
<path d="M73.3572 93.108C74.3316 93.1029 76.9186 92.6357 77.6225 93.6852C77.8891 94.0825 78.0319 94.6924 77.9939 95.2455C77.9899 95.3033 77.9839 95.3607 77.976 95.4176C77.9679 95.4745 77.9579 95.5306 77.9459 95.5861C77.934 95.6414 77.9202 95.6957 77.9046 95.749C77.8888 95.8023 77.8712 95.8543 77.8519 95.905C77.8326 95.9557 77.8115 96.0048 77.7887 96.0523C77.7659 96.0998 77.7416 96.1455 77.7156 96.1894C77.6897 96.2332 77.6623 96.275 77.6334 96.3149C77.6045 96.3546 77.5743 96.392 77.5428 96.4272C77.2272 96.7747 76.8085 96.846 76.4261 96.8884C74.3585 97.1186 72.182 96.9214 70.103 96.9204C67.2506 96.9188 64.3618 97.0617 61.5143 96.9051C61.2335 96.7737 60.9741 96.7608 60.6828 96.7426C60.6778 95.2025 60.583 94.5898 60 93.2878C64.4444 93.0818 68.9217 93.4405 73.3572 93.108Z" fill="url(#paint13_linear_9096_23145)"/>
<path d="M99.0227 43.9875C99.0193 42.5058 99.1025 41.322 100.076 40.2155C100.74 39.4605 101.658 38.9942 102.598 39.0001C102.651 38.9998 102.704 39.0011 102.756 39.0039C102.809 39.0068 102.862 39.0112 102.914 39.0171C102.967 39.0228 103.02 39.0301 103.072 39.039C103.124 39.048 103.176 39.0584 103.228 39.0702C103.28 39.0821 103.331 39.0954 103.383 39.1102C103.434 39.1251 103.485 39.1413 103.535 39.1591C103.586 39.1769 103.636 39.1961 103.686 39.2167C103.735 39.2374 103.784 39.2595 103.833 39.283C103.882 39.3065 103.93 39.3313 103.978 39.3575C104.025 39.3837 104.072 39.4113 104.119 39.4403C104.165 39.4692 104.211 39.4995 104.256 39.5312C104.301 39.5628 104.346 39.5956 104.389 39.6297C104.433 39.6639 104.476 39.6993 104.518 39.7359C104.56 39.7726 104.601 39.8104 104.642 39.8493C104.682 39.8884 104.722 39.9285 104.761 39.9697C104.799 40.011 104.837 40.0534 104.874 40.0969C106.34 41.8269 105.785 44.3089 105.886 46.4723L105.891 47.0034C106.014 48.8428 106.233 53.2383 105.22 54.6828C104.688 55.4411 103.877 55.8873 103.04 55.9822C102.047 56.0947 101.043 55.6653 100.293 54.9246C98.4148 53.0696 99.2549 49.6173 99.0637 47.1106L99.054 46.9901C98.9548 46.0226 99.0225 44.9652 99.0227 43.9875Z" fill="#DAAD6A"/>
<path d="M66.7636 69.8854L66.8954 69.8389C69.627 68.8621 72.8143 61.6728 75.7088 63.2163C76.8461 63.8227 78.5164 65.4317 78.9012 66.7477C79.072 67.3322 79.0214 67.8368 78.7487 68.3679C78.3205 69.202 74.5297 73.1567 73.671 73.9233C73.4738 74.0083 73.2907 74.0993 73.1048 74.2101C72.8953 74.1718 72.7065 74.1252 72.5058 74.0491C71.909 74.2034 71.3719 74.6997 70.7744 74.7145C70.5524 74.7201 70.3309 74.7297 70.1088 74.733C68.4253 75.1318 62.7585 76.3776 61.3986 75.8875C61.3761 75.8714 61.3524 75.8574 61.3312 75.8395C60.3769 75.0386 58.2132 73.0102 58.031 71.7632C57.8839 70.7557 58.2787 69.7683 58.8197 68.9702C59.4511 68.039 60.362 67.127 61.4533 66.9515C62.2805 66.7679 62.9511 66.9635 63.6454 67.4681C64.7474 68.2692 65.4682 69.4052 66.7636 69.8854Z" fill="#219A86"/>
<path d="M61.6488 75.8881C61.6246 75.8721 61.5991 75.8581 61.5764 75.8404C60.5519 75.0437 58.2288 73.0263 58.0333 71.7859C57.8754 70.7838 58.2992 69.8017 58.8801 69.0079C59.5579 68.0817 60.5359 67.1746 61.7074 67C61.6703 67.032 61.6339 67.0646 61.5963 67.0958C61.2242 67.4052 60.7388 67.5768 60.3428 67.8642C60.7112 67.9991 60.8086 67.9895 60.9732 68.3618C62.1484 71.0204 61.4489 72.4007 64.8085 73.7725C66.1405 74.3164 67.6698 74.7389 69.1073 74.7702C69.7388 74.7839 70.3709 74.6863 71 74.7398C69.1926 75.1365 63.1087 76.3755 61.6488 75.8881Z" fill="#3BA1B0"/>
<path d="M117.986 48.0815C120.129 48.0781 124.254 47.8167 126.135 48.2486C126.971 48.4405 127.735 48.7701 128.342 49.4444C128.508 49.629 128.688 49.8216 128.692 50.0955C129.228 50.3981 129.563 51.2764 129.735 51.8808C129.843 52.2633 129.898 52.6528 129.919 53.0521C129.985 54.3933 130.097 66.7813 129.832 67.3285C129.813 67.3685 129.79 67.4062 129.769 67.445C130.162 68.232 129.926 77.5668 129.92 79.2275C129.822 79.5553 125.367 84.75 124.977 84.9505C124.941 84.9683 124.907 84.9835 124.871 85C124.898 84.8967 124.915 84.851 124.929 84.7505C125.022 84.1001 124.886 83.2232 124.503 82.7075C124.158 82.2423 123.631 81.9522 123.104 81.8216C121.439 81.4083 117.583 81.8611 115.549 81.707C116.498 81.4738 118.782 81.6487 119.877 81.6557C121.393 79.203 123.088 76.8814 124.789 74.5806C126.133 72.7617 127.574 70.8933 128.707 68.9104C128.849 68.6198 128.985 68.3263 129.117 68.0299C129.11 68.008 129.105 67.9853 129.097 67.9641C128.498 66.5336 124.587 64.1039 123.192 63.4647C123.042 63.4572 122.926 63.445 122.783 63.5082C122.699 63.5456 122.603 63.6113 122.514 63.6323C122.048 63.7431 120.404 62.7615 119.94 62.516C119.531 62.2998 119.497 61.8617 119.355 61.4244C119.098 61.7451 118.818 62.046 118.569 62.3723L118.509 62.4509L118.414 62.4324C118.836 61.6308 119.61 60.8401 120.167 60.1358C121.936 57.8959 123.763 55.7141 125.52 53.4623C125.958 52.4339 127.147 51.9344 127.577 50.9321C127.547 50.8855 127.503 50.8087 127.463 50.7649C127.107 50.3634 126.347 50.004 125.896 49.7174C125.185 49.2651 124.458 48.7577 123.667 48.4928C122.408 48.0716 119.567 48.3457 118.129 48.3484C116.59 50.0895 114.689 52.6329 113 54.1003C113.142 53.507 117.249 49.4262 117.943 48.1647C117.958 48.1373 117.972 48.1094 117.986 48.0815Z" fill="#DAAD6A"/>
<path d="M86.5578 44.4207C86.5367 42.3375 86.0406 38.6894 87.5015 37.1191C88.1994 36.3689 89.166 35.9867 90.1531 36.0004C91.2033 36.0148 92.2446 36.4676 92.9639 37.2879C94.4489 38.9819 93.9008 42.3151 93.9026 44.4598L93.8995 47.3455C93.9023 49.4603 94.375 53.4162 92.9191 54.946C92.2705 55.6276 91.3545 55.9888 90.4456 55.9613C90.3797 55.9589 90.314 55.9548 90.2484 55.9489C90.1827 55.943 90.1172 55.9354 90.0519 55.926C89.9866 55.9167 89.9216 55.9057 89.8568 55.8931C89.7921 55.8803 89.7276 55.8658 89.6635 55.8497C89.5994 55.8335 89.5357 55.8157 89.4724 55.7963C89.4092 55.7768 89.3464 55.7556 89.2841 55.7329C89.2219 55.71 89.1601 55.6855 89.0989 55.6594C89.0378 55.6334 88.9773 55.6057 88.9174 55.5765C88.8576 55.5473 88.7985 55.5165 88.7401 55.4841C88.6817 55.4518 88.6241 55.4179 88.5673 55.3824C88.5104 55.3471 88.4544 55.3102 88.3994 55.2719C88.3443 55.2335 88.2901 55.1937 88.2368 55.1525C88.1836 55.1113 88.1314 55.0688 88.08 55.0249C88.0288 54.9809 87.9786 54.9356 87.9295 54.889C87.8803 54.8424 87.8323 54.7945 87.7853 54.7453C87.7385 54.6962 87.6928 54.6459 87.6482 54.5944C86.3087 53.0158 86.68 49.474 86.664 47.4189C85.2922 47.4387 83.8394 47.5657 82.4768 47.4179C82.3118 47.407 82.17 47.4413 82.009 47.4746C81.6721 48.2138 81.8934 49.6394 81.9146 50.4649C81.9512 51.8837 82.1124 53.7881 81.0938 54.8956C80.506 55.5346 79.6029 55.994 78.7545 55.9999C77.7688 56.0067 76.7698 55.6545 76.0698 54.9012C74.4845 53.1951 74.988 49.6968 74.993 47.4455C73.0806 47.4679 70.8816 47.7019 69 47.3794L74.95 47.3746L74.9348 44.4482C74.9309 43.0795 74.966 41.845 75.9271 40.7992C76.5709 40.0987 77.4629 39.744 78.3783 39.7394C79.2965 39.7349 80.1756 40.0859 80.8258 40.7826C81.8121 41.8394 81.8524 43.0204 81.83 44.4207H86.5578Z" fill="#DAAD6A"/>
<path d="M81.072 45H85.9782L86 47.9561C84.5809 47.9549 83.1554 47.926 81.7378 48C81.5741 47.9957 81.4138 47.973 81.2515 47.9534C80.8337 47.4613 81.0598 45.6697 81.072 45Z" fill="#0D2359"/>
<path d="M134.336 75C134.993 75.2617 135.945 76.8207 136.404 77.4617C136.62 77.6375 136.83 77.7824 136.964 78.047L137.111 78.1448C137.452 78.4095 137.875 78.762 138.07 79.1796C138.753 79.7653 139.383 80.4622 140 81.1317C139.912 81.9129 138.716 82.9865 138.166 83.4686C138.142 83.4894 138.117 83.5086 138.094 83.5284C137.244 84.6654 133.543 88.8015 132.671 89.4457C132.302 90.1242 130.777 91.9385 130.146 92.3407C130.383 93.0375 130.438 125.15 130.214 125.889C130.188 125.973 130.138 126.051 130.095 126.126C130.379 126.798 130.312 135.863 130.222 137.197C130.18 137.833 130.077 138.455 129.885 139.056C129.856 139.148 129.824 139.239 129.791 139.329C129.757 139.42 129.721 139.509 129.683 139.598C129.646 139.686 129.607 139.773 129.566 139.859C129.523 139.946 129.48 140.031 129.435 140.114C129.389 140.198 129.342 140.28 129.294 140.362C129.244 140.443 129.193 140.522 129.14 140.6C129.088 140.679 129.033 140.755 128.977 140.831C128.921 140.906 128.863 140.979 128.804 141.051C128.744 141.123 128.683 141.193 128.62 141.262C128.558 141.33 128.494 141.397 128.428 141.462C128.363 141.527 128.296 141.59 128.228 141.651C128.159 141.712 128.089 141.771 128.018 141.829C127.947 141.886 127.874 141.941 127.801 141.994C127.727 142.047 127.652 142.098 127.577 142.147C127.5 142.196 127.423 142.243 127.344 142.288C127.267 142.332 127.188 142.375 127.108 142.415C126.588 142.681 126.062 142.83 125.492 142.88C124.093 143.001 122.664 142.941 121.261 142.94L114.313 142.947L103.959 142.956C102.221 142.95 100.445 143.017 98.711 142.912C94.4197 142.785 90.0713 143.179 85.7921 142.893C83.7645 143.056 81.6403 142.918 79.6013 142.923L67.6201 142.929C67.6359 142.222 67.6161 141.517 67.5967 140.809L58.4179 140.818C57.1052 140.816 55.9639 140.789 54.9899 139.673C54.4426 139.047 54.1103 138.261 54.1244 137.379C53.9853 135.21 54.0775 132.971 54.0788 130.793L54.0903 118.839C54.0865 116.982 53.8456 111.499 54.1667 110.025C54.3007 109.409 54.7473 109.113 55.1911 108.794C57.333 108.782 59.4749 108.784 61.6169 108.801C63.6072 108.808 65.7867 108.509 67.751 108.787L70.8724 108.771C71.0509 108.646 72.6667 106.088 73.0019 105.636C74.7477 103.282 76.6745 101.099 78.4088 98.7325C80.0988 96.4267 81.6255 93.8935 83.1938 91.4782C83.8812 90.4194 86.4766 86.3288 87.4061 85.825C87.3865 84.8239 87.401 83.757 88.0773 82.9923C88.1172 82.947 88.1587 82.9036 88.202 82.8622C88.2451 82.8207 88.2897 82.7813 88.3358 82.744C88.3818 82.7066 88.4291 82.6714 88.4777 82.6384C88.5264 82.6053 88.5762 82.5745 88.6272 82.5461C88.6781 82.5176 88.7299 82.4916 88.7828 82.4679C88.8356 82.4442 88.8892 82.4229 88.9436 82.4041C88.9981 82.3854 89.0531 82.3692 89.1087 82.3554C89.1643 82.3417 89.2204 82.3306 89.2768 82.322C90.3332 82.1564 91.4492 82.2216 92.5141 82.2213L97.6227 82.2264C103.692 82.2636 109.761 82.2594 115.83 82.2137C117.879 82.3717 121.761 81.9075 123.438 82.3312C123.969 82.4652 124.499 82.7627 124.846 83.2396C125.232 83.7684 125.369 84.6676 125.275 85.3344C125.261 85.4375 125.245 85.4844 125.217 85.5903C125.253 85.5733 125.287 85.5577 125.323 85.5395C125.716 85.3339 130.202 80.0075 130.301 79.6713C130.352 79.6425 130.428 79.6026 130.478 79.5651C131.013 79.1679 132.682 77.365 132.78 76.7474C133.304 76.5279 134.096 75.5355 134.336 75Z" fill="#DAAD6A"/>
<path d="M66.3759 113C65.2782 112.936 64.2652 112.417 63.4068 111.583C62.7772 110.971 62.095 110.015 62 109C63.0826 110.834 64.2804 112.078 66.1443 112.441C66.9037 112.589 67.6693 112.51 68.4261 112.613C68.9495 112.76 69.4655 112.762 70 112.774C68.8257 113.115 67.573 112.902 66.3759 113Z" fill="#B7813E"/>
<path d="M125.798 98C126.057 98.5751 126.023 99.8951 125.938 100.597C125.921 100.742 125.885 100.87 125.839 101C125.707 100.894 124.303 100.925 124 100.852C124.473 100.151 125.559 98.8286 125.798 98Z" fill="#0D2359"/>
<path d="M76 124.317L76.0808 124.099C76.7813 123.909 77.7208 124.047 78.4502 124.065C78.5054 124.502 78.3643 124.81 78.3106 125.23C78.2377 125.801 78.2598 126.406 78.3096 126.978L78.1867 127.179C78.6889 127.516 79.1774 127.819 79.7485 127.988C81.4342 128.488 85.06 128.45 86.8489 128.225C88.7848 127.981 89.8422 126.73 91 125.133C90.5146 126.756 89.5296 127.642 88.2764 128.543C87.9808 128.665 87.6784 128.762 87.3693 128.833C87.0603 128.904 86.7481 128.949 86.4329 128.966C85.4328 129.034 84.4092 128.981 83.4072 128.967C81.2395 128.936 79.2927 129.086 77.5575 127.378C76.7901 126.622 76.0625 125.484 76 124.317Z" fill="#B7813E"/>
<path d="M76 124.299L76.0656 124.094C76.6344 123.914 77.3974 124.045 77.9898 124.061C78.0346 124.473 77.92 124.764 77.8764 125.161C77.8172 125.7 77.8351 126.27 77.8756 126.81L77.7758 127C76.9982 126.241 76.4778 125.378 76 124.299Z" fill="#FFEED4"/>
<path d="M62 108.138C64.1375 108.145 66.478 107.834 68.5876 108.123C68.5606 108.135 68.5337 108.146 68.5064 108.157C68.16 108.289 67.9258 108.279 67.5692 108.238L67.3449 108.403L67.3771 108.485C67.5545 108.948 68.2683 111.703 68.4785 111.796C68.6462 111.871 68.8217 111.894 69 111.921L68.7775 112C68.0037 111.907 67.2209 111.978 66.4445 111.845C64.5388 111.518 63.314 110.395 62.2071 108.742C62.1808 108.559 62.0629 108.315 62 108.138Z" fill="#FFEED4"/>
<path d="M115.685 110C116.215 110.723 115.897 111.904 115.979 112.777L115.912 112.884L114.34 114.261C113.73 114.776 113.102 115.277 112.551 115.857C112.17 115.896 111.665 115.893 111.31 116.018C109.113 116.434 106.571 117.185 104.335 116.958C104.211 116.709 104.104 116.456 104 116.198C106.821 115.342 109.688 114.639 112.507 113.769C113.519 112.473 114.579 111.217 115.685 110Z" fill="#3219B0"/>
<path d="M123.569 101C123.95 101.072 125.717 101.041 125.883 101.146C126.029 101.545 126.03 101.751 125.933 102.162C125.946 102.365 125.95 102.537 125.913 102.739C124.921 103.339 122.424 106.571 121.522 107.601C120.248 109.039 118.959 110.461 117.655 111.866L117.602 111.919C117.162 112.279 116.729 112.662 116.276 113C116.199 112.083 116.497 110.843 116 110.085C116.386 109.364 117.023 108.702 117.538 108.091C118.15 107.259 118.909 106.491 119.577 105.71L123.569 101Z" fill="#3219B0"/>
<path d="M116.876 107C117.095 108.103 116.96 110.398 116.944 111.614L116.913 111.678C116.663 112.119 116.415 112.587 116.157 113C116.113 111.879 116.284 110.364 116 109.436C116.22 108.556 116.583 107.746 116.876 107Z" fill="#0D2359"/>
<path d="M83.5278 110C83.6813 111.452 83.5897 113.003 83.5878 114.466C83.584 117.544 83.5392 120.63 83.5818 123.707L87.5233 123.714L88.129 123.735L91 123.733C90.8279 124.08 90.657 124.424 90.5063 124.782C89.3762 126.363 88.3441 127.601 86.4547 127.843C84.7086 128.066 81.1697 128.103 79.5244 127.609C78.9669 127.441 78.4901 127.142 78 126.808L78.12 126.609C78.0713 126.042 78.0498 125.444 78.1209 124.879C78.1733 124.462 78.3111 124.158 78.2572 123.725C80.0041 123.738 81.7587 123.788 83.5045 123.714C83.4469 119.151 83.4688 114.563 83.5278 110Z" fill="url(#paint14_linear_9096_23145)"/>
<path d="M117.085 112.019C118.467 110.631 119.834 109.226 121.184 107.804C122.14 106.787 124.788 103.593 125.839 103C126.087 103.853 125.993 117.14 125.922 119C125.534 117.776 126.223 115.746 125.709 114.723L117.008 114.795C116.986 113.888 117.015 112.978 117.028 112.072L117.085 112.019Z" fill="#2823C5"/>
<path d="M54.0439 119.012L54.1462 119C54.2167 121.3 54.1321 123.602 54.194 125.902C54.3854 125.809 54.621 125.674 54.8301 125.647C55.3848 125.575 57.0217 126.34 57.5954 126.576C60.016 127.574 62.5779 127.793 65.0798 128.478C65.5156 128.597 65.9225 128.802 66.354 128.932C66.8298 129.076 67.3454 129.082 67.7822 129.349C68.1864 128.333 67.4624 126.367 67.9188 125.493C68.062 126.448 67.9729 127.534 67.9694 128.505L67.9537 134.264C67.952 136.503 67.9016 138.755 67.9633 140.991L58.5038 141C57.151 140.998 55.9748 140.971 54.971 139.855C54.407 139.228 54.0645 138.441 54.0791 137.559C53.9358 135.389 54.0308 133.149 54.0321 130.971L54.0439 119.012Z" fill="url(#paint15_linear_9096_23145)"/>
<path d="M134.349 75C135.012 75.2586 135.972 76.7992 136.435 77.4326C136.653 77.6064 136.865 77.7496 137 78.011C136.951 78.4101 136.795 78.58 136.551 78.8717C130.4 86.209 123.856 93.1953 117.498 100.32L111.795 106.74C110.897 107.757 109.961 109.031 108.942 109.891C108.868 109.953 108.853 109.958 108.781 110C107.561 108.747 106.352 107.483 105.152 106.207L105.112 106.206L105.051 105.982C104.763 105.798 104.325 105.89 104 105.907C105.325 104.021 106.832 102.253 108.26 100.458C109.49 100.396 110.725 100.426 111.956 100.432L112.895 99.4271L113.348 98.929C113.928 98.2238 114.555 97.5551 115.161 96.8756C115.734 96.2469 116.315 95.6267 116.843 94.9522C119.335 91.9762 122.075 89.1842 124.659 86.2975C124.906 86.02 125.133 85.8615 125.15 85.4652C125.186 85.4484 125.221 85.4331 125.257 85.4151C125.653 85.2119 130.178 79.9484 130.279 79.6161C130.33 79.5877 130.407 79.5482 130.457 79.5112C130.997 79.1187 132.68 77.3371 132.779 76.7267C133.308 76.5098 134.107 75.5292 134.349 75Z" fill="white"/>
<path d="M108.283 101.033C109.52 100.98 110.762 101.006 112 101.011C110.556 102.204 109.11 103.436 107.516 104.452C106.995 104.783 105.329 105.476 105.158 106L105.119 105.999L105.056 105.806C104.767 105.647 104.327 105.726 104 105.74C105.332 104.111 106.847 102.584 108.283 101.033Z" fill="#9FAAE4"/>
<path d="M117.372 111C117.36 111.97 117.331 112.944 117.353 113.914L125.715 113.837C126.209 114.932 125.546 117.104 125.92 118.413C125.953 120.764 126.083 123.262 125.918 125.595L125.949 132.975C125.954 134.5 126.104 136.227 125.817 137.717C125.661 138.536 125.326 139.334 124.807 139.928C123.455 141.475 119.326 140.887 117.438 140.904L99.0825 140.893C98.9075 138.281 99.0647 135.527 99.0684 132.9L99.0688 130.491L99.0724 128.794C99.077 127.492 99.1758 126.1 99.0171 124.813C99.3316 123.201 99.0623 117.432 99.0661 115.37L103.525 115.331L103.742 115.119L104.466 115.847L104.503 115.958L104.55 115.94C104.65 116.227 104.753 116.507 104.871 116.784C107.012 117.035 109.447 116.202 111.55 115.74C111.89 115.601 112.374 115.605 112.739 115.562C113.267 114.918 113.868 114.362 114.452 113.79L115.958 112.262L116.022 112.143C116.483 111.786 116.925 111.381 117.372 111Z" fill="#2823C5"/>
<path d="M117.453 111C117.441 111.944 117.413 112.892 117.434 113.835L125.718 113.76C126.207 114.826 125.55 116.939 125.921 118.213C125.953 120.5 126.082 122.932 125.919 125.202C125.701 126.253 126.122 129.296 125.753 129.881C123.007 129.831 120.26 129.809 117.513 129.814C117.516 131.864 117.529 133.914 117.55 135.964C117.567 137.279 117.671 138.694 117.538 140L116.022 139.996C116.074 136.638 116.161 133.226 115.998 129.872L107.018 129.943C105.023 129.943 102.99 129.851 101 130.005C101.345 129.448 101.684 128.885 102.017 128.318L102.074 128.3L115.982 128.267L116.01 115.333C114.959 115.325 113.913 115.381 112.864 115.439C113.386 114.813 113.982 114.271 114.561 113.715L116.052 112.228L116.116 112.112C116.572 111.764 117.01 111.371 117.453 111Z" fill="#3219B0"/>
<path d="M115.935 113C115.974 113.286 116.096 113.607 115.851 113.867C115.411 114.065 114.545 113.985 114 113.978L115.935 113Z" fill="#2823C5"/>
<path d="M117 116.024C119.936 116.013 123.022 115.878 125.919 116.389L125.879 116.509L125.948 116.369C125.819 118.217 126.166 128.015 125.891 128.616C125.853 128.696 125.771 128.742 125.711 128.805C124.591 128.77 123.465 128.915 122.343 128.952C120.565 129.011 118.784 128.996 117.006 129L117 116.024Z" fill="#2823C5"/>
<path d="M103.754 116L104.482 116.692L104.519 116.798L104.567 116.781C104.667 117.053 104.77 117.32 104.889 117.583C107.043 117.821 109.493 117.029 111.609 116.59C111.951 116.459 112.437 116.462 112.805 116.421C113.87 116.365 114.933 116.31 116 116.318L115.971 128.95L101.847 128.983L101.789 129L99.0557 128.996C99.0603 127.758 99.1597 126.436 99 125.213C99.3164 123.681 99.0455 118.199 99.0493 116.239L103.535 116.202L103.754 116Z" fill="#2823C5"/>
<path d="M103.454 116L104.137 116.692L104.171 116.798L104.216 116.781C104.31 117.053 104.407 117.32 104.519 117.583C106.537 117.821 108.832 117.029 110.815 116.59L111 116.706C110.295 117.88 109.276 118.931 108.443 119.993C106.146 122.918 103.725 125.822 101.668 128.983L101.613 129L99.0522 128.996C99.0565 127.758 99.1496 126.436 99 125.213C99.2965 123.681 99.0427 118.199 99.0462 116.239L103.25 116.202L103.454 116Z" fill="url(#paint16_linear_9096_23145)"/>
<path d="M103.812 116.024L103.837 116C103.887 116.375 103.94 116.742 104 117.104C103.991 117.118 103.981 117.13 103.972 117.144C103.645 117.65 103.425 118.876 103.033 119L103 118.825C103.066 118.506 103.13 118.229 103.215 117.951L103.812 116.024Z" fill="#3219B0"/>
<path d="M103.619 116L103.982 116.63L104 116.726L103.413 118C103.277 117.997 103.161 117.995 103.031 117.905L103 117.711C103.05 117.183 103.344 116.607 103.51 116.183L103.619 116Z" fill="white"/>
<path d="M116.428 82.0663C118.498 82.2246 122.42 81.7595 124.115 82.184C124.651 82.3182 125.188 82.6162 125.538 83.0939C125.928 83.6237 126.066 84.5244 125.971 85.1924C125.957 85.2957 125.94 85.3426 125.912 85.4487C125.896 85.8505 125.668 86.0111 125.421 86.2924C122.832 89.2187 120.087 92.0491 117.592 95.0658C117.062 95.7496 116.48 96.3783 115.906 97.0156C115.299 97.7044 114.671 98.3823 114.09 99.0972L113.636 99.6021L112.696 100.621C111.463 100.615 110.225 100.585 108.993 100.647C107.563 102.466 106.054 104.259 104.726 106.171C105.052 106.154 105.491 106.061 105.779 106.247L105.841 106.474C105.208 109.228 104.628 112.03 103.879 114.746C103.851 115.033 103.788 115.36 103.823 115.646L103.604 115.851L99.1033 115.889C99.0995 117.878 99.3714 123.445 99.0539 125C98.6189 124.386 98.2806 124.032 97.6193 123.742L91.2644 123.731L88.3393 123.732L87.7222 123.711L83.7063 123.704C83.6629 120.613 83.7085 117.513 83.7125 114.422C83.7144 112.952 83.8077 111.394 83.6513 109.936C83.5418 109.692 83.4198 109.474 83.2511 109.273C82.4007 108.26 77.5322 108.698 76.1192 108.675C74.4184 108.618 72.7023 108.67 71 108.67C71.1803 108.545 72.8131 105.982 73.1518 105.529C74.9158 103.171 76.8627 100.984 78.6152 98.6139C80.3228 96.304 81.8654 93.7664 83.4501 91.347C84.1448 90.2863 86.7673 86.1885 87.7065 85.6839C87.6867 84.681 87.7014 83.6123 88.3847 82.8463C88.425 82.8009 88.467 82.7574 88.5107 82.7159C88.5542 82.6744 88.5993 82.6349 88.6459 82.5975C88.6923 82.56 88.7402 82.5248 88.7893 82.4917C88.8385 82.4586 88.8888 82.4278 88.9403 82.3992C88.9917 82.3707 89.0442 82.3446 89.0976 82.321C89.151 82.2972 89.2051 82.2759 89.2601 82.257C89.3151 82.2383 89.3707 82.222 89.4268 82.2082C89.4831 82.1945 89.5397 82.1834 89.5967 82.1747C90.6641 82.0089 91.7918 82.0742 92.8679 82.0739L98.0299 82.079C104.163 82.1163 110.295 82.112 116.428 82.0663Z" fill="#3219B0"/>
<path d="M117 82L119 82.0092C118.375 83.356 117.734 84.7731 117.015 86L117 82Z" fill="#74B8F8"/>
<path d="M110 98.925C111.072 96.9614 115.802 91.7187 115.96 90C115.952 92.1676 115.746 94.7422 116 96.8614C115.36 97.5691 114.698 98.2655 114.085 99C112.833 98.739 111.282 98.9226 110 98.925Z" fill="#6098F2"/>
<path d="M116.502 82.0668C118.556 82.226 122.448 81.758 124.129 82.1852C124.662 82.3202 125.194 82.6201 125.542 83.101C125.928 83.6342 126.066 84.5406 125.971 85.2129C125.958 85.3169 125.941 85.3641 125.913 85.4709C125.897 85.8752 125.671 86.0369 125.425 86.32C125.295 85.4591 125.549 84.4115 125.149 83.6192C124.899 83.1223 124.422 82.9533 123.966 82.8027C122.33 82.53 120.464 82.74 118.795 82.7412L108.405 82.7288L96.7144 82.7163C94.4951 82.7048 92.1628 82.5283 89.9607 82.7756C89.399 83.0913 88.9956 83.381 88.7779 84.0873C88.2964 85.6491 88.6433 88.6789 88.6263 90.4264C88.6228 92.885 88.5546 95.3689 88.6769 97.8232C89.0552 98.4337 89.378 98.7978 89.9862 99.1172L89.9565 99.3425L88.7089 99.2681L88.7004 100.774L88.7107 101.04L88.6321 101.061L88.6316 114.918L88.63 116.149L88.6324 124L88.0201 123.979L88.0046 85.7076C87.9849 84.6982 87.9994 83.6227 88.6774 82.8517C88.7174 82.806 88.7591 82.7623 88.8024 82.7205C88.8457 82.6787 88.8904 82.639 88.9366 82.6013C88.9827 82.5636 89.0302 82.5282 89.0789 82.4949C89.1277 82.4615 89.1777 82.4305 89.2288 82.4018C89.2798 82.3731 89.3318 82.3468 89.3848 82.323C89.4378 82.2991 89.4915 82.2776 89.546 82.2587C89.6006 82.2398 89.6558 82.2235 89.7115 82.2096C89.7673 82.1958 89.8235 82.1846 89.88 82.1758C90.9392 82.0089 92.058 82.0747 93.1258 82.0744L98.2475 82.0795C104.333 82.117 110.417 82.1128 116.502 82.0668Z" fill="#0D2359"/>
<path d="M88.0941 98C88.6449 98.5658 89.1148 98.9031 90 99.199L89.9568 99.4078L88.1408 99.3389L88.1285 100.734L88.1434 100.981L88.029 101C88.0046 99.9987 87.9547 98.9982 88.0941 98Z" fill="#3219B0"/>
<path d="M123.514 82C123.978 82.1586 124.464 82.3364 124.719 82.8597C125.126 83.6938 124.867 84.7968 125 85.7033C122.384 88.8041 119.61 91.8033 117.088 95C116.946 91.7797 117.022 88.5143 117.007 85.2882C117.79 84.2866 118.487 83.1298 119.167 82.0304C120.605 82.0322 122.081 82.116 123.514 82Z" fill="#6098F2"/>
<path d="M89.5247 82.0214C90.7181 82.0963 97.5419 81.8423 97.9722 82.1833C98.0469 87.769 97.942 93.3577 97.9888 98.9439C95.1926 98.9463 92.3413 99.0807 89.5517 98.9248C88.9075 98.5944 88.5656 98.2178 88.1648 97.5862C88.0354 95.0476 88.1076 92.4784 88.1113 89.9352C88.1293 88.1276 87.7619 84.9937 88.2719 83.3782C88.5025 82.6477 88.9297 82.348 89.5247 82.0214Z" fill="#74B8F8"/>
<path d="M89.529 82.0215C90.7257 82.0966 97.5685 81.8418 98 82.1839C97.9121 84.7689 97.9368 87.3791 97.9663 89.966L91.3952 89.973C90.3138 89.9738 89.189 90.0393 88.1116 89.9634C88.1297 88.1494 87.7612 85.0044 88.2726 83.3831C88.5039 82.65 88.9323 82.3493 89.529 82.0215Z" fill="#C1CCF3"/>
<path d="M99.0129 82.0005C104.671 82.0905 110.341 82.005 116 82L115.998 89.8506C115.845 91.5977 111.281 96.9275 110.247 98.9237C106.527 99.082 102.758 98.9445 99.032 98.9467C98.9658 93.3023 99.0249 87.6463 99.0129 82.0005Z" fill="#74B8F8"/>
<path d="M87.9841 85L88 124L83.9174 123.993C83.8733 120.823 83.9197 117.644 83.9237 114.473C83.9257 112.966 84.0205 111.368 83.8615 109.872C83.7501 109.622 83.6262 109.399 83.4546 109.193C82.5901 108.153 77.6408 108.603 76.2043 108.58C74.4752 108.521 72.7306 108.574 71 108.574C71.1833 108.446 72.8432 105.817 73.1875 105.353C74.9809 102.934 76.9601 100.692 78.7417 98.2607C80.4777 95.8918 82.046 93.2893 83.657 90.8079C84.3632 89.7201 87.0293 85.5175 87.9841 85Z" fill="#FFEED4"/>
<path d="M88.0785 99L89.3211 99.0744L89.3249 99.2484C90.1651 99.549 92.521 99.3587 93.559 99.3648L107.398 99.3851C109.025 99.3934 111.439 99.2021 113 99.447L112.071 100.472C110.853 100.466 109.629 100.435 108.412 100.498C106.999 102.329 105.507 104.132 104.196 106.055C104.518 106.039 104.951 105.945 105.235 106.133L105.297 106.361C104.671 109.131 104.098 111.95 103.359 114.683C103.33 114.972 103.268 115.301 103.303 115.589L103.087 115.795L98.639 115.833C98.6352 117.835 98.9038 123.435 98.5901 125C98.1603 124.382 97.826 124.026 97.1725 123.734L90.8928 123.723L88.0023 123.724L88 115.876L88.0015 114.645L88.0021 100.792L88.0803 100.772L88.0701 100.506L88.0785 99Z" fill="#2823C5"/>
<path d="M97.9845 107C98.0016 109.658 98.0046 112.316 97.9933 114.973C96.3308 114.982 94.6615 114.952 93 115C94.5684 112.298 96.2231 109.536 97.9845 107Z" fill="#2F4F84"/>
<path d="M99.0009 101.005L108 101C106.685 102.64 105.297 104.256 104.077 105.98L99 106L99.0009 101.005Z" fill="#C1CCF3"/>
<path d="M99.1359 106.063L104.015 106.04C104.303 106.022 104.691 105.925 104.945 106.12L105 106.357C104.44 109.234 103.928 112.162 103.267 115C101.863 114.906 100.449 114.959 99.0433 114.969C99.1248 112.275 98.858 109.405 99.1142 106.744L99.1359 106.063Z" fill="#2F4F84"/>
<path d="M99.0228 106.021L104 106C102.284 108.581 100.463 111.205 99 114C99.0205 111.598 99.1744 109.042 99.0006 106.654L99.0228 106.021Z" fill="#7876DD"/>
<path d="M92.2134 116.061C94.1422 116.089 96.071 116.094 98 116.078L97.9129 124L91.1263 123.988L88.0025 123.99L88 116.153L88.0744 116.157C89.0175 115.853 91.069 116.082 92.1345 116.093L92.2134 116.061Z" fill="#2F4F84"/>
<path d="M88 116.147C88.9291 115.863 90.9503 116.077 92 116.087C90.6916 118.072 89.3143 120.012 88.0107 122C88.016 120.052 88.0613 118.094 88 116.147Z" fill="#C1CCF3"/>
<path d="M88.0748 101L97.8889 101.014C98.1519 103.179 97.8601 105.492 97.8997 107.677C96.1197 109.942 94.4474 112.41 92.8625 114.824L92.7431 114.891L92.1594 115.907L92.0815 115.938C91.0296 115.927 89.0044 115.704 88.0735 116L88 115.996L88.0016 114.796L88.0022 101.28L88.0857 101.259L88.0748 101Z" fill="#7876DD"/>
<path d="M88.0017 115C88.6521 115.229 92.1375 115.082 93 115.079L92.3847 115.923L92.3025 115.949C91.1937 115.939 89.0588 115.754 88.0775 116L88 115.997L88.0017 115Z" fill="#3219B0"/>
<path d="M88 101L98 101.013C97.832 102.622 97.9335 104.332 97.9451 105.95L88.0177 106C88.0248 104.417 88.0731 102.823 88.0111 101.242L88 101Z" fill="#C1CCF3"/>
<defs>
<linearGradient id="paint0_linear_9096_23145" x1="90" y1="0" x2="90" y2="180" gradientUnits="userSpaceOnUse">
<stop stop-color="#7D4FA3"/>
<stop offset="0.976" stop-color="#0D2359"/>
</linearGradient>
<linearGradient id="paint1_linear_9096_23145" x1="137.012" y1="75.4064" x2="135.94" y2="73.5768" gradientUnits="userSpaceOnUse">
<stop stop-color="#FEAEB4"/>
<stop offset="1" stop-color="#FFD9BC"/>
</linearGradient>
<linearGradient id="paint2_linear_9096_23145" x1="127.172" y1="103.925" x2="154.819" y2="89.907" gradientUnits="userSpaceOnUse">
<stop stop-color="#0E265D"/>
<stop offset="1" stop-color="#56FFB6"/>
</linearGradient>
<linearGradient id="paint3_linear_9096_23145" x1="132.488" y1="93.5184" x2="138.431" y2="92.9167" gradientUnits="userSpaceOnUse">
<stop stop-color="#1A3669"/>
<stop offset="1" stop-color="#2B938C"/>
</linearGradient>
<linearGradient id="paint4_linear_9096_23145" x1="135.227" y1="129.463" x2="160.323" y2="111.084" gradientUnits="userSpaceOnUse">
<stop stop-color="#1F7472"/>
<stop offset="1" stop-color="#62F8B1"/>
</linearGradient>
<linearGradient id="paint5_linear_9096_23145" x1="127.141" y1="139.742" x2="147.215" y2="130.622" gradientUnits="userSpaceOnUse">
<stop stop-color="#14366A"/>
<stop offset="1" stop-color="#2B9783"/>
</linearGradient>
<linearGradient id="paint6_linear_9096_23145" x1="90.3476" y1="153.452" x2="90.2577" y2="145.339" gradientUnits="userSpaceOnUse">
<stop stop-color="#01052F"/>
<stop offset="1" stop-color="#474245"/>
</linearGradient>
<linearGradient id="paint7_linear_9096_23145" x1="54.5608" y1="147.848" x2="54.192" y2="143.462" gradientUnits="userSpaceOnUse">
<stop stop-color="#655F5D"/>
<stop offset="1" stop-color="#A19587"/>
</linearGradient>
<linearGradient id="paint8_linear_9096_23145" x1="44.6349" y1="134.137" x2="19.4399" y2="112.521" gradientUnits="userSpaceOnUse">
<stop stop-color="#1AA28B"/>
<stop offset="1" stop-color="#F0FFC7"/>
</linearGradient>
<linearGradient id="paint9_linear_9096_23145" x1="128.1" y1="147.697" x2="27.5416" y2="80.5514" gradientUnits="userSpaceOnUse">
<stop stop-color="#0C1037"/>
<stop offset="1" stop-color="#144278"/>
</linearGradient>
<linearGradient id="paint10_linear_9096_23145" x1="48.9129" y1="125.178" x2="40.4068" y2="116.275" gradientUnits="userSpaceOnUse">
<stop stop-color="#2BA990"/>
<stop offset="1" stop-color="#71DFA3"/>
</linearGradient>
<linearGradient id="paint11_linear_9096_23145" x1="51.5189" y1="114.262" x2="35.1082" y2="75.9834" gradientUnits="userSpaceOnUse">
<stop stop-color="#00465E"/>
<stop offset="1" stop-color="#E8F699"/>
</linearGradient>
<linearGradient id="paint12_linear_9096_23145" x1="118.422" y1="105.741" x2="40.3919" y2="83.5314" gradientUnits="userSpaceOnUse">
<stop stop-color="#FBE2C1"/>
<stop offset="1" stop-color="#FCFFFD"/>
</linearGradient>
<linearGradient id="paint13_linear_9096_23145" x1="77.3582" y1="91.9779" x2="60.3058" y2="94.6256" gradientUnits="userSpaceOnUse">
<stop stop-color="#6E48C9"/>
<stop offset="1" stop-color="#AABDE2"/>
</linearGradient>
<linearGradient id="paint14_linear_9096_23145" x1="90.5992" y1="124.115" x2="78.05" y2="126.081" gradientUnits="userSpaceOnUse">
<stop stop-color="#E0A958"/>
<stop offset="1" stop-color="#F7E4C9"/>
</linearGradient>
<linearGradient id="paint15_linear_9096_23145" x1="60.7842" y1="118.875" x2="61.2361" y2="141.011" gradientUnits="userSpaceOnUse">
<stop stop-color="#EEA063"/>
<stop offset="1" stop-color="#8546C6"/>
</linearGradient>
<linearGradient id="paint16_linear_9096_23145" x1="106.237" y1="125.876" x2="100.133" y2="115.839" gradientUnits="userSpaceOnUse">
<stop stop-color="#362CCE"/>
<stop offset="1" stop-color="#4253E3"/>
</linearGradient>
</defs>
</svg>
