<svg width="180" height="180" viewBox="0 0 180 180" fill="none" xmlns="http://www.w3.org/2000/svg">
<rect width="180" height="180" rx="53" fill="url(#paint0_linear_9096_22987)"/>
<path d="M17.2557 133.522L18.8058 132.201L20.7015 130.562L20.5234 114.339C20.4911 120.959 19.8513 129.292 22.1677 135.627C21.4097 136.52 21.0102 138.092 20.5892 139.147L18.2757 145.027C17.6697 146.593 17.1028 148.19 16.3248 149.701C13.7689 145.994 12.1665 141.274 11.6938 137.02C11.4322 134.666 11.5475 132.294 11.586 129.934C11.6336 127.175 11.6582 124.415 11.6597 121.656L20.4171 108.711L17.2557 133.523L12.0346 135.204C12.0628 134.821 12.3468 133.979 12.3468 133.979C12.3468 133.979 12.4197 133.896 12.5652 133.897L12.635 134.124L12.0346 132.641C11.9942 132.446 12.612 133.81 12.7113 133.624L15.1888 126.041L17.2557 133.522L18.8058 132.201C18.8058 132.201 19.941 131.093 20.7015 130.564C20.7631 130.232 20.6854 127.147 20.6567 126.481C20.553 124.064 20.3489 121.72 20.3282 119.298C20.2981 115.765 20.3852 112.242 20.4171 108.711L17.2557 133.523C12.2145 168.724 17.2557 133.522 17.2557 133.522Z" fill="#91518B"/>
<path d="M129.571 13.1473C129.547 13.1156 129.524 13.0826 129.499 13.0521C129.229 12.7308 127.181 12.3632 126.687 12.2893L126.617 12.187C126.757 12.1232 126.875 12.1016 127.024 12.0764C127.213 12.0447 127.369 11.9963 127.548 11.9324C128.546 11.577 129.721 11.5172 130.773 11.3954C136.789 10.6986 142.741 11.8046 148.17 14.4467C148.428 14.572 148.685 14.7005 148.941 14.8321C149.196 14.9637 149.45 15.0983 149.702 15.2361C149.955 15.3739 150.205 15.5148 150.454 15.6587C150.703 15.8026 150.95 15.9495 151.195 16.0994C151.44 16.2494 151.683 16.4023 151.925 16.5582C152.166 16.714 152.405 16.8728 152.643 17.0346C152.881 17.1963 153.116 17.3609 153.35 17.5284C153.583 17.6959 153.815 17.8662 154.044 18.0394C154.273 18.2125 154.501 18.3884 154.726 18.5671C154.951 18.7458 155.174 18.9272 155.394 19.1113C155.615 19.2954 155.833 19.4822 156.049 19.6717C156.265 19.8612 156.479 20.0533 156.691 20.2479C156.902 20.4426 157.111 20.6398 157.317 20.8396C157.524 21.0394 157.728 21.2417 157.93 21.4464C158.131 21.6512 158.33 21.8585 158.527 22.0681C158.723 22.2778 158.917 22.4898 159.109 22.7041C159.3 22.9184 159.489 23.1351 159.675 23.3541C159.861 23.5732 160.045 23.7944 160.225 24.0177C160.406 24.2412 160.584 24.4668 160.759 24.6946C160.934 24.9225 161.107 25.1524 161.276 25.3844C161.446 25.6164 161.612 25.8505 161.776 26.0867C161.94 26.3227 162.101 26.5607 162.259 26.8009C162.417 27.0409 162.572 27.2827 162.724 27.5265C162.877 27.7703 163.026 28.016 163.172 28.2635C163.318 28.5109 163.461 28.7601 163.601 29.0111C163.741 29.262 163.878 29.5146 164.012 29.7689C164.146 30.0232 164.276 30.2791 164.404 30.5366C164.532 30.7941 164.656 31.0532 164.777 31.3137C164.899 31.5742 165.017 31.8362 165.132 32.0996C165.247 32.3629 165.358 32.6277 165.467 32.8938C165.575 33.16 165.68 33.4275 165.782 33.696C165.884 33.9648 165.983 34.2347 166.078 34.5059C166.984 37.1277 167.499 39.6642 167.667 42.435C167.709 43.1309 167.781 43.8525 167.703 44.5461C167.848 52.6057 167.741 60.6864 167.729 68.7482L167.716 105.994L167.691 127.863L167.703 134.321C167.708 135.939 167.752 137.56 167.589 139.171C167.218 142.828 166.166 146.069 164.604 149.366C163.985 148.317 163.353 146.026 162.897 144.788C162.139 142.734 161.274 140.72 160.472 138.683C160.122 137.793 159.805 136.607 159.251 135.839C159.552 134.795 159.797 133.738 159.984 132.667C160.107 131.997 160.183 131.28 160.378 130.628C160.464 129.463 160.594 128.307 160.645 127.139C160.886 121.697 160.737 116.191 160.731 110.741L160.714 84.0354L160.727 61.6799C160.725 57.474 160.942 52.9738 160.52 48.8071C160.425 47.9448 160.298 47.0872 160.139 46.2344C159.981 45.3813 159.792 44.5353 159.571 43.6962C159.351 42.8571 159.101 42.0271 158.82 41.2063C158.539 40.3855 158.228 39.5761 157.888 38.7781C157.755 38.4662 157.618 38.1559 157.478 37.8471C157.338 37.5383 157.195 37.2312 157.048 36.9257C156.901 36.6201 156.751 36.3162 156.598 36.0141C156.444 35.7119 156.287 35.4114 156.127 35.1127C155.966 34.814 155.803 34.5171 155.636 34.222C155.469 33.927 155.298 33.6339 155.125 33.3426C154.951 33.0513 154.775 32.7621 154.595 32.4749C154.415 32.1876 154.231 31.9023 154.045 31.6192C153.859 31.336 153.669 31.0549 153.477 30.776C153.284 30.4969 153.088 30.2202 152.889 29.9456C152.691 29.671 152.489 29.3987 152.284 29.1285C152.079 28.8586 151.871 28.5908 151.66 28.3254C151.449 28.06 151.235 27.7969 151.018 27.5363C150.802 27.2756 150.582 27.0174 150.359 26.7617C150.137 26.506 149.912 26.2528 149.683 26.0021C149.455 25.7513 149.224 25.5032 148.99 25.2577C148.757 25.0122 148.52 24.7693 148.281 24.5291C148.042 24.2887 147.8 24.0511 147.555 23.8163C147.311 23.5814 147.064 23.3493 146.814 23.12C146.564 22.8908 146.312 22.6643 146.058 22.4406C145.803 22.2169 145.546 21.996 145.286 21.7781C145.026 21.5601 144.764 21.3451 144.5 21.1331C144.235 20.921 143.968 20.7119 143.699 20.5058C143.43 20.2996 143.159 20.0966 142.885 19.8965C142.611 19.6965 142.335 19.4995 142.057 19.3055C141.779 19.1117 141.499 18.921 141.217 18.7334C140.934 18.5458 140.65 18.3613 140.363 18.18C140.077 17.9987 139.788 17.8207 139.498 17.6458C139.207 17.471 138.915 17.2995 138.621 17.1312C138.327 16.963 138.03 16.798 137.732 16.6363C137.434 16.4746 137.135 16.3163 136.833 16.1613C136.532 16.0064 136.228 15.8548 135.923 15.7066C134.938 15.2169 133.936 14.7387 132.905 14.3535C131.857 13.9618 130.759 13.6461 129.728 13.2141L129.571 13.1473Z" fill="url(#paint1_linear_9096_22987)"/>
<path d="M162.388 143.024L162.376 142.908L162.395 143.036L162.439 142.962L162.315 142.94C162.433 142.882 162.499 142.88 162.558 142.758C162.58 142.711 162.601 142.664 162.623 142.618C162.749 142.351 162.807 142.173 162.803 141.872C162.798 141.461 162.805 141.142 163.023 140.784C163.241 140.602 163.402 140.592 163.672 140.566C163.81 140.553 163.826 140.518 163.934 140.437C163.976 140.148 164.036 139.893 164.128 139.615C164.543 139.226 164.818 139.657 165.236 139.818C165.551 139.94 166.231 139.129 166.606 139.14C166.854 139.147 167.032 139.419 167.353 139.398C167.875 138.589 167.285 133.06 167.297 131.608L167.557 103.976L167.563 66.9451L167.561 52.5224C167.561 50.0126 167.431 47.4228 167.574 44.9215C167.583 44.764 167.624 44.6798 167.703 44.5469C167.848 52.6064 167.741 60.6871 167.728 68.749L167.715 105.995L167.691 127.864L167.703 134.322C167.708 135.939 167.752 137.561 167.589 139.172C167.218 142.829 166.166 146.07 164.604 149.367C163.985 148.317 163.353 146.027 162.897 144.789C162.139 142.734 161.274 140.721 160.472 138.684C160.122 137.794 159.805 136.608 159.251 135.84C159.552 134.796 159.796 133.738 159.984 132.668C160.107 131.998 160.182 131.281 160.377 130.629L160.472 130.707C160.439 132.342 159.863 134.225 159.453 135.807C159.871 136.543 160.127 137.422 160.44 138.213C161.073 139.823 161.722 141.427 162.388 143.024Z" fill="#91518B"/>
<path d="M20.2306 106.684C20.3317 108.312 20.2932 109.963 20.3058 111.595C20.3248 114.059 20.3623 116.528 20.3234 118.992C21.9466 117.314 23.5972 115.664 25.2753 114.041L25.3172 114.18C24.2922 115.375 23.0642 116.412 21.9837 117.559C23.6912 117.567 23.7214 117.041 24.9271 116.874C25.5939 116.781 26.4228 117.181 27.0933 117.29C27.605 117.372 28.149 117.139 28.7038 117.204C29.4836 116.426 30.0255 115.449 30.8163 114.662L30.9545 114.67C30.2113 115.688 29.3478 116.617 28.5867 117.622C26.6468 120.182 24.94 122.868 23.571 125.773C23.3454 126.197 23.1549 126.628 22.9659 127.069C22.5027 128.165 22.0823 129.278 21.7049 130.407C21.4716 131.111 21.2914 131.875 21.007 132.556C20.036 127.68 20.2165 122.846 20.2199 117.902C20.2223 114.166 20.1445 110.419 20.2306 106.684Z" fill="#91518B"/>
<path d="M23.2391 127.28C27.0284 126.268 30.761 126.381 34.5813 127.058C32.2918 133.467 32.3264 143.529 32.1672 150.497C32.1326 152.009 32.1519 153.542 32.0553 155.05C26.6452 148.955 22.7757 142.05 21.2808 133.481C21.5651 132.711 21.7452 131.848 21.9784 131.053C22.3558 129.777 22.776 128.52 23.2391 127.28Z" fill="#C7B3D7"/>
<path d="M20.2395 71.125C20.4754 71.5885 20.335 93.4336 20.3393 96.1373C24.362 92.2499 28.3475 88.3248 32.2958 84.362C34.4052 82.2718 36.4764 80.1406 38.6596 78.1269C39.7277 80.5525 40.7008 82.9995 41.6924 85.4563C42.3514 87.0887 43.1733 88.785 43.5363 90.5098C43.8601 92.0484 43.8183 93.5654 43.9763 95.1146L43.955 95.1747C43.9559 96.5321 43.6216 98.466 43.2433 99.7786C43.0076 99.591 42.7762 99.3977 42.5233 99.2338C41.5559 100.883 40.5718 102.521 39.571 104.15C38.8039 105.407 37.8735 106.73 37.3611 108.11C37.1918 108.717 36.019 109.496 35.5124 109.925C33.8371 111.346 32.4018 113.026 30.9546 114.67L30.8164 114.663C30.0256 115.449 29.4837 116.427 28.7039 117.205C28.1491 117.14 27.6051 117.373 27.0934 117.29C26.423 117.182 25.594 116.782 24.9272 116.875C23.7216 117.042 23.6913 117.568 21.9838 117.56C23.0643 116.413 24.2923 115.376 25.3173 114.181L25.2755 114.042C23.5973 115.665 21.9467 117.315 20.3235 118.993C20.3624 116.529 20.3249 114.06 20.3059 111.596C20.2933 109.964 20.3318 108.313 20.2307 106.684C20.1727 104.991 20.2214 103.278 20.221 101.583L20.2428 90.5805C20.2441 84.1075 20.0804 77.5943 20.2395 71.125Z" fill="#2F4F84"/>
<path d="M29.0028 97.4961C29.0284 97.5003 29.0546 97.5033 29.0799 97.5091C29.3656 97.5755 29.4728 97.6717 29.6198 97.908C29.6233 98.2084 29.5336 98.3367 29.3712 98.5722C29.0912 98.4676 28.9544 98.4056 28.7767 98.1632C28.7525 97.8826 28.8662 97.7267 29.0028 97.4961Z" fill="#FFEED4"/>
<path d="M29.4738 106.325C29.7775 106.319 30.1614 106.361 30.3919 106.584C30.5401 106.728 30.5884 106.878 30.5919 107.077C30.5981 107.431 30.3312 107.665 30.102 107.897C29.976 107.924 29.9326 107.939 29.7949 107.941C29.5826 107.945 29.3131 107.807 29.1858 107.646C29.054 107.479 29.022 107.272 29.0299 107.067C29.0435 106.713 29.237 106.554 29.4738 106.325Z" fill="#7C5EB1"/>
<path d="M43.9546 95.1758C43.9555 96.5332 43.6212 98.4671 43.2429 99.7797C43.0072 99.5921 42.7759 99.3988 42.5229 99.2349C41.5555 100.884 40.5714 102.522 39.5707 104.151C38.8036 105.408 37.8731 106.731 37.3607 108.111C37.1915 108.719 36.0187 109.497 35.5121 109.926C33.8367 111.347 32.4014 113.027 30.9542 114.672L30.8161 114.664C30.0252 115.451 29.4833 116.428 28.7035 117.206C28.1488 117.141 27.6047 117.374 27.093 117.292C26.4226 117.183 25.5936 116.783 24.9269 116.876C23.7212 117.043 23.6909 117.569 21.9834 117.561C23.0639 116.414 24.2919 115.377 25.3169 114.182L25.2751 114.043C26.0357 112.974 27.2233 111.996 28.1452 111.051L34.8323 104.238C37.1857 101.863 39.4262 99.3877 41.8382 97.0704C42.4907 96.4433 43.1881 95.6493 43.9546 95.1758Z" fill="#7C5EB1"/>
<path d="M159.643 50.3984C159.841 52.8494 159.715 55.3962 159.717 57.857L159.715 71.9167L159.709 86.9987C159.707 89.427 159.838 91.9449 159.691 94.3648C159.812 98.361 159.712 102.392 159.708 106.392C158.671 107.436 157.382 108.527 156.521 109.709L153.82 112.598C153.71 110.31 153.773 107.998 153.723 105.705C153.845 104.907 153.766 104.008 153.758 103.199L153.705 98.5787C153.041 98.2616 152.358 97.2371 151.825 96.6934C150.069 94.9008 148.293 93.1307 146.556 91.3173C145.329 90.0357 144.088 88.5586 142.719 87.4341L142.675 87.2983C141.9 86.547 141.129 85.7964 140.39 85.0094C139.667 84.5968 134.724 79.1362 133.653 78.1149C133.425 77.8363 133.164 77.5821 132.915 77.322C134.67 75.684 136.331 73.9447 138.05 72.2686C138.771 71.565 139.519 70.7198 140.35 70.1489C142.366 68.1516 144.371 66.0767 146.307 64.0018C147.05 63.2052 147.735 62.3472 148.493 61.5663C149.013 61.0311 149.639 60.6011 150.173 60.0805C150.777 59.4932 151.314 58.8242 151.899 58.2154C152.953 57.1179 154.055 56.0626 155.131 54.9863C155.991 54.1346 156.842 53.2731 157.682 52.4018C158.322 51.7266 158.927 50.9945 159.643 50.3984Z" fill="#2F4F84"/>
<path d="M132.915 77.3215C134.67 75.6836 136.331 73.9443 138.05 72.2682C138.771 71.5645 139.519 70.7194 140.35 70.1484C138.837 71.8621 137.072 73.3542 135.49 75.0077C135.076 75.4403 134.58 75.8562 134.247 76.3556C134.146 76.5078 134.126 76.5996 134.137 76.7807C134.167 77.2887 134.204 77.7482 134.148 78.2578C135.049 79.5965 140.177 84.1983 140.39 85.009C139.667 84.5964 134.724 79.1358 133.653 78.1145C133.425 77.8359 133.164 77.5817 132.915 77.3215Z" fill="#656CDD"/>
<path d="M150.336 60.2617C151.237 61.3296 151.182 61.7935 152.59 62.4836C151.452 63.0009 150.926 63.5581 150.467 64.7046C150.293 64.5436 150.173 64.2715 150.038 64.072C149.552 63.3532 148.991 62.8773 148.258 62.4288C149.369 61.9044 149.888 61.3987 150.336 60.2617Z" fill="white"/>
<path d="M153.659 94.0078C154.056 95.1752 153.79 97.3392 153.812 98.6158C155.518 100.493 157.31 102.306 159.038 104.159C159.184 104.316 159.349 104.471 159.56 104.51C159.719 103.855 159.623 103.095 159.62 102.419C159.613 101.031 159.425 95.1813 159.69 94.3647C159.812 98.3609 159.712 102.392 159.708 106.391C158.671 107.436 157.382 108.527 156.521 109.709L153.82 112.598C153.71 110.309 153.773 107.998 153.723 105.704C153.845 104.907 153.765 104.008 153.757 103.199L153.705 98.5785C153.675 97.055 153.66 95.5315 153.659 94.0078Z" fill="#927999"/>
<path d="M142.675 87.2979C142.649 85.2599 142.403 80.1533 142.852 78.4359C142.88 78.3299 142.912 78.2249 142.947 78.1209C142.982 78.017 143.02 77.9143 143.062 77.813C143.104 77.7115 143.148 77.6115 143.197 77.5129C143.245 77.4144 143.296 77.3175 143.351 77.2223C143.405 77.1272 143.463 77.0339 143.523 76.9425C143.584 76.8511 143.647 76.7617 143.714 76.6744C143.78 76.5871 143.85 76.5021 143.922 76.4192C143.993 76.3365 144.068 76.2561 144.145 76.1782C144.212 76.1107 144.28 76.0448 144.349 75.9806C144.419 75.9165 144.49 75.8541 144.563 75.7934C144.635 75.7327 144.709 75.6738 144.785 75.6168C144.86 75.5597 144.937 75.5045 145.016 75.4513C145.094 75.398 145.173 75.3467 145.254 75.2974C145.335 75.2479 145.417 75.2006 145.5 75.1553C145.583 75.11 145.667 75.0667 145.752 75.0254C145.838 74.9842 145.924 74.9451 146.011 74.9082C146.098 74.8712 146.186 74.8363 146.275 74.8038C146.364 74.7711 146.453 74.7406 146.544 74.7124C146.634 74.6841 146.725 74.6581 146.817 74.6343C146.908 74.6105 147 74.589 147.093 74.5698C147.186 74.5506 147.279 74.5336 147.372 74.519C147.466 74.5042 147.56 74.4918 147.654 74.4817C147.748 74.4718 147.842 74.464 147.937 74.4585C148.031 74.4531 148.126 74.45 148.221 74.4492C148.309 74.4495 148.398 74.4519 148.486 74.4564C148.574 74.4609 148.662 74.4675 148.75 74.4763C148.838 74.4852 148.926 74.4961 149.014 74.5092C149.101 74.5223 149.188 74.5375 149.275 74.5549C149.362 74.5721 149.448 74.5915 149.534 74.613C149.619 74.6345 149.705 74.658 149.789 74.6837C149.874 74.7094 149.958 74.7371 150.041 74.7669C150.125 74.7966 150.207 74.8284 150.289 74.8621C150.371 74.8959 150.452 74.9316 150.532 74.9692C150.612 75.0069 150.691 75.0465 150.769 75.088C150.847 75.1296 150.924 75.173 151 75.2183C151.076 75.2635 151.151 75.3106 151.225 75.3596C151.298 75.4085 151.371 75.4591 151.442 75.5116C151.513 75.564 151.583 75.6182 151.652 75.6741C151.72 75.7298 151.788 75.7873 151.853 75.8465C151.919 75.9056 151.984 75.9662 152.046 76.0284C152.132 76.1136 152.215 76.2017 152.295 76.2926C152.375 76.3836 152.451 76.4771 152.524 76.5734C152.598 76.6697 152.668 76.7684 152.734 76.8694C152.801 76.9705 152.863 77.0738 152.923 77.1793C152.982 77.2847 153.037 77.3921 153.089 77.5013C153.141 77.6106 153.189 77.7216 153.233 77.8342C153.277 77.9469 153.318 78.0609 153.354 78.1763C153.39 78.2917 153.422 78.4083 153.45 78.5259C153.876 80.3228 153.648 82.4953 153.645 84.3504C153.64 87.5679 153.61 90.7907 153.659 94.0077C153.66 95.5314 153.675 97.0549 153.705 98.5784C153.041 98.2612 152.357 97.2368 151.825 96.6931C150.068 94.9005 148.292 93.1304 146.556 91.317C145.329 90.0354 144.087 88.5583 142.718 87.4338L142.675 87.2979Z" fill="#7ABBE2"/>
<path d="M37.5318 107.82C37.5889 107.977 37.6486 108.086 37.7572 108.207C41.4798 112.36 45.3958 116.288 49.0071 120.566C49.1328 120.547 49.3325 120.523 49.445 120.464C49.9025 120.222 54.0791 115.344 54.7912 114.498C55.3296 113.858 56.0204 112.751 56.7326 112.404L62.7812 119.097C64.3442 120.929 65.8264 122.861 67.3167 124.765C66.886 125.514 66.472 126.329 65.9577 127.013C68.5075 129.411 71.3133 131.518 74.0065 133.722C74.2162 133.885 74.4245 134.062 74.6447 134.208C75.088 134.704 75.1146 135.663 75.3328 136.287C76.1211 137.451 76.9458 140.628 77.4256 142.115C78.3336 144.973 79.2097 147.843 80.0539 150.725C80.5624 152.476 81.0051 154.276 81.5642 156.007C81.8662 157.043 82.2988 158.174 82.4828 159.235C83.5273 162.527 84.2364 165.895 85.1232 169.232C83.9903 169.293 82.8567 169.296 81.7228 169.305L78.3067 169.28L68.1179 169.232C65.3538 169.221 62.5832 169.284 59.8283 169C49.9354 167.979 39.0299 163.298 31.9233 155.56C32.0205 154.096 32.0011 152.609 32.0359 151.141C32.1961 144.379 32.1613 134.615 34.4645 128.395C30.6213 127.738 26.8663 127.629 23.0542 128.611C23.2442 128.128 23.4359 127.655 23.6627 127.19C25.0395 124.005 26.7561 121.06 28.7072 118.251C29.4727 117.15 30.3411 116.131 31.0885 115.014C32.544 113.212 33.9875 111.369 35.6725 109.811C36.182 109.34 37.3615 108.486 37.5318 107.82Z" fill="url(#paint2_linear_9096_22987)"/>
<path d="M77.2206 157.464C77.2267 157.419 77.2336 157.374 77.2388 157.328C77.3253 156.592 77.2267 155.917 77.1431 155.194C77.9109 154.636 79.4189 155.868 80.2494 156.142C80.3306 156.9 80.359 158.088 80.5667 158.74L80.6311 158.699C80.9665 160.562 81.5617 167.285 81.5766 169.308L78.187 169.27C78.023 165.322 77.4257 161.416 77.2206 157.464Z" fill="#7F4F52"/>
<path d="M65.6249 125.613C68.1602 127.801 70.95 129.721 73.6278 131.731C73.8363 131.881 74.0434 132.042 74.2624 132.175C74.7031 132.627 74.7296 133.502 74.9465 134.071C75.3292 136.225 76.0392 138.304 76.6448 140.402C76.6212 140.377 76.5971 140.352 76.5741 140.326C76.3604 140.088 76.2711 139.947 76.2187 139.63C76.1965 139.496 76.215 139.562 76.1459 139.419C76.0731 139.691 76.093 139.871 75.8458 140.019C75.6973 139.984 75.374 139.85 75.2332 139.85C74.8136 139.85 74.2508 140.388 73.8157 140.505C73.6495 140.549 73.605 140.577 73.4909 140.701C72.9941 139.062 72.471 137.431 71.9213 135.808L65.0696 130.376C64.493 129.932 63.9207 129.483 63.3525 129.028C64.139 127.913 64.8462 126.737 65.6249 125.613Z" fill="#0D2359"/>
<path d="M74.9469 134.07C75.7307 135.131 76.5507 138.029 77.0278 139.384C77.9306 141.991 78.8017 144.608 79.6411 147.236C80.1466 148.833 80.5868 150.475 81.1428 152.053C81.443 152.998 81.8732 154.029 82.0562 154.997C83.0947 157.999 83.7997 161.07 84.6814 164.114C83.555 164.169 82.4279 164.172 81.3005 164.181C81.2855 162.94 80.6891 158.817 80.353 157.675L80.2885 157.7C80.0804 157.3 80.0519 156.572 79.9705 156.107C79.1384 155.938 77.6272 155.183 76.8578 155.526C76.9416 155.969 77.0404 156.382 76.9537 156.834C76.9485 156.862 76.9416 156.89 76.9355 156.917C76.1163 151.414 75.075 146.038 73.4912 140.7C73.6053 140.576 73.6498 140.548 73.8161 140.504C74.2511 140.387 74.814 139.849 75.2336 139.849C75.3744 139.849 75.6976 139.983 75.8462 140.018C76.0933 139.87 76.0734 139.69 76.1462 139.418C76.2153 139.561 76.1968 139.495 76.219 139.629C76.2714 139.946 76.3607 140.087 76.5744 140.325C76.5974 140.351 76.6215 140.376 76.6451 140.401C76.0395 138.303 75.3295 136.224 74.9469 134.07Z" fill="url(#paint3_linear_9096_22987)"/>
<path d="M75.3696 133.664C76.155 134.92 76.9766 138.35 77.4546 139.955C78.3592 143.04 79.232 146.138 80.0731 149.249C80.5796 151.14 81.0206 153.084 81.5777 154.951C81.8785 156.07 82.3095 157.291 82.4929 158.436C83.5334 161.99 84.2399 165.626 85.1233 169.229C83.9947 169.294 82.8654 169.297 81.7357 169.308C81.7207 167.839 81.1231 162.958 80.7864 161.606C80.7098 160.259 80.4717 158.878 80.2904 157.545C79.5412 152.035 78.4124 146.509 77.0712 141.159C76.4644 138.675 75.7531 136.214 75.3696 133.664Z" fill="#FFEED4"/>
<path d="M37.3609 108.109C37.4177 108.252 37.4771 108.351 37.585 108.462C41.2864 112.25 45.1802 115.831 48.7709 119.733C48.8958 119.715 49.0945 119.694 49.2063 119.64C49.6612 119.419 53.814 114.971 54.5221 114.199C55.0573 113.616 55.7443 112.606 56.4523 112.289L62.4665 118.393C64.0206 120.064 65.4943 121.826 66.9762 123.562C66.548 124.245 66.1363 124.988 65.6249 125.612C64.8462 126.735 64.1391 127.911 63.3526 129.026C63.9207 129.481 64.4931 129.93 65.0697 130.374C64.357 131.069 63.7274 131.899 63.0835 132.661C61.5678 134.447 60.0946 136.267 58.6638 138.122C56.9544 135.154 55.0833 132.287 53.28 129.376C50.4668 124.835 47.8789 120.346 44.1165 116.5C41.5522 118.457 37.6007 123.073 36.6344 126.118C36.8042 126.198 36.973 126.28 37.1408 126.364C37.3086 126.447 37.4754 126.533 37.6411 126.621C37.8068 126.709 37.9714 126.799 38.135 126.891C38.2985 126.983 38.4609 127.076 38.6221 127.172C38.7834 127.268 38.9435 127.366 39.1024 127.466C39.2613 127.565 39.4189 127.667 39.5752 127.771C39.7315 127.874 39.8866 127.98 40.0405 128.087C40.1943 128.194 40.3467 128.304 40.4979 128.415C40.6491 128.526 40.7988 128.639 40.9472 128.753C41.0957 128.868 41.2427 128.985 41.3882 129.103C41.5338 129.221 41.6779 129.342 41.8205 129.463C41.9631 129.585 42.1042 129.709 42.2438 129.834C42.3833 129.959 42.5214 130.086 42.6579 130.215C42.7944 130.344 42.9294 130.474 43.0627 130.606C43.1961 130.738 43.3278 130.871 43.4579 131.006C43.588 131.142 43.7164 131.278 43.8432 131.417C43.9699 131.555 44.0949 131.695 44.2183 131.836C44.3416 131.977 44.4632 132.12 44.583 132.264C44.7029 132.409 44.821 132.554 44.9372 132.702C45.0535 132.849 45.168 132.997 45.2807 133.147C45.3935 133.297 45.5043 133.448 45.6133 133.601C45.7223 133.754 45.8294 133.908 45.9346 134.063C46.0399 134.218 46.1432 134.375 46.2445 134.533C46.346 134.69 46.4455 134.85 46.543 135.01C46.6405 135.17 46.7361 135.331 46.8297 135.494C46.9233 135.656 47.015 135.82 47.1046 135.985C47.1942 136.15 47.2817 136.316 47.3672 136.482C47.4529 136.649 47.5365 136.817 47.6179 136.986C47.6994 137.155 47.7787 137.325 47.8561 137.496C47.9334 137.667 48.0087 137.839 48.0818 138.012C48.1549 138.184 48.2259 138.358 48.2948 138.532C48.3637 138.707 48.4305 138.882 48.4952 139.058C48.7144 139.668 48.863 140.3 49.0498 140.921L48.9771 140.911C48.898 140.573 48.8231 140.254 48.687 139.932C48.0667 138.465 47.6133 137.023 46.7789 135.647C46.0823 134.498 45.1979 133.509 44.4725 132.395C44.2417 132.334 44.1824 132.366 43.9492 132.434L43.8344 132.56C44.2659 133.575 44.9919 134.506 45.4693 135.519C46.6631 138.053 47.4738 140.881 48.0966 143.6C48.2024 144.063 48.4137 144.443 48.4191 144.93L48.368 144.969L48.3344 144.801C47.5269 140.838 45.8576 135.483 43.3802 132.251C43.1465 131.949 42.9006 131.658 42.6426 131.378C42.3844 131.097 42.115 130.828 41.8344 130.57C41.5536 130.312 41.2625 130.066 40.9611 129.833C40.6597 129.599 40.349 129.379 40.0291 129.171C38.8072 128.371 37.5413 127.83 36.148 127.407C35.5341 127.234 34.9218 127.056 34.3111 126.872C30.4898 126.273 26.7562 126.173 22.9658 127.069C23.1548 126.628 23.3453 126.197 23.5709 125.774C24.9398 122.869 26.6467 120.183 28.5866 117.622C29.3477 116.617 30.2112 115.688 30.9544 114.67C32.4016 113.026 33.8368 111.345 35.5122 109.925C36.0188 109.495 37.1916 108.717 37.3609 108.109Z" fill="#C7B3D7"/>
<path d="M23.5709 125.774L23.7227 125.766C24.5385 125.716 25.3779 125.445 26.1965 125.341C29.5778 124.911 33.3777 124.818 36.5855 126.123C36.495 126.446 36.3848 127.205 36.148 127.407C35.5341 127.234 34.9218 127.056 34.3111 126.872C30.4898 126.273 26.7562 126.173 22.9658 127.069C23.1548 126.628 23.3453 126.197 23.5709 125.774Z" fill="#8A79D2"/>
<path d="M56.4525 112.289L62.4666 118.392C64.0207 120.064 65.4945 121.826 66.9763 123.562C66.5481 124.245 66.1364 124.988 65.6251 125.611C64.8464 126.735 64.1392 127.911 63.3528 129.026C62.2056 130.581 61.272 132.381 60.2471 134.024C58.6416 131.791 57.0793 129.582 55.3348 127.449C53.1977 124.837 50.892 122.363 48.771 119.733C48.896 119.715 49.0946 119.693 49.2064 119.639C49.6613 119.419 53.8142 114.971 54.5222 114.199C55.0575 113.615 55.7444 112.605 56.4525 112.289Z" fill="white"/>
<path d="M156.398 109.518C157.253 108.278 158.532 107.134 159.562 106.039L159.587 119.685C159.594 123.186 159.699 126.695 159.323 130.179C158.923 133.2 158.304 135.967 157.408 138.865C156.984 140.04 156.509 141.192 155.982 142.32C155.456 143.447 154.881 144.547 154.256 145.617C154.031 146.009 153.803 146.501 153.528 146.851C152.924 147.815 150.756 151.431 149.943 151.989C149.002 153.412 147.653 154.71 146.435 155.869C141.013 161.032 134.46 164.611 127.255 165.967C123.091 166.752 118.968 166.625 114.755 166.622C109.644 166.619 104.525 166.563 99.4143 166.627C94.6405 166.66 89.8634 166.552 85.0887 166.561C84.2135 163.37 83.5136 160.15 82.4828 157.002C82.3012 155.987 81.8742 154.906 81.5762 153.915C82.2457 153.47 82.8743 152.713 83.4613 152.14C84.9615 150.675 86.4354 149.14 88.0028 147.756C88.4034 147.048 91.4048 144.405 92.1333 143.719C93.677 142.241 96.3849 139.899 97.621 138.329C97.8011 138.19 97.9202 138.062 98.0602 137.882C98.6018 137.465 99.0711 136.939 99.5496 136.445C100.904 135.413 102.921 133.095 104.181 131.801C107.747 128.192 111.264 124.531 114.733 120.818L120.635 114.583C122.005 113.149 123.523 111.742 124.73 110.154C124.895 109.992 125.025 109.864 125.238 109.773C126.498 111.232 127.872 112.59 129.209 113.97C129.785 114.586 130.473 115.522 131.154 115.979C134.348 119.432 137.632 122.903 140.99 126.177C142.367 124.847 143.66 123.378 144.962 121.967C146.483 120.317 148.033 118.686 149.51 116.992C149.997 116.64 150.48 116.016 150.901 115.566L153.717 112.547L156.398 109.518Z" fill="url(#paint4_linear_9096_22987)"/>
<path d="M148.68 123.69C150.309 123.694 151.939 123.687 153.569 123.67C154.565 123.663 155.601 123.603 156.591 123.719C155.62 123.871 154.531 123.786 153.547 123.793C152.528 125.653 150.039 127.27 148.758 128.989C148.631 129.159 148.577 129.251 148.613 129.465C146.725 129.723 144.617 129.541 142.707 129.533C143.77 128.395 144.939 127.343 146.044 126.246C146.896 125.4 147.72 124.406 148.68 123.69Z" fill="#0D2359"/>
<path d="M149.991 137.815C152.509 137.807 155.022 137.82 157.538 137.699C157.111 138.82 156.633 139.918 156.102 140.994C155.572 142.07 154.992 143.118 154.363 144.139C154.136 144.513 153.907 144.982 153.63 145.316C152.281 145.19 150.853 145.279 149.497 145.277C147.134 145.265 144.772 145.269 142.409 145.29C144.895 142.754 147.463 140.308 149.991 137.815Z" fill="#3C28C1"/>
<path d="M156.521 109.708C157.383 108.526 158.671 107.435 159.708 106.391L159.734 119.405C159.741 122.744 159.847 126.091 159.467 129.413C155.866 129.289 152.219 129.449 148.614 129.465C148.577 129.25 148.631 129.159 148.758 128.989C150.039 127.27 152.528 125.652 153.548 123.793C154.531 123.786 155.62 123.871 156.591 123.719C156.497 120.466 156.546 117.202 156.546 113.947C156.546 112.54 156.596 111.112 156.521 109.708Z" fill="#2F4F84"/>
<path d="M89.2646 147.125L88.9972 146.694L89.0778 146.73L88.9971 146.663C89.4731 146.463 114.773 146.524 117.708 146.567C117.086 147.122 115.208 148.604 114.863 149.169C113.978 149.879 113.207 150.714 112.437 151.543C106.097 151.686 99.7305 151.62 93.3874 151.624C92.4684 150.763 91.5963 149.818 90.7747 148.865C90.2915 148.304 89.8217 147.607 89.2646 147.125Z" fill="#A216E9"/>
<path d="M82.4629 155.091L108.177 155.051C107.208 156.636 99.182 168.481 99.0662 169.143L99.1679 169.299C94.4579 169.348 89.7448 169.189 85.0339 169.202C84.1704 164.491 83.4799 159.738 82.4629 155.091Z" fill="url(#paint5_linear_9096_22987)"/>
<path d="M125.129 109.953C126.399 111.345 127.782 112.64 129.13 113.956C129.71 114.543 130.403 115.436 131.089 115.872C134.307 119.165 137.616 122.476 140.998 125.598C139.752 126.576 138.643 127.902 137.515 129.026C134.951 131.582 132.4 134.153 129.593 136.448C129.536 133.218 129.559 129.984 129.548 126.753C128.071 126.411 126.637 125.897 125.155 125.562L125.149 115.742C125.152 113.818 125.21 111.875 125.129 109.953Z" fill="#2F4F84"/>
<path d="M119.39 145.227C122.111 145.351 124.856 145.264 127.581 145.278C132.523 145.307 137.466 145.311 142.409 145.289C144.772 145.268 147.134 145.263 149.497 145.276C150.853 145.277 152.281 145.188 153.63 145.314C153.021 146.234 150.837 149.682 150.018 150.215L149.998 150.02L150.533 149.39L150.418 149.457C150.023 149.685 149.662 149.891 149.209 149.987C147.164 150.418 145.154 150.364 143.096 150.51C138.652 150.825 134.209 151.193 129.75 151.292C127.913 151.333 126.077 151.21 124.239 151.214C121.577 151.22 118.777 151.477 116.179 150.768C115.58 150.605 114.734 150.372 114.41 149.807C114.574 149.656 114.732 149.52 114.814 149.306C114.832 149.261 114.847 149.215 114.863 149.169C115.208 148.603 117.086 147.122 117.708 146.566C118.315 146.188 118.794 145.63 119.39 145.227Z" fill="#0D2359"/>
<path d="M116.115 60.7653L116.455 60.4531C116.706 60.4797 116.915 60.7229 117.097 60.8952C119.922 63.5803 122.536 66.5403 125.216 69.371L128.119 72.3948C128.538 72.829 129.043 73.2692 129.415 73.739C129.438 73.7686 129.456 73.8018 129.477 73.8331C130.692 74.909 131.753 76.184 132.915 77.3209C133.164 77.5811 133.425 77.8353 133.653 78.1139C134.724 79.1352 139.667 84.5958 140.389 85.0084C141.129 85.7953 141.9 86.5459 142.675 87.2972L142.719 87.4331C144.088 88.5576 145.329 90.0347 146.556 91.3163C148.292 93.1296 150.068 94.8997 151.825 96.6924C152.358 97.2361 153.041 98.2605 153.705 98.5776L153.757 103.198C153.765 104.007 153.845 104.906 153.723 105.704C153.773 107.997 153.71 110.309 153.82 112.597L150.983 115.477C150.559 115.906 150.073 116.501 149.581 116.837C148.094 118.453 146.532 120.008 145 121.581C143.688 122.927 142.385 124.329 140.998 125.597C137.615 122.474 134.307 119.164 131.089 115.87C130.403 115.435 129.71 114.542 129.13 113.955C127.782 112.639 126.398 111.344 125.129 109.952C124.914 110.039 124.783 110.161 124.617 110.315C123.401 111.83 121.871 113.172 120.492 114.539L114.546 120.486C111.051 124.027 107.508 127.518 103.916 130.96C102.646 132.195 100.614 134.406 99.2494 135.39C98.7674 135.861 98.2946 136.363 97.7489 136.761C97.608 136.932 97.4879 137.054 97.3065 137.187C96.0613 138.684 93.3332 140.918 91.778 142.328C91.0441 142.982 88.0203 145.503 87.6167 146.178C86.0377 147.498 84.5529 148.961 83.0415 150.359C82.4502 150.906 81.8168 151.628 81.1424 152.052C80.5864 150.474 80.1462 148.832 79.6407 147.235C78.8013 144.607 77.9301 141.99 77.0273 139.383C76.5503 138.028 75.7302 135.13 74.9464 134.069C74.7295 133.5 74.703 132.625 74.2623 132.173C74.0433 132.04 73.8362 131.879 73.6277 131.729C70.9499 129.719 68.16 127.798 65.6247 125.611C66.1361 124.988 66.5478 124.244 66.976 123.561C65.4941 121.826 64.0204 120.064 62.4663 118.392C62.975 117.214 63.1468 115.839 63.6001 114.621C63.7082 114.291 63.8358 113.993 63.9947 113.685C64.7355 112.146 65.3431 110.517 66.0217 108.947C66.6286 107.914 67.1004 106.709 67.5856 105.613C68.1825 104.263 68.8203 102.909 69.3371 101.527C70.3911 101.904 71.4399 102.365 72.5015 102.707C73.0462 102.976 73.6525 103.254 74.253 103.362C74.7399 103.527 75.2345 103.663 75.7369 103.772C76.2393 103.88 76.7462 103.96 77.2576 104.011C79.4445 104.233 81.0815 103.818 82.7905 102.429C83.4505 101.667 83.8346 100.95 84.1669 100.012C85.276 99.6423 88.6909 95.9084 89.7701 94.866L96.5044 88.3029C98.4352 86.4487 100.381 84.6383 102.272 82.7392L111.182 73.7802C112.864 72.0807 114.5 70.3296 116.229 68.6765L116.363 68.4252C116.209 65.8769 116.554 63.2927 116.115 60.7653Z" fill="url(#paint6_linear_9096_22987)"/>
<path d="M97.749 136.76C97.9039 136.381 98.2085 135.906 98.5216 135.638C98.8002 135.399 98.8837 135.379 99.2495 135.389C98.7675 135.86 98.2946 136.362 97.749 136.76Z" fill="#FFEED4"/>
<path d="M84.626 135.468L84.7116 135.47C84.9508 135.474 85.1741 135.462 85.4119 135.437C86.2824 135.346 87.1672 135.523 87.8487 136.094C88.3905 136.548 88.7078 137.083 89.3534 137.429C89.7373 137.635 90.249 137.86 90.5734 138.147C90.9274 138.46 91.6128 139.801 92.1842 139.666L92.248 139.496L92.2127 139.654C92.6318 139.544 92.7624 139.66 93.1252 139.855C93.2458 139.539 93.2238 139.431 93.5569 139.289C93.9218 139.134 94.3616 139.101 94.7076 138.917C95.4587 138.518 96.3207 137.408 97.1279 136.881C97.2817 136.78 97.4207 136.661 97.5612 136.543C97.5796 136.82 97.4062 136.943 97.3067 137.189C96.0614 138.686 93.3333 140.92 91.7782 142.33C90.8286 141.268 89.7129 140.313 88.6688 139.342L84.626 135.468Z" fill="#FFEED4"/>
<path d="M63.9947 113.684C64.9877 114.64 65.9044 115.701 66.794 116.754C67.9618 118.119 69.1423 119.474 70.3353 120.818C70.9242 121.491 71.4797 122.224 72.1005 122.864C72.7082 123.651 73.807 124.653 74.09 125.598L74.0586 125.776C74.0011 127.109 74.5298 131.444 74.2623 132.171C74.0433 132.039 73.8362 131.877 73.6277 131.728C70.9499 129.718 68.16 127.797 65.6247 125.61C66.1361 124.986 66.5478 124.243 66.976 123.56C65.4941 121.824 64.0204 120.062 62.4663 118.391C62.975 117.212 63.1468 115.838 63.6001 114.62C63.7082 114.29 63.8358 113.992 63.9947 113.684Z" fill="#C7B3D7"/>
<path d="M63.9947 113.684C64.9877 114.64 65.9044 115.701 66.794 116.754C67.9618 118.119 69.1422 119.474 70.3353 120.818C70.9242 121.491 71.4797 122.224 72.1005 122.864C72.7082 123.651 73.807 124.653 74.09 125.598L74.0586 125.776C74.0011 127.109 74.5298 131.444 74.2623 132.171C74.0433 132.039 73.8362 131.877 73.6277 131.728C73.6861 129.94 73.4242 128.128 73.2813 126.347C72.2519 124.94 70.7945 123.732 69.615 122.437C67.7239 120.362 65.1053 116.983 63.6001 114.62C63.7082 114.29 63.8358 113.992 63.9947 113.684Z" fill="white"/>
<path d="M74.0586 125.777L81.3388 132.433C82.331 133.346 83.57 134.709 84.6259 135.466L88.6687 139.34C87.5238 139.548 86.1128 139.395 84.9345 139.388C82.3006 139.371 79.6607 139.328 77.0274 139.383C76.5503 138.028 75.7303 135.13 74.9465 134.069C74.7296 133.499 74.703 132.625 74.2623 132.172C74.5299 131.445 74.0011 127.11 74.0586 125.777Z" fill="#3C28C1"/>
<path d="M69.3375 101.527C70.3914 101.904 71.4403 102.365 72.5019 102.707C73.0466 102.976 73.6529 103.255 74.2534 103.363C74.7403 103.528 75.2349 103.664 75.7373 103.772C76.2397 103.881 76.7466 103.961 77.258 104.011C79.4449 104.234 81.0819 103.818 82.7909 102.429C82.6534 102.894 82.1533 103.212 81.7462 103.437C80.9272 103.889 80.0028 104.092 79.091 104.255C78.0258 105.26 77.2081 106.501 76.043 107.413C75.3608 107.812 73.7842 109.619 73.135 110.277C71.0095 112.432 68.8381 114.52 66.7944 116.756C65.9048 115.703 64.9881 114.642 63.9951 113.686C64.7359 112.146 65.3435 110.518 66.0221 108.948C66.629 107.914 67.1008 106.71 67.586 105.613C68.1829 104.263 68.8207 102.91 69.3375 101.527Z" fill="#7C5EB1"/>
<path d="M88.6686 139.34C89.7128 140.31 90.8285 141.265 91.778 142.327C91.0441 142.981 88.0204 145.502 87.6168 146.178C86.0377 147.497 84.5529 148.961 83.0415 150.359C82.4502 150.905 81.8169 151.627 81.1424 152.051C80.5864 150.473 80.1462 148.831 79.6407 147.234C78.8013 144.607 77.9302 141.989 77.0273 139.383C79.6607 139.328 82.3006 139.371 84.9345 139.388C86.1128 139.395 87.5238 139.547 88.6686 139.34Z" fill="#A216E9"/>
<path d="M84.1989 114.366C84.7829 113.522 85.84 112.757 86.5563 111.994C89.3994 108.97 92.4088 106.054 95.3948 103.169C96.5335 102.069 97.6488 100.987 98.7591 99.8584C99.247 99.3625 99.7976 98.8693 100.221 98.3159C100.787 97.5759 101.312 95.8919 101.932 94.9191C102.229 94.4533 102.938 93.2098 103.444 93.1016C100.594 96.8262 99.1669 100.812 99.7951 105.542C99.8508 105.96 99.913 106.378 99.9818 106.795C100.198 107.905 100.492 108.969 100.883 110.031C96.6459 114.395 92.3657 118.717 88.0429 122.997L88.0774 122.958L87.9093 123.125C88.1883 122.385 94.5391 116.541 95.4781 115.404C94.0685 115.507 92.6428 115.496 91.2402 115.614C89.6935 115.743 88.1466 115.995 86.5964 116.066C85.7718 116.103 84.9172 116.106 84.0919 116.073C83.8101 116.062 83.3357 115.953 83.0723 115.997C82.9424 116.019 82.6721 116.196 82.5515 116.261L82.5396 116.178C83.0866 115.57 83.6236 114.948 84.1989 114.366Z" fill="url(#paint7_linear_9096_22987)"/>
<path d="M84.1669 100.011C85.2761 99.6416 88.691 95.9076 89.7702 94.8653L96.5045 88.3021C98.4353 86.448 100.381 84.6376 102.272 82.7385L111.182 73.7794C112.864 72.08 114.5 70.3288 116.229 68.6758L116.266 76.2701C116.271 77.3117 116.135 78.6125 116.325 79.6299C116.2 80.1995 115.998 80.7228 115.786 81.2644C114.416 84.2345 112.712 86.2718 109.916 87.9913C108.68 88.7509 107.411 89.4704 106.252 90.3452C105.502 90.9107 104.853 91.5901 104.213 92.273C103.972 92.5305 103.715 92.8889 103.444 93.1011C102.938 93.2094 102.229 94.4529 101.932 94.9187C101.312 95.8915 100.787 97.5754 100.221 98.3155C99.7974 98.8688 99.2469 99.3621 98.7589 99.858C97.6487 100.986 96.5333 102.068 95.3946 103.168C92.4086 106.053 89.3993 108.969 86.5562 111.994C85.8399 112.756 84.7827 113.522 84.1988 114.366C83.9453 114.204 83.7046 114.097 83.4162 114.011C82.8618 113.845 82.2569 113.781 81.6886 113.666L78.3815 112.994C77.8787 112.896 77.3545 112.697 76.849 112.656C75.6138 112.558 74.3805 112.483 73.147 112.357C72.5693 112.298 72.1713 112.459 71.6188 112.56C71.453 112.59 71.2326 112.647 71.0894 112.553C71.6907 111.961 75.866 107.84 76.0209 107.484C76.0309 107.461 76.0353 107.436 76.0427 107.412C77.2078 106.5 78.0255 105.259 79.0907 104.254C80.0025 104.091 80.927 103.887 81.7459 103.435C82.153 103.211 82.6531 102.893 82.7906 102.428C83.4506 101.666 83.8347 100.95 84.1669 100.011Z" fill="#8A79D2"/>
<path d="M116.325 79.6328L116.4 79.7817C117.023 81.0454 117.436 82.3485 118.193 83.5608C119.143 85.0794 120.553 86.6495 122.134 87.527C123.278 88.1621 124.464 88.6502 125.566 89.3727C126.885 90.2375 127.977 91.3414 129.074 92.4619C130.659 94.4343 132.509 97.5316 132.683 100.106C133.239 102.557 133.012 105.245 132.386 107.658C131.717 109.528 130.513 112.592 129.13 113.957C127.782 112.641 126.399 111.346 125.129 109.954C124.914 110.041 124.783 110.163 124.617 110.318C123.401 111.832 121.872 113.174 120.492 114.541L114.546 120.488C113.706 120.249 112.835 120.13 111.991 119.906C110.856 119.604 109.79 119.146 108.723 118.663C107.292 118.006 106.072 117.039 104.919 115.981C104.684 115.756 104.47 115.507 104.25 115.266C103.14 114.465 101.336 111.374 100.884 110.033C100.492 108.972 100.198 107.908 99.982 106.797C99.9132 106.38 99.851 105.963 99.7953 105.544C99.1671 100.814 100.594 96.8286 103.444 93.104C103.716 92.8918 103.972 92.5334 104.213 92.2759C104.853 91.593 105.503 90.9136 106.252 90.3481C107.412 89.4732 108.681 88.7537 109.916 87.9942C112.713 86.2747 114.416 84.2374 115.786 81.2672C115.999 80.7256 116.201 80.2023 116.325 79.6328Z" fill="#FFEED4"/>
<path d="M116.325 79.6328L116.399 79.7817C117.022 81.0454 117.435 82.3485 118.193 83.5608C119.142 85.0794 120.553 86.6495 122.133 87.527C123.277 88.1621 124.464 88.6502 125.565 89.3727C126.884 90.2375 127.977 91.3414 129.074 92.4618C130.658 94.4343 132.508 97.5316 132.682 100.106L132.578 100.074C132.254 98.9287 132.023 97.8474 131.544 96.7439C129.853 92.8537 126.528 89.5075 122.553 87.952C121.758 88.4006 121.079 89.3509 120.467 90.0243C119.548 91.0347 118.59 92.0106 117.652 93.0022C117.238 93.4396 116.869 93.9402 116.42 94.3395C116.402 94.3557 116.383 94.3714 116.365 94.3874C116.503 96.059 116.318 97.7297 116.273 99.3989C116.245 100.403 116.362 101.579 116.146 102.548C116.039 102.428 116.102 95.4201 116.103 94.7976C115.446 95.4719 114.652 96.4676 113.848 96.9218C114.6 96.0691 115.448 95.2722 116.244 94.4577C116.113 91.3437 116.126 88.2067 116.142 85.0906C116.147 83.9291 116.331 81.8833 116.143 80.8139C116.062 80.9717 116.01 81.105 115.866 81.2157C115.841 81.2354 115.812 81.25 115.785 81.2672C115.998 80.7256 116.2 80.2023 116.325 79.6328Z" fill="white"/>
<path d="M116.115 60.7653L116.455 60.4531C116.706 60.4797 116.916 60.7229 117.097 60.8952C119.922 63.5803 122.537 66.5403 125.216 69.371L128.12 72.3948C128.538 72.829 129.043 73.2692 129.415 73.739C129.438 73.7686 129.456 73.8018 129.477 73.8331C130.692 74.909 131.754 76.184 132.915 77.3209C133.164 77.5811 133.425 77.8353 133.653 78.1139C134.724 79.1352 139.667 84.5958 140.39 85.0084C141.129 85.7953 141.9 86.5459 142.675 87.2972L142.719 87.4331C144.088 88.5576 145.329 90.0347 146.556 91.3163C148.293 93.1296 150.069 94.8997 151.825 96.6924C152.358 97.2361 153.041 98.2605 153.705 98.5776L153.758 103.198C153.766 104.007 153.845 104.906 153.723 105.704C153.773 107.997 153.71 110.309 153.82 112.597L150.983 115.477C150.559 115.906 150.073 116.501 149.581 116.837C148.094 118.453 146.532 120.008 145 121.581C143.688 122.927 142.385 124.329 140.998 125.597C137.616 122.474 134.307 119.164 131.089 115.87C130.403 115.435 129.71 114.542 129.13 113.955C130.513 112.589 131.717 109.526 132.386 107.656C133.012 105.243 133.239 102.555 132.682 100.104C132.509 97.5294 130.658 94.4322 129.074 92.4597C127.977 91.3393 126.885 90.2354 125.566 89.3705C124.464 88.6481 123.278 88.1599 122.134 87.5248C120.553 86.6473 119.142 85.0773 118.193 83.5587C117.435 82.3463 117.022 81.0433 116.399 79.7796L116.325 79.6307C116.135 78.6133 116.271 77.3125 116.266 76.2708L116.229 68.6765L116.363 68.4252C116.209 65.8769 116.554 63.2927 116.115 60.7653Z" fill="#7ABBE2"/>
<path d="M129.477 73.832C130.692 74.908 131.754 76.1829 132.915 77.3199C133.164 77.58 133.425 77.8342 133.653 78.1128C134.724 79.1341 139.667 84.5948 140.389 85.0073C141.129 85.7943 141.9 86.5449 142.675 87.2962L142.719 87.432L142.734 94.7233C142.692 94.702 142.646 94.6878 142.609 94.6598C142.303 94.4311 141.973 94.0544 141.681 93.7918C139.767 92.0736 138.126 90.0503 136.193 88.3658L129.876 81.8802C127.884 79.9552 125.905 78.0455 123.965 76.0653C124.351 76.1615 124.94 76.9006 125.239 77.2051C126.173 77.1318 127.075 77.1546 128.01 77.2062C129.101 77.2663 130.759 77.7338 131.775 77.2408C131.986 77.1381 132.086 77.0896 132.167 76.8662C131.491 75.7906 130.296 75.0237 129.556 73.9479L129.477 73.832Z" fill="#68A3E9"/>
<path d="M129.102 81.332C130.903 83.1252 132.659 84.9589 134.465 86.7454C135.016 87.2903 135.503 87.9022 136.084 88.4148L136.193 88.3661C138.126 90.0506 139.767 92.0738 141.681 93.7921C141.974 94.0547 142.303 94.4314 142.609 94.6601C142.646 94.6881 142.693 94.7023 142.734 94.7236C142.72 96.0793 142.713 97.4351 142.712 98.791C142.712 99.364 142.644 100.046 142.75 100.607L142.629 108.294C142.601 109.577 142.487 110.852 142.516 112.137C142.488 112.13 142.46 112.122 142.433 112.116C141.564 111.901 140.646 111.844 139.763 111.69C137.475 111.29 135.188 110.855 132.885 110.548C132.494 110.496 131.681 110.742 131.424 110.533C131.778 109.731 132.504 108.545 132.386 107.656C133.012 105.242 133.239 102.554 132.682 100.103C132.509 97.5287 130.658 94.4314 129.074 92.459C129.062 92.4205 129.052 92.3815 129.039 92.3433C128.483 90.7618 124.333 88.4469 122.759 87.6496C123.178 87.0897 123.746 86.6053 124.244 86.1122C125.814 84.5606 127.598 83.0851 129.033 81.4134L129.102 81.332Z" fill="#88A5E4"/>
<path d="M142.719 87.4336C144.088 88.5581 145.329 90.0352 146.557 91.3168C148.293 93.1301 150.069 94.9003 151.825 96.6929C152.358 97.2366 153.041 98.261 153.705 98.5781L153.758 103.198C153.766 104.007 153.845 104.906 153.723 105.704C153.774 107.997 153.71 110.309 153.82 112.598L150.983 115.477C150.559 115.906 150.073 116.501 149.581 116.838C148.094 118.453 146.533 120.009 145 121.582C143.689 122.928 142.386 124.329 140.998 125.597C137.616 122.475 134.307 119.164 131.09 115.871C130.403 115.435 129.71 114.542 129.13 113.955C130.513 112.59 131.717 109.527 132.386 107.657C132.505 108.546 131.779 109.732 131.424 110.535C131.681 110.744 132.494 110.497 132.886 110.549C135.188 110.856 137.476 111.292 139.763 111.691C140.646 111.846 141.564 111.903 142.433 112.117C142.461 112.124 142.488 112.131 142.516 112.138C142.487 110.854 142.601 109.578 142.629 108.295L142.75 100.608C142.644 100.048 142.712 99.3653 142.712 98.7922C142.713 97.4364 142.72 96.0806 142.735 94.7248L142.719 87.4336Z" fill="#C7B3D7"/>
<path d="M131.089 115.871L131.23 115.832C131.902 116.42 133.246 118.119 133.993 118.377C134.29 118.48 134.615 118.576 134.893 118.721C136.545 119.582 139.544 122.688 141.55 121.799C141.585 121.783 141.62 121.766 141.654 121.748C142.669 121.214 142.92 120.058 143.829 119.5C144.534 119.066 146.235 118.371 147.037 118.057C147.834 117.745 148.482 117.685 149.149 117.114C149.28 117.003 149.427 116.911 149.581 116.838C148.094 118.453 146.532 120.009 145 121.582C143.688 122.928 142.385 124.329 140.998 125.597C137.616 122.475 134.307 119.164 131.089 115.871Z" fill="#FFEED4"/>
<path d="M142.718 87.4336C144.087 88.5581 145.329 90.0352 146.556 91.3168C148.292 93.1301 150.068 94.9003 151.825 96.6929C152.357 97.2366 153.041 98.261 153.705 98.5781L153.757 103.198C153.765 104.007 153.845 104.906 153.723 105.704C153.714 105.694 153.702 105.687 153.697 105.675C153.284 104.759 151.309 103.353 150.528 102.606C149.023 101.169 147.586 99.649 146.094 98.1958C145.033 97.1633 143.836 96.1812 142.874 95.0606C142.842 95.9462 143.023 100.183 142.75 100.608C142.644 100.048 142.712 99.3653 142.712 98.7922C142.713 97.4364 142.72 96.0806 142.734 94.7248L142.718 87.4336Z" fill="url(#paint8_linear_9096_22987)"/>
<path d="M20.2395 71.1262C20.229 65.2945 20.0999 59.4346 20.2439 53.6057C20.5225 42.3339 24.9819 32.0161 33.1684 24.2306C33.5079 23.9092 33.8526 23.5936 34.2025 23.2836C34.5524 22.9738 34.9074 22.6697 35.2674 22.3713C35.6273 22.0731 35.992 21.7809 36.3616 21.4947C36.7312 21.2084 37.1054 20.9283 37.4842 20.6545C37.8629 20.3805 38.2461 20.1128 38.6338 19.8515C39.0213 19.5903 39.4131 19.3355 39.8091 19.087C40.2051 18.8386 40.6052 18.5968 41.0091 18.3616C41.4131 18.1264 41.8208 17.8979 42.2322 17.676C42.6436 17.4543 43.0587 17.2393 43.4773 17.0312C43.8958 16.8231 44.3177 16.6219 44.7429 16.4277C45.168 16.2334 45.5963 16.0462 46.0277 15.8661C46.459 15.686 46.8933 15.513 47.3304 15.3472C47.7674 15.1813 48.207 15.0227 48.6493 14.8714C49.0915 14.72 49.5362 14.576 49.9833 14.4393C50.4302 14.3026 50.8793 14.1733 51.3306 14.0514C51.7819 13.9294 52.2351 13.815 52.6901 13.708C58.4689 12.3234 64.3123 12.523 70.2073 12.5111L85.8354 12.5019L107.161 12.5099C111.44 12.5116 115.731 12.4531 120.008 12.5646C127.134 12.7635 134.092 15.5602 140.105 19.2224C149.577 25.8117 157.038 34.9685 159.118 46.5615C159.34 47.8344 159.515 49.1137 159.644 50.3995C158.928 50.9956 158.323 51.7277 157.682 52.4029C156.842 53.2742 155.992 54.1357 155.132 54.9874C154.055 56.0637 152.953 57.1189 151.899 58.2165C151.314 58.8252 150.777 59.4942 150.173 60.0815C149.639 60.6022 149.013 61.0321 148.493 61.5674C147.735 62.3482 147.05 63.2062 146.307 64.0028C144.372 66.0778 142.366 68.1527 140.35 70.1499C139.519 70.7209 138.771 71.566 138.05 72.2697C136.331 73.9457 134.67 75.6851 132.915 77.323C131.754 76.1861 130.692 74.9111 129.477 73.8352C129.457 73.8039 129.438 73.7707 129.415 73.7411C129.044 73.2713 128.538 72.8311 128.12 72.3969L125.216 69.3731C122.537 66.5424 119.923 63.5824 117.097 60.8973C116.916 60.725 116.706 60.4818 116.455 60.4552L116.115 60.7674C116.554 63.2948 116.21 65.879 116.363 68.4273L116.23 68.6786C114.501 70.3317 112.865 72.0828 111.182 73.7823L102.272 82.7413C100.382 84.6404 98.4356 86.4508 96.5048 88.3049L89.7705 94.8681C88.6914 95.9105 85.2765 99.6444 84.1673 100.014C83.835 100.952 83.451 101.669 82.7909 102.431C81.082 103.82 79.4449 104.235 77.258 104.013C76.7466 103.962 76.2397 103.882 75.7373 103.774C75.235 103.665 74.7403 103.529 74.2534 103.364C73.6529 103.256 73.0467 102.978 72.5019 102.709C71.4404 102.367 70.3915 101.906 69.3375 101.529C68.8207 102.911 68.183 104.265 67.586 105.615C67.1009 106.712 66.6291 107.916 66.0221 108.949C65.3436 110.519 64.7359 112.148 63.9951 113.687C63.8362 113.995 63.7086 114.294 63.6005 114.623C63.1472 115.841 62.9754 117.216 62.4667 118.394L56.4525 112.291C55.7445 112.607 55.0576 113.617 54.5223 114.201C53.8143 114.973 49.6614 119.421 49.2065 119.641C49.0947 119.695 48.8961 119.717 48.7711 119.735C45.1804 115.833 41.2867 112.251 37.5852 108.464C37.4773 108.353 37.4179 108.254 37.3611 108.111C37.8735 106.731 38.8039 105.408 39.571 104.151C40.5718 102.523 41.5559 100.884 42.5233 99.235C42.7762 99.3989 43.0076 99.5922 43.2433 99.7798C43.6216 98.4672 43.9559 96.5333 43.955 95.1759L43.9763 95.1158C43.8183 93.5666 43.8601 92.0496 43.5363 90.511C43.1733 88.7862 42.3514 87.0899 41.6924 85.4575C40.7008 83.0007 39.7277 80.5537 38.6596 78.1281C36.4764 80.1418 34.4052 82.273 32.2958 84.3632C28.3475 88.326 24.362 92.2511 20.3393 96.1385C20.335 93.4348 20.4754 71.5897 20.2395 71.1262Z" fill="#0D2359"/>
<path d="M66.6979 23.4883C66.8525 23.5046 66.9937 23.5282 67.1438 23.5728C67.4544 23.6655 67.729 23.9253 67.8591 24.2197C67.9735 24.4792 67.9591 24.7829 67.8548 25.0432C67.6859 25.4658 67.3637 25.6388 66.967 25.814C66.7634 25.7912 66.5344 25.7766 66.3451 25.6949C66.0301 25.5592 65.7616 25.2461 65.6664 24.9188C65.5843 24.6368 65.6163 24.3484 65.7625 24.0935C65.9713 23.7295 66.3106 23.5892 66.6979 23.4883Z" fill="#2F4F84"/>
<path d="M100.192 19.8645C100.461 19.8573 100.762 19.832 101.02 19.9183C101.388 20.0414 101.713 20.3398 101.886 20.6844C102.061 21.0329 102.094 21.4277 101.965 21.7971C101.789 22.2979 101.461 22.5151 100.999 22.731C100.748 22.7447 100.477 22.7567 100.23 22.6999C99.8459 22.6113 99.4947 22.3654 99.2931 22.0245C99.2689 21.984 99.247 21.9423 99.2272 21.8995C99.2075 21.8568 99.19 21.8131 99.1748 21.7684C99.1597 21.7238 99.1469 21.6785 99.1365 21.6325C99.1261 21.5865 99.1182 21.5401 99.1127 21.4933C99.1072 21.4464 99.1042 21.3994 99.1036 21.3523C99.1031 21.3052 99.1051 21.2582 99.1096 21.2112C99.1139 21.1642 99.1208 21.1176 99.1301 21.0714C99.1394 21.0253 99.1511 20.9797 99.1653 20.9347C99.3284 20.3977 99.7107 20.1068 100.192 19.8645Z" fill="white"/>
<path d="M29.5204 77.3203C30.2221 77.786 30.8998 78.6032 31.5096 79.2005C30.8307 79.7971 30.2079 80.4541 29.5037 81.0223C28.7631 80.5334 28.0581 79.8623 27.4189 79.2493C28.044 78.5485 28.8169 77.9429 29.5204 77.3203Z" fill="#656CDD"/>
<path d="M50.2446 70.2883C50.3805 70.1523 50.4202 70.0321 50.6219 70.0352C51.5029 70.0484 55.0969 71.4265 56.1467 71.7739C56.6019 71.9245 57.1655 72.172 57.6405 72.1892C57.8266 73.2167 57.9087 74.2772 58.0229 75.316C58.3416 78.2156 58.5287 81.05 58.5635 83.9662L58.5102 84.1167C58.3974 84.0859 58.449 84.1188 58.3849 83.9636C57.9577 82.93 57.7855 81.1833 57.5461 80.0447C57.3263 79.0008 56.9971 78.0104 56.6761 76.9958C56.4494 76.2788 56.2228 75.5228 55.8471 74.8662C54.7098 72.879 52.0109 71.8625 50.3322 70.368C50.3028 70.3416 50.2738 70.3149 50.2446 70.2883Z" fill="#DAAD6A"/>
<path d="M52.4247 83.6419C51.3075 82.6675 49.0246 80.3246 48.3881 79.0501C47.2112 76.694 48.3234 74.2773 49.3886 72.1186C49.6569 71.5749 50.0262 70.9807 50.2078 70.4064C50.2204 70.3662 50.2322 70.3256 50.2443 70.2852C50.2735 70.3117 50.3025 70.3384 50.3319 70.3648C52.0106 71.8593 54.7095 72.8758 55.8468 74.863C56.2225 75.5196 56.4491 76.2756 56.6758 76.9926C56.9968 78.0072 57.326 78.9976 57.5458 80.0415C57.7852 81.1801 57.9574 82.9268 58.3846 83.9604C58.4487 84.1156 58.3971 84.0828 58.5099 84.1135L58.5632 83.963C58.5887 84.1833 58.6149 84.3805 58.5774 84.6017C58.4762 84.6294 58.3825 84.656 58.2774 84.6656C56.8834 84.7945 54.8776 84.9186 53.5793 84.399C53.1558 84.2295 52.7847 83.9172 52.4247 83.6419Z" fill="#C3774C"/>
<path d="M79.1812 84.0545C80.0704 83.6393 80.9205 83.0993 81.8973 82.9141C81.9211 82.9534 81.9434 82.9937 81.9687 83.032C82.5613 83.9237 84.5061 84.212 84.2553 85.6603C84.1313 86.3762 83.4968 87.0947 82.9944 87.5916L82.939 87.7053C83.1876 88.4104 83.5541 89.3965 83.192 90.1176C83.1434 90.2141 83.0613 90.3245 82.9849 90.3981C82.4778 91.4507 82.8761 92.4092 83.1891 93.466C83.9779 95.7034 84.5604 97.6287 84.1668 100.011C83.8346 100.95 83.4505 101.666 82.7905 102.428C81.0815 103.817 79.4445 104.233 77.2576 104.01C76.7462 103.959 76.2393 103.88 75.7369 103.771C75.2345 103.663 74.7399 103.527 74.2529 103.362C73.6525 103.254 73.0462 102.975 72.5015 102.706C72.8507 102.689 73.1708 102.867 73.4987 102.975C73.5131 102.497 73.6947 102.112 73.788 101.653C73.9499 100.86 74.0912 100.042 74.2137 99.2413C74.6275 96.5371 74.4048 93.3448 75.5013 90.8088C76.0494 89.5412 77.1551 88.5046 77.8723 87.3202C78.4582 86.3527 78.806 85.1896 79.3065 84.1683C78.6967 84.5381 77.8742 85.1952 77.1748 85.311C77.7877 84.8253 78.5044 84.4449 79.1812 84.0545Z" fill="#765225"/>
<path d="M77.2495 91.1963C78.9066 89.7684 81.0409 88.7816 82.939 87.707C83.1876 88.4121 83.5541 89.3982 83.192 90.1193C83.1435 90.2158 83.0614 90.3262 82.9849 90.3998C81.1455 90.8272 79.1272 90.9149 77.2495 91.1963Z" fill="#DAAD6A"/>
<path d="M74.573 70.3849C74.8692 70.3498 75.2379 70.3798 75.448 70.132C75.5345 70.03 75.5923 69.8506 75.6419 69.7252C75.7562 69.4355 75.9129 69.2569 76.2002 69.1283C76.8768 68.8252 80.9053 68.9527 81.6091 69.2896C81.8088 69.3853 81.9298 69.5676 81.9841 69.7799C82.0674 70.1051 82.0562 70.4658 82.086 70.7987C82.1015 70.9719 82.0924 70.9103 82.1806 71.0845C82.2718 71.6187 82.2086 72.1579 82.2898 72.6827L82.6651 73.2194L82.9249 73.6865C83.2474 74.1189 83.5457 74.5567 83.8333 75.0133C84.6684 76.332 86.6938 78.6808 86.3204 80.273C86.2765 80.4597 86.2092 80.6446 86.1348 80.8209C85.9151 81.1065 85.7342 81.3384 85.4315 81.5381C84.367 82.2607 83.1226 82.5733 81.8974 82.9164C80.9206 83.1016 80.0705 83.6417 79.1813 84.0568C78.5045 84.4473 77.7878 84.8276 77.1749 85.3133L76.9355 85.4545C75.5491 86.4153 73.4471 87.6312 72.6308 89.1251C72.3727 89.5976 72.2279 90.1867 72.066 90.701C69.6463 89.501 67.2271 88.3566 64.7533 87.271C63.6004 86.7651 62.4611 86.2135 61.2656 85.8141C61.2788 81.229 61.5059 76.6554 61.6341 72.0742C62.6884 72.0853 67.2534 71.952 68.0118 71.7348C68.9731 71.7342 69.9371 71.6674 70.8972 71.6207C72.3335 71.5199 73.8125 71.4481 75.2515 71.5027L75.3622 71.4201C75.4389 71.0731 75.5079 70.8184 75.3079 70.495C75.0495 70.3282 74.8757 70.3791 74.573 70.3849Z" fill="#DAAD6A"/>
<path d="M74.5729 70.3849C74.8691 70.3498 75.2379 70.3798 75.4479 70.132C75.5344 70.03 75.5923 69.8506 75.6418 69.7252C75.7561 69.4355 75.9129 69.2569 76.2001 69.1283C76.8767 68.8252 80.9053 68.9527 81.6091 69.2896C81.8088 69.3853 81.9297 69.5676 81.984 69.7799C82.0673 70.1051 82.0561 70.4658 82.086 70.7987C82.1014 70.9719 82.0923 70.9103 82.1805 71.0845C82.2718 71.6187 82.2085 72.1579 82.2897 72.6827L82.665 73.2194L82.9248 73.6865C83.2474 74.1189 83.5457 74.5567 83.8332 75.0133C84.6684 76.332 86.6937 78.6808 86.3204 80.273C86.2764 80.4597 86.2091 80.6446 86.1347 80.8209C85.915 81.1065 85.7341 81.3384 85.4314 81.5381C84.3669 82.2607 83.1226 82.5733 81.8974 82.9164C80.9205 83.1016 80.0705 83.6417 79.1812 84.0568C78.5044 84.4473 77.7878 84.8276 77.1748 85.3133L76.9354 85.4545C74.6112 82.1338 72.1851 78.8578 69.7852 75.5902C70.1814 74.2741 70.552 72.951 70.8971 71.6207C72.3335 71.5199 73.8125 71.4481 75.2514 71.5027L75.3622 71.4201C75.4388 71.0731 75.5079 70.8184 75.3079 70.495C75.0495 70.3282 74.8756 70.3791 74.5729 70.3849Z" fill="#FFEED4"/>
<path d="M82.5618 78.9492C83.5883 79.7692 84.5746 80.5325 85.4314 81.5378C84.3669 82.2604 83.1225 82.5729 81.8973 82.9161C80.9205 83.1013 80.0704 83.6413 79.1812 84.0565C79.1333 82.9388 79.0718 81.8218 78.9966 80.7056C80.172 80.0626 81.4419 79.7195 82.5618 78.9492Z" fill="url(#paint9_linear_9096_22987)"/>
<path d="M74.5732 70.3849C74.8694 70.3498 75.2382 70.3798 75.4483 70.132C75.5348 70.03 75.5926 69.8506 75.6422 69.7252C75.7564 69.4355 75.9132 69.2569 76.2004 69.1283C76.877 68.8252 80.9056 68.9527 81.6094 69.2896C81.8091 69.3853 81.93 69.5676 81.9844 69.7799C82.0677 70.1051 82.0564 70.4658 82.0863 70.7987C82.1018 70.9719 82.0926 70.9103 82.1809 71.0845C82.2721 71.6187 82.2088 72.1579 82.29 72.6827C81.765 73.529 81.3721 75.9721 80.856 77.1776C80.6447 77.6711 80.3737 78.0356 79.8607 78.2279C78.9674 78.5628 77.2852 78.6619 76.4249 78.252C74.8207 77.4877 76.0495 73.0188 75.5309 71.7024C75.4694 71.5463 75.3985 71.5634 75.2518 71.5027L75.3625 71.4201C75.4391 71.0731 75.5082 70.8184 75.3082 70.495C75.0498 70.3282 74.8759 70.3791 74.5732 70.3849Z" fill="#88A5E4"/>
<path d="M77.5417 69.64C78.3502 69.6118 80.4937 69.4403 81.1559 69.8293C81.4303 69.9905 81.5315 70.3774 81.5711 70.6713C81.8019 72.3858 81.239 76.539 80.1945 77.9136C79.496 78.3086 77.9946 78.3584 77.2075 78.1736C76.9802 78.1204 76.7206 78.0187 76.6248 77.7892C76.3655 77.1681 76.3261 70.6518 76.5592 70.2364C76.7883 69.8284 77.1142 69.7403 77.5417 69.64Z" fill="white"/>
<path d="M52.4248 83.6445C52.7848 83.9198 53.1558 84.2322 53.5793 84.4016C54.8776 84.9212 56.8835 84.7971 58.2774 84.6683C58.3825 84.6586 58.4762 84.6321 58.5775 84.6043C58.5525 85.2771 58.5344 85.95 58.5231 86.6231L58.572 96.5228C62.1653 98.1574 65.6991 100.006 69.3372 101.529C68.8204 102.911 68.1827 104.265 67.5857 105.615C67.1006 106.711 66.6288 107.915 66.0218 108.949C65.3433 110.519 64.7356 112.148 63.9949 113.687C63.836 113.995 63.7083 114.293 63.6002 114.623C63.1469 115.841 62.9752 117.216 62.4664 118.394L56.4523 112.291C55.7442 112.607 55.0573 113.617 54.522 114.2C53.814 114.972 49.6611 119.421 49.2062 119.641C49.0944 119.695 48.8958 119.716 48.7708 119.734C45.1801 115.833 41.2864 112.251 37.585 108.463C37.477 108.353 37.4176 108.254 37.3608 108.111C37.8732 106.731 38.8037 105.408 39.5708 104.151C40.5715 102.522 41.5556 100.884 42.523 99.2347C42.776 99.3986 43.0073 99.5919 43.243 99.7795C43.6213 98.4669 43.9556 96.533 43.9547 95.1756L43.976 95.1155C44.258 93.9165 44.2871 92.631 44.6426 91.4573L44.6879 91.3116C44.7665 91.0556 44.8549 90.8809 45.0319 90.6765C45.7711 89.8229 46.705 89.0486 47.5256 88.2686C49.1481 86.7162 50.7812 85.1749 52.4248 83.6445Z" fill="#B35C55"/>
<path d="M53.4978 94.2109C55.147 99.5753 56.4611 100.9 60.5734 104.479C61.8796 105.616 63.1478 106.81 64.507 107.883C64.9974 108.27 65.5307 108.576 66.0217 108.947C65.3432 110.517 64.7355 112.145 63.9948 113.685C63.8359 113.993 63.7082 114.291 63.6001 114.621C63.1468 115.839 62.975 117.213 62.4663 118.392L56.4522 112.288L54.9775 110.825C54.8619 109.52 54.5511 108.194 54.3772 106.889C53.9739 103.911 53.6933 100.922 53.5354 97.9215C53.4744 96.7186 53.3422 95.4089 53.4978 94.2109Z" fill="#DAAD6A"/>
<path d="M52.4249 83.6445C52.7849 83.9198 53.156 84.2322 53.5795 84.4016C54.8778 84.9212 56.8836 84.7971 58.2776 84.6683C58.3827 84.6586 58.4764 84.6321 58.5776 84.6043C58.5527 85.2771 58.5346 85.95 58.5233 86.6231C58.5177 86.5954 58.5115 86.5678 58.5062 86.54C58.4363 86.1738 58.5878 85.0733 58.3155 84.914C57.4637 84.4157 54.6549 85.3232 53.2625 84.4108L53.1273 84.4204C53.0104 85.5261 53.2321 87.2088 53.2745 88.3785C53.346 90.3559 53.2129 92.2365 53.4981 94.2132C53.3425 95.4112 53.4747 96.7209 53.5357 97.9238C53.6935 100.924 53.9741 103.914 54.3775 106.891C54.5513 108.196 54.8621 109.522 54.9778 110.827C51.1143 107.094 47.0944 103.528 43.2432 99.7795C43.6214 98.4669 43.9558 96.533 43.9549 95.1756L43.9762 95.1155C44.2581 93.9165 44.2873 92.631 44.6427 91.4573L44.6881 91.3116C44.7667 91.0556 44.8551 90.8809 45.0321 90.6765C45.7713 89.8229 46.7052 89.0486 47.5257 88.2686C49.1483 86.7163 50.7814 85.1749 52.4249 83.6445Z" fill="url(#paint10_linear_9096_22987)"/>
<path d="M42.523 99.2344C42.776 99.3982 43.0073 99.5916 43.243 99.7791C47.0942 103.528 51.1141 107.094 54.9776 110.827L56.4523 112.29C55.7442 112.607 55.0573 113.617 54.522 114.2C53.814 114.972 49.6611 119.42 49.2062 119.641C49.0944 119.695 48.8958 119.716 48.7708 119.734C45.1801 115.833 41.2864 112.251 37.585 108.463C37.477 108.352 37.4176 108.253 37.3608 108.11C37.8732 106.731 38.8037 105.408 39.5708 104.151C40.5715 102.522 41.5556 100.883 42.523 99.2344Z" fill="url(#paint11_linear_9096_22987)"/>
<path d="M78.912 40.4766C81.0696 42.318 83.3252 44.4007 84.9958 46.6992C86.4436 49.1765 87.1876 52.0215 86.4504 54.865C85.8269 57.2693 83.1651 60.8535 81.4834 62.6842C81.936 64.1745 83.4032 67.09 83.4474 68.4006C83.4778 69.3038 83.1273 70.2418 82.6859 71.0193C82.6588 71.0669 82.6288 71.1129 82.6003 71.1599L82.1809 71.0836C82.0926 70.9094 82.1018 70.9709 82.0863 70.7978C82.0564 70.4648 82.0677 70.1041 81.9843 69.7789C81.93 69.5666 81.8091 69.3843 81.6094 69.2887C80.9056 68.9517 76.877 68.8243 76.2004 69.1273C75.9132 69.256 75.7564 69.4346 75.6422 69.7243C75.5926 69.8496 75.5347 70.0291 75.4483 70.131C75.2382 70.3789 74.8694 70.3488 74.5732 70.384C73.4281 70.42 72.2831 70.462 71.1385 70.5102L70.9964 70.573C68.7573 70.4478 66.3639 70.6681 64.1149 70.7588C63.3378 70.7902 62.5457 70.8909 61.7693 70.8373L61.7248 70.7547L61.9215 70.3128L61.8569 70.2173C62.5665 68.5715 64.6298 66.2289 64.9826 64.6368C64.9088 64.3153 63.7708 63.6595 63.4491 63.3689C62.628 62.6275 61.8878 61.6833 61.152 60.8491C59.8468 59.3688 58.7338 57.7411 57.5291 56.18C56.6855 55.0868 55.7692 54.0576 54.8928 52.9913C53.7855 51.6447 52.725 50.275 51.5501 48.986L51.571 48.9882C51.4223 48.8111 51.4852 48.7662 51.4186 48.5639C51.3437 48.3371 50.8665 47.8951 50.7074 47.6778C50.204 46.9901 49.3449 45.303 48.8125 44.8268L48.7214 44.9702C48.5518 44.783 48.5189 44.4345 48.4622 44.1857C47.9055 44.2089 45.1942 46.5544 44.6653 47.039L44.5215 46.9921C45.3279 46.2571 46.1716 45.5678 47.0527 44.9242C52.6547 40.8204 55.6337 40.1944 62.5116 41.2547C65.405 41.6283 68.289 42.2699 71.0973 43.0535C72.5829 43.468 74.1368 44.1894 75.6698 44.3343C76.4861 44.4116 77.259 44.3309 77.9169 43.7957C78.6002 43.2398 78.8361 42.3928 78.902 41.5474C78.9296 41.1932 78.9173 40.8316 78.912 40.4766Z" fill="url(#paint12_linear_9096_22987)"/>
<path d="M67.5713 50.2773C67.9605 50.4689 68.5938 51.4118 68.797 51.83C68.8329 51.9035 68.8334 51.9364 68.8441 52.0088L68.7365 52.0047C68.4173 51.6251 67.656 50.7476 67.5713 50.2773Z" fill="#765225"/>
<path d="M63.5508 57.0224C64.9579 56.6895 66.369 56.3747 67.7841 56.0781L67.7959 56.1555C68.142 58.5148 68.1758 60.9277 68.8362 63.2414C69.4073 65.2428 70.4987 67.1379 71.4117 69.0005C71.336 69.5087 71.2542 70.007 71.1382 70.508L70.9962 70.5708C68.7571 70.4456 66.3637 70.6659 64.1147 70.7566C63.3376 70.788 62.5455 70.8887 61.7691 70.8351L61.7246 70.7525L61.9213 70.3106C62.2001 70.11 65.9131 63.8151 66.5855 62.7561C65.6336 60.8181 64.519 58.9551 63.5508 57.0224Z" fill="#DAAD6A"/>
<path d="M71.2137 55.3465C72.885 55.0602 76.6755 54.1105 78.0502 55.0741C80.0073 56.4459 80.8862 60.4569 81.4832 62.6835C81.9358 64.1738 83.403 67.0893 83.4472 68.3999C83.4776 69.303 83.1271 70.241 82.6857 71.0185C82.6586 71.0661 82.6286 71.1122 82.6001 71.1591L82.1807 71.0828C82.0924 70.9086 82.1016 70.9702 82.0861 70.797C82.0562 70.4641 82.0675 70.1034 81.9841 69.7782C81.9298 69.5658 81.8089 69.3836 81.6092 69.2879C80.9054 68.951 76.8768 68.8235 76.2002 69.1266C75.913 69.2552 75.7562 69.4338 75.642 69.7235C75.5924 69.8488 75.5346 70.0283 75.4481 70.1303C75.238 70.3781 74.8692 70.3481 74.573 70.3832C73.4279 70.4192 72.2829 70.4613 71.1383 70.5094C71.2543 70.0085 71.336 69.5101 71.4118 69.0019C70.4988 67.1394 69.4073 65.2443 68.8362 63.2428C68.1758 60.9292 68.1421 58.5162 67.796 56.1569L67.7842 56.0796C68.9304 55.8851 70.0764 55.5926 71.2137 55.3465Z" fill="#FFEED4"/>
<path d="M120.008 12.5625C127.134 12.7614 134.092 15.558 140.105 19.2202C139.953 19.5493 137.425 21.7195 136.906 22.2449C123.848 35.4866 110.632 48.569 97.258 61.4919C95.976 62.7203 94.7939 64.0301 93.5594 65.3024C92.0273 66.8816 90.4576 68.4167 88.9436 70.0156C87.4891 71.5517 86.0873 73.1872 84.5024 74.5901C84.2977 74.7713 84.089 74.9097 83.8336 75.0113C83.546 74.5548 83.2477 74.1169 82.9252 73.6845L82.6654 73.2174L82.2901 72.6808C82.2088 72.1559 82.2721 71.6168 82.1809 71.0826L82.6003 71.1589C82.6288 71.1119 82.6588 71.0659 82.6859 71.0182C83.1273 70.2408 83.4778 69.3028 83.4474 68.3996C83.4033 67.089 81.936 64.1735 81.4834 62.6832C83.1651 60.8525 85.827 57.2683 86.4504 54.8639C87.1877 52.0205 86.4436 49.1755 84.9959 46.6982C85.4464 46.5117 85.8106 46.1315 86.165 45.8049C87.6245 44.4603 89.0038 43.017 90.4118 41.6185L96.3787 35.7488L113.386 19.0127L117.462 15.0134C118.234 14.2431 119.097 13.134 120.008 12.5625Z" fill="#2F4F84"/>
<path d="M99.7026 47.4062C99.7907 47.4184 99.941 47.4354 100.021 47.4637C100.245 47.5423 100.298 47.6479 100.412 47.8373C100.422 48.1375 100.354 48.2896 100.214 48.5522C100.095 48.5386 99.9165 48.5328 99.8098 48.4819C99.5732 48.3685 99.5458 48.2678 99.457 48.0421C99.4806 47.7557 99.541 47.6443 99.7026 47.4062Z" fill="#68A3E9"/>
<path d="M82.1807 71.082L82.6001 71.1583C82.8959 71.2696 83.1638 71.3241 83.2862 71.6468C83.4445 72.0645 83.1647 72.4653 82.9546 72.8045C82.8648 72.9495 82.7704 73.0831 82.6651 73.2169L82.2898 72.6802C82.2086 72.1554 82.2719 71.6162 82.1807 71.082Z" fill="#656CDD"/>
<path d="M140.105 19.2227C149.577 25.812 157.038 34.9688 159.117 46.5617C159.339 47.8346 159.515 49.114 159.643 50.3997C158.927 50.9958 158.322 51.728 157.682 52.4031C156.842 53.2744 155.991 54.1359 155.131 54.9876C154.055 56.0639 152.953 57.1192 151.898 58.2167C151.314 58.8255 150.777 59.4945 150.173 60.0818C149.638 60.6024 149.013 61.0324 148.493 61.5677C147.735 62.3485 147.05 63.2065 146.307 64.0031C144.371 66.078 142.366 68.153 140.35 70.1502C139.519 70.7211 138.771 71.5663 138.05 72.2699C136.331 73.946 134.67 75.6853 132.915 77.3233C131.754 76.1863 130.692 74.9114 129.477 73.8354C129.456 73.8041 129.438 73.7709 129.415 73.7414C129.043 73.2715 128.538 72.8314 128.119 72.3972L125.216 69.3734C122.537 66.5426 119.922 63.5826 117.097 60.8976C116.916 60.7253 116.706 60.482 116.455 60.4555L116.115 60.7677C116.554 63.2951 116.209 65.8792 116.363 68.4275L116.229 68.6789C114.5 70.3319 112.864 72.0831 111.182 73.7825L102.272 82.7416C100.381 84.6407 98.4353 86.4511 96.5045 88.3052L89.7702 94.8684C88.6911 95.9107 85.2761 99.6447 84.167 100.014C84.5605 97.6315 83.978 95.7061 83.1893 93.4688C82.8762 92.412 82.4779 91.4535 82.985 90.4009C83.0615 90.3272 83.1436 90.2168 83.1921 90.1203C83.5542 89.3993 83.1877 88.4131 82.9391 87.7081L82.9945 87.5944C83.4969 87.0974 84.1315 86.379 84.2554 85.663C84.5062 84.2148 82.5614 83.9265 81.9688 83.0348C81.9435 82.9964 81.9212 82.9562 81.8975 82.9168C83.1227 82.5737 84.367 82.2612 85.4315 81.5385C85.7342 81.3388 85.9151 81.107 86.1348 80.8213C86.2092 80.645 86.2765 80.4601 86.3205 80.2734C86.6938 78.6812 84.6685 76.3324 83.8333 75.0137C84.0888 74.9121 84.2974 74.7738 84.5022 74.5925C86.087 73.1896 87.4889 71.5541 88.9433 70.018C90.4573 68.4191 92.027 66.884 93.5591 65.3048C94.7936 64.0325 95.9758 62.7227 97.2578 61.4944C110.632 48.5714 123.848 35.489 136.906 22.2473C137.425 21.7219 139.952 19.5517 140.105 19.2227Z" fill="url(#paint13_linear_9096_22987)"/>
<path d="M140.843 32.3438C140.925 32.4299 140.893 32.3854 140.955 32.5004C141.585 33.6727 142.2 34.306 143.387 34.9221C142.096 35.4357 141.599 36.0408 140.991 37.2628C140.216 36.1825 139.665 35.4913 138.438 34.8908C139.608 34.2385 140.294 33.5798 140.843 32.3438Z" fill="white"/>
<path d="M83.2855 93.1408C85.2683 91.607 86.8488 89.527 88.6774 87.8133C92.5829 84.1538 96.2947 80.3311 100.079 76.5476L108.249 68.5257C110.844 65.9491 113.353 63.1566 116.115 60.7656C116.554 63.293 116.209 65.8772 116.363 68.4255L116.229 68.6768C114.5 70.3299 112.864 72.081 111.182 73.7805L102.272 82.7395C100.381 84.6387 98.4352 86.449 96.5044 88.3032L89.7701 94.8663C88.691 95.9087 85.2761 99.6426 84.1669 100.012C84.5604 97.6294 83.9779 95.7041 83.1892 93.4667C82.8761 92.4099 82.4778 91.4514 82.9849 90.3988C83.0614 90.3252 83.1435 90.2148 83.192 90.1183C83.5541 89.3972 83.1876 88.4111 82.939 87.706L82.9944 87.5923C84.3302 89.6741 82.2602 90.8026 83.2855 93.1408Z" fill="#656CDD"/>
<path d="M20.9726 132.773C23.2641 143.654 30.3822 153.525 38.3721 159.216C39.0677 159.709 39.7727 160.181 40.487 160.634C41.2013 161.087 41.9242 161.52 42.6556 161.932C43.3872 162.345 44.1265 162.736 44.8737 163.107C45.6208 163.478 46.3749 163.828 47.1358 164.156C47.8968 164.485 48.6639 164.791 49.4372 165.077C50.2103 165.362 50.9887 165.626 51.7724 165.867C52.5561 166.109 53.3442 166.328 54.1367 166.526C54.929 166.723 55.7249 166.898 56.5243 167.051C61.7909 168.043 67.0737 167.849 72.3866 167.85L91.5369 167.822L112.464 167.781C115.952 167.77 119.51 167.948 122.986 167.708C124.2 167.634 125.408 167.49 126.609 167.276C127.811 167.061 129 166.776 130.178 166.423C141.331 163.067 149.884 154.7 155.725 143.051C156.134 142.25 156.521 141.436 156.887 140.607C157.253 139.778 157.596 138.936 157.918 138.081C158.24 137.227 158.539 136.361 158.815 135.484C159.091 134.608 159.344 133.722 159.574 132.826C160.128 133.739 160.445 135.148 160.795 136.206C161.596 138.626 162.462 141.019 163.219 143.46C163.675 144.931 164.307 147.653 164.926 148.9C160.919 158.853 153.616 166.225 144.912 169.872C142.351 170.945 139.708 171.675 136.992 171.883C134.872 172.046 132.713 171.958 130.589 171.955L119.87 171.942L86.6942 171.943L57.7859 171.951L49.056 171.945C46.9747 171.945 44.8781 172.011 42.8033 171.789C39.1043 171.393 35.2871 170.095 31.9386 168.175C31.6057 167.984 31.2754 167.786 30.9477 167.583C30.62 167.38 30.2951 167.17 29.9731 166.955C29.6509 166.739 29.3317 166.518 29.0155 166.291C28.6991 166.063 28.3859 165.83 28.0758 165.591C27.7656 165.352 27.4587 165.107 27.1551 164.857C26.8515 164.606 26.5513 164.35 26.2544 164.088C25.9575 163.826 25.6641 163.559 25.3743 163.286C25.0844 163.014 24.7982 162.736 24.5158 162.452C24.2333 162.169 23.9546 161.881 23.6798 161.587C23.4049 161.293 23.134 160.994 22.8671 160.69C22.6001 160.387 22.3372 160.078 22.0784 159.764C21.8196 159.45 21.565 159.132 21.3146 158.809C21.0643 158.485 20.8182 158.158 20.5765 157.825C20.3348 157.493 20.0976 157.156 19.8648 156.815C19.632 156.474 19.4037 156.128 19.1801 155.778C18.9563 155.429 18.7373 155.075 18.523 154.717C17.5803 153.161 16.6347 151.446 15.9604 149.703C16.6278 147.885 17.1142 145.964 17.634 144.081L19.6185 137.007C19.9797 135.738 20.3224 133.847 20.9726 132.773Z" fill="url(#paint14_linear_9096_22987)"/>
<defs>
<linearGradient id="paint0_linear_9096_22987" x1="90" y1="0" x2="90" y2="180" gradientUnits="userSpaceOnUse">
<stop stop-color="#7A4EA1"/>
<stop offset="1" stop-color="#12255C"/>
</linearGradient>
<linearGradient id="paint1_linear_9096_22987" x1="135.473" y1="81.4766" x2="178.321" y2="62.7686" gradientUnits="userSpaceOnUse">
<stop stop-color="#8D4F93"/>
<stop offset="1" stop-color="#2D31A2"/>
</linearGradient>
<linearGradient id="paint2_linear_9096_22987" x1="60.8719" y1="175.362" x2="40.1264" y2="118.77" gradientUnits="userSpaceOnUse">
<stop stop-color="#E7CABF"/>
<stop offset="1" stop-color="#E6EAFC"/>
</linearGradient>
<linearGradient id="paint3_linear_9096_22987" x1="77.7645" y1="139.593" x2="75.8526" y2="155.532" gradientUnits="userSpaceOnUse">
<stop stop-color="#000E55"/>
<stop offset="1" stop-color="#4E3658"/>
</linearGradient>
<linearGradient id="paint4_linear_9096_22987" x1="123.886" y1="106.083" x2="117.15" y2="168.442" gradientUnits="userSpaceOnUse">
<stop stop-color="#000A3D"/>
<stop offset="1" stop-color="#59228B"/>
</linearGradient>
<linearGradient id="paint5_linear_9096_22987" x1="95.3101" y1="153.77" x2="93.3296" y2="169.899" gradientUnits="userSpaceOnUse">
<stop stop-color="#9726C8"/>
<stop offset="1" stop-color="#CF3BCC"/>
</linearGradient>
<linearGradient id="paint6_linear_9096_22987" x1="93.4424" y1="139.785" x2="88.878" y2="105.598" gradientUnits="userSpaceOnUse">
<stop stop-color="#FFF79E"/>
<stop offset="1" stop-color="#D063B5"/>
</linearGradient>
<linearGradient id="paint7_linear_9096_22987" x1="91.7463" y1="116.046" x2="91.8103" y2="98.8456" gradientUnits="userSpaceOnUse">
<stop stop-color="#CE7FAB"/>
<stop offset="1" stop-color="#8A75D0"/>
</linearGradient>
<linearGradient id="paint8_linear_9096_22987" x1="155.231" y1="103.063" x2="141.037" y2="89.6979" gradientUnits="userSpaceOnUse">
<stop stop-color="#8AA7C8"/>
<stop offset="1" stop-color="#8AC6DD"/>
</linearGradient>
<linearGradient id="paint9_linear_9096_22987" x1="79.1283" y1="81.5947" x2="84.0625" y2="81.2556" gradientUnits="userSpaceOnUse">
<stop stop-color="#D75E4A"/>
<stop offset="1" stop-color="#FFAB56"/>
</linearGradient>
<linearGradient id="paint10_linear_9096_22987" x1="46.8869" y1="106.31" x2="57.0986" y2="86.1988" gradientUnits="userSpaceOnUse">
<stop stop-color="#C68E35"/>
<stop offset="1" stop-color="#9C6466"/>
</linearGradient>
<linearGradient id="paint11_linear_9096_22987" x1="39.5544" y1="102.214" x2="52.6071" y2="116.531" gradientUnits="userSpaceOnUse">
<stop stop-color="#D3BEE5"/>
<stop offset="1" stop-color="#FFFFF9"/>
</linearGradient>
<linearGradient id="paint12_linear_9096_22987" x1="52.72" y1="60.5857" x2="82.536" y2="42.6497" gradientUnits="userSpaceOnUse">
<stop stop-color="#351629"/>
<stop offset="1" stop-color="#D2BE82"/>
</linearGradient>
<linearGradient id="paint13_linear_9096_22987" x1="146.817" y1="23.7623" x2="96.5954" y2="101.69" gradientUnits="userSpaceOnUse">
<stop stop-color="#3E6683"/>
<stop offset="1" stop-color="#3D4CF2"/>
</linearGradient>
<linearGradient id="paint14_linear_9096_22987" x1="93.5514" y1="178.338" x2="85.1753" y2="123.38" gradientUnits="userSpaceOnUse">
<stop stop-color="#CE9476"/>
<stop offset="1" stop-color="#906788"/>
</linearGradient>
</defs>
</svg>
