<svg width="18" height="15" viewBox="0 0 18 15" fill="none" xmlns="http://www.w3.org/2000/svg">
<rect x="3.19531" y="1.81641" width="14.5564" height="12.816" rx="1.22057" fill="black"/>
<rect x="5.09375" y="4.87109" width="10.7591" height="7.93373" fill="white"/>
<rect x="14.2818" y="0.905794" width="1.87606" height="3.05143" rx="0.915429" fill="white" stroke="black" stroke-width="0.610286"/>
<path d="M11.5581 6.09766H12.5978M6.35938 9.1055V10.1081M6.35938 10.1081V12.1133H8.43887M6.35938 10.1081H14.6773M14.6773 10.1081V12.1133H12.5978M14.6773 10.1081V8.10288M14.6773 8.10288V6.09766H12.5978M14.6773 8.10288H10.5184V12.1133M10.5184 12.1133H12.5978M10.5184 12.1133H8.43887M12.5978 12.1133V6.09766M8.43887 9.1055V12.1133" stroke="black" stroke-width="0.610286" stroke-linecap="round"/>
<path d="M8.30194 3.94291C8.30194 5.9836 6.64764 7.6379 4.60697 7.6379C2.56629 7.6379 0.911991 5.9836 0.911991 3.94291C0.911991 1.90223 2.56629 0.247929 4.60697 0.247929C6.64764 0.247929 8.30194 1.90223 8.30194 3.94291Z" fill="black" stroke="white" stroke-width="0.495858"/>
<path d="M4.60742 1.97266V4.43698L5.83958 5.17627" stroke="white" stroke-width="0.495858" stroke-linecap="round"/>
</svg>
